G04*
G04 #@! TF.GenerationSoftware,Altium Limited,Altium Designer,21.2.0 (30)*
G04*
G04 Layer_Physical_Order=1*
G04 Layer_Color=255*
%FSLAX25Y25*%
%MOIN*%
G70*
G04*
G04 #@! TF.SameCoordinates,4DC21BA0-2D48-497D-8E21-FAA421B52516*
G04*
G04*
G04 #@! TF.FilePolarity,Positive*
G04*
G01*
G75*
%ADD12R,0.05118X0.03543*%
%ADD13R,0.03543X0.05118*%
%ADD14R,0.03150X0.03150*%
G04:AMPARAMS|DCode=15|XSize=23.62mil|YSize=35.43mil|CornerRadius=0mil|HoleSize=0mil|Usage=FLASHONLY|Rotation=135.000|XOffset=0mil|YOffset=0mil|HoleType=Round|Shape=Rectangle|*
%AMROTATEDRECTD15*
4,1,4,0.02088,0.00418,-0.00418,-0.02088,-0.02088,-0.00418,0.00418,0.02088,0.02088,0.00418,0.0*
%
%ADD15ROTATEDRECTD15*%

%ADD16R,0.03150X0.03150*%
%ADD26C,0.00787*%
%ADD27C,0.05118*%
%ADD28R,0.05118X0.05118*%
%ADD29C,0.04134*%
%ADD30C,0.02362*%
G36*
X7850Y39465D02*
X11680Y38505D01*
X15398Y37175D01*
X18968Y35487D01*
X22355Y33457D01*
X25527Y31104D01*
X28453Y28453D01*
X31104Y25527D01*
X32697Y23379D01*
X32727Y23307D01*
X33007Y22896D01*
X33028Y22846D01*
X33281Y22582D01*
X33341Y22506D01*
X33587Y22138D01*
X35487Y18968D01*
X37175Y15398D01*
X38505Y11680D01*
X38728Y10793D01*
X38728D01*
X39465Y7850D01*
X40044Y3944D01*
X40094Y2930D01*
X40098Y2517D01*
X40077Y2466D01*
X40088Y2438D01*
X40094Y2430D01*
X39343Y1025D01*
X38283Y-267D01*
X38238Y-297D01*
X37225Y-1309D01*
X36725Y-1102D01*
Y-1020D01*
X36530Y-291D01*
X36152Y363D01*
X35870Y645D01*
X35755Y1097D01*
X35892Y1299D01*
X36312Y1719D01*
X36716Y2419D01*
X36765Y2602D01*
X33858D01*
Y3602D01*
X32858D01*
Y6509D01*
X32675Y6460D01*
X31975Y6056D01*
X31555Y5636D01*
X31352Y5499D01*
X30901Y5614D01*
X30619Y5897D01*
X29965Y6274D01*
X29236Y6469D01*
X28481D01*
X28013Y6344D01*
X27645Y6763D01*
X27701Y6897D01*
Y7468D01*
X34658D01*
Y12217D01*
X25578D01*
Y9273D01*
X25326D01*
X24598Y8971D01*
X24041Y8414D01*
X23739Y7685D01*
Y7545D01*
X23239Y7338D01*
X23129Y7448D01*
X22364Y7890D01*
X21934Y8005D01*
Y8523D01*
X22364Y8638D01*
X23129Y9080D01*
X23755Y9705D01*
X24197Y10471D01*
X24426Y11326D01*
Y12210D01*
X24197Y13064D01*
X24156Y13136D01*
X24916Y13896D01*
X25378Y13704D01*
Y13173D01*
X26953D01*
Y15748D01*
X28953D01*
Y13173D01*
X31283D01*
Y15748D01*
Y18323D01*
X27627D01*
X27436Y18785D01*
X30406Y21755D01*
X27604Y24557D01*
X24158Y21111D01*
X23906Y20940D01*
X23527Y21066D01*
X23129Y21463D01*
X22857Y21621D01*
X22808Y22226D01*
X23846Y23264D01*
X23010Y24099D01*
X21758Y22846D01*
X22114Y22490D01*
X21855Y22042D01*
X21509Y22135D01*
X20625D01*
X19770Y21906D01*
X19004Y21463D01*
X18379Y20838D01*
X18249Y20612D01*
X17749Y20746D01*
Y33224D01*
X17687Y33536D01*
X17510Y33801D01*
X17245Y33978D01*
X16933Y34040D01*
X-16925D01*
X-17237Y33978D01*
X-17502Y33801D01*
X-17679Y33536D01*
X-17741Y33224D01*
Y25639D01*
X-24418D01*
Y21174D01*
X-30721D01*
Y19599D01*
X-34601D01*
X-34848Y20034D01*
X-33457Y22355D01*
X-31104Y25527D01*
X-28453Y28453D01*
X-27265Y29529D01*
X-25527Y31104D01*
X-22355Y33457D01*
X-18968Y35487D01*
X-15398Y37175D01*
X-11680Y38505D01*
X-7850Y39465D01*
X-4860Y39908D01*
X-4363Y39918D01*
X-4316Y39937D01*
X-4277Y39981D01*
X4370D01*
X7850Y39465D01*
D02*
G37*
G36*
X41988Y-213D02*
X41837Y-3660D01*
X41359Y-7293D01*
X40566Y-10870D01*
X39464Y-14364D01*
X38062Y-17749D01*
X36371Y-20999D01*
X34402Y-24089D01*
X32172Y-26995D01*
X29696Y-29696D01*
X26995Y-32172D01*
X24089Y-34402D01*
X20999Y-36371D01*
X17749Y-38062D01*
X14364Y-39464D01*
X10870Y-40566D01*
X7293Y-41359D01*
X3660Y-41837D01*
X0Y-41997D01*
X-3660Y-41837D01*
X-7293Y-41359D01*
X-10870Y-40566D01*
X-14364Y-39464D01*
X-17749Y-38062D01*
X-20999Y-36371D01*
X-24089Y-34402D01*
X-26995Y-32172D01*
X-29696Y-29696D01*
X-32172Y-26995D01*
X-34402Y-24089D01*
X-36253Y-21182D01*
X-35931Y-20758D01*
X-35680Y-20834D01*
X-34440Y-20956D01*
X-33952Y-21004D01*
X-33952Y-21004D01*
X-33460Y-20985D01*
X-24211D01*
X-24189Y-21064D01*
X-23747Y-21830D01*
X-23122Y-22456D01*
X-22356Y-22898D01*
X-21926Y-23013D01*
Y-23530D01*
X-22356Y-23645D01*
X-23122Y-24088D01*
X-23747Y-24713D01*
X-24189Y-25479D01*
X-24418Y-26333D01*
Y-27218D01*
X-24189Y-28072D01*
X-23747Y-28838D01*
X-23122Y-29463D01*
X-22356Y-29906D01*
X-21501Y-30135D01*
X-20617D01*
X-19762Y-29906D01*
X-18996Y-29463D01*
X-18371Y-28838D01*
X-18241Y-28613D01*
X-17741Y-28746D01*
Y-34728D01*
X-17679Y-35041D01*
X-17502Y-35305D01*
X-17237Y-35482D01*
X-16925Y-35544D01*
X16933D01*
X17245Y-35482D01*
X17510Y-35305D01*
X17687Y-35041D01*
X17749Y-34728D01*
Y-32250D01*
X18249Y-32116D01*
X18379Y-32342D01*
X19004Y-32967D01*
X19770Y-33410D01*
X20625Y-33639D01*
X21509D01*
X22364Y-33410D01*
X23129Y-32967D01*
X23755Y-32342D01*
X24197Y-31576D01*
X24426Y-30722D01*
Y-29837D01*
X24197Y-28983D01*
X23755Y-28217D01*
X23129Y-27592D01*
X22364Y-27149D01*
X21934Y-27034D01*
Y-26517D01*
X22364Y-26402D01*
X23129Y-25960D01*
X23755Y-25334D01*
X24197Y-24568D01*
X24426Y-23714D01*
Y-22829D01*
X24197Y-21975D01*
X24156Y-21904D01*
X26156Y-19904D01*
X26420Y-19509D01*
X26512Y-19043D01*
Y-18813D01*
X27012Y-18606D01*
X27098Y-18692D01*
X27752Y-19069D01*
X28481Y-19265D01*
X29236D01*
X29965Y-19069D01*
X30619Y-18692D01*
X31047Y-18263D01*
X31358Y-18200D01*
X31669Y-18263D01*
X32098Y-18692D01*
X32752Y-19069D01*
X33481Y-19265D01*
X34236D01*
X34965Y-19069D01*
X35619Y-18692D01*
X36152Y-18158D01*
X36530Y-17504D01*
X36725Y-16775D01*
Y-16020D01*
X36530Y-15291D01*
X36152Y-14637D01*
X35724Y-14209D01*
X35660Y-13898D01*
X35724Y-13587D01*
X36152Y-13158D01*
X36530Y-12504D01*
X36725Y-11775D01*
Y-11020D01*
X36530Y-10291D01*
X36152Y-9637D01*
X35724Y-9208D01*
X35660Y-8898D01*
X35724Y-8587D01*
X36152Y-8158D01*
X36530Y-7504D01*
X36725Y-6775D01*
Y-6020D01*
X36563Y-5414D01*
X36981Y-4996D01*
X37054Y-4998D01*
X37054Y-4998D01*
X37078Y-4988D01*
X37237Y-4776D01*
X37237Y-4776D01*
X37237Y-4776D01*
X37449Y-4618D01*
X37459Y-4594D01*
X37459Y-4594D01*
X37457Y-4520D01*
X39959Y-2018D01*
X39967Y-2026D01*
X41111Y-686D01*
X41494Y-62D01*
X41988Y-213D01*
D02*
G37*
G36*
X-37056Y14245D02*
Y8576D01*
X-36964Y8110D01*
X-36820Y7895D01*
X-36824Y7395D01*
X-36824Y7395D01*
X-36824Y7395D01*
Y676D01*
X-35839D01*
Y-2032D01*
X-36263Y-2455D01*
X-36753D01*
X-36779Y-2394D01*
X-37336Y-1836D01*
X-38064Y-1535D01*
X-38852D01*
X-39175Y-1668D01*
X-39675Y-1334D01*
Y6471D01*
X-39668Y6476D01*
X-39668D01*
X-39465Y7850D01*
X-38505Y11680D01*
X-37556Y14332D01*
X-37056Y14245D01*
D02*
G37*
G36*
X-30721Y8550D02*
X-26333D01*
X-26321Y8490D01*
X-26057Y8095D01*
X-26057Y8095D01*
X-26264Y7594D01*
X-29543D01*
Y5035D01*
X-26772D01*
Y3035D01*
X-29543D01*
Y1197D01*
X-30134D01*
Y-378D01*
X-24984D01*
Y222D01*
X-24484Y288D01*
X-24376Y-118D01*
X-24311Y-230D01*
Y-1378D01*
Y-1768D01*
X-22940D01*
X-22433Y-2061D01*
X-22313Y-2093D01*
Y-2610D01*
X-22356Y-2622D01*
X-23122Y-3064D01*
X-23747Y-3689D01*
X-24189Y-4455D01*
X-24418Y-5310D01*
Y-6194D01*
X-24270Y-6747D01*
X-24619Y-7248D01*
X-25676D01*
Y-6090D01*
X-30302D01*
Y-5007D01*
X-34708D01*
X-34864Y-4619D01*
X-34872Y-4507D01*
X-34118Y-3753D01*
X-31090D01*
Y997D01*
X-31680D01*
Y7395D01*
X-33377D01*
X-33454Y7780D01*
X-33718Y8175D01*
X-34025Y8482D01*
X-33833Y8944D01*
X-30721D01*
Y8550D01*
D02*
G37*
G36*
X-23192Y-9950D02*
X-23166Y-10117D01*
X-23747Y-10697D01*
X-24189Y-11463D01*
X-24418Y-12318D01*
Y-13202D01*
X-24189Y-14056D01*
X-24166Y-14097D01*
X-24514Y-14494D01*
X-24606Y-14456D01*
X-25394D01*
X-25676Y-14267D01*
Y-11995D01*
X-30426D01*
Y-12487D01*
X-37020D01*
Y-14346D01*
X-37521Y-14433D01*
X-38505Y-11680D01*
X-38794Y-10526D01*
X-38368Y-10171D01*
X-37655D01*
X-37244Y-10001D01*
X-37020Y-10150D01*
Y-10150D01*
X-30426D01*
Y-10839D01*
X-25676D01*
Y-9682D01*
X-23772D01*
Y-9692D01*
X-23372Y-9639D01*
X-23192Y-9950D01*
D02*
G37*
%LPC*%
G36*
X23428Y29015D02*
X22175Y27762D01*
X23010Y26927D01*
X24263Y28180D01*
X23428Y29015D01*
D02*
G37*
G36*
X25677Y26766D02*
X24425Y25513D01*
X25260Y24678D01*
X26513Y25931D01*
X25677Y26766D01*
D02*
G37*
G36*
X20761Y26348D02*
X19508Y25095D01*
X20344Y24260D01*
X21596Y25513D01*
X20761Y26348D01*
D02*
G37*
G36*
X34858Y18323D02*
X33283D01*
Y16748D01*
X34858D01*
Y18323D01*
D02*
G37*
G36*
Y14748D02*
X33283D01*
Y13173D01*
X34858D01*
Y14748D01*
D02*
G37*
G36*
X34858Y6509D02*
Y4602D01*
X36765D01*
X36716Y4786D01*
X36312Y5486D01*
X35741Y6056D01*
X35042Y6460D01*
X34858Y6509D01*
D02*
G37*
G36*
X-24984Y-2378D02*
X-26559D01*
Y-3953D01*
X-24984D01*
Y-2378D01*
D02*
G37*
G36*
X-28559D02*
X-30134D01*
Y-3953D01*
X-28559D01*
Y-2378D01*
D02*
G37*
%LPD*%
D12*
X-27362Y11122D02*
D03*
Y18602D02*
D03*
X-33661Y-7579D02*
D03*
Y-15059D02*
D03*
D13*
X-26772Y4035D02*
D03*
X-34252D02*
D03*
D14*
X27953Y9843D02*
D03*
Y15748D02*
D03*
X-33071Y11319D02*
D03*
Y17224D02*
D03*
X32283Y15748D02*
D03*
Y9843D02*
D03*
X-28051Y-8465D02*
D03*
Y-14370D02*
D03*
D15*
X23010Y25513D02*
D03*
X27186Y21337D02*
D03*
D16*
X-27559Y-1378D02*
D03*
X-33465D02*
D03*
D26*
X-23772Y-8465D02*
X-22734Y-8258D01*
X-21854Y-7670D01*
X-21265Y-6790D01*
X-21059Y-5752D01*
X-36823Y-18994D02*
X-36384Y-19369D01*
X-40882Y-6733D02*
X-40708Y-7715D01*
X-40511Y-8693D01*
X-40290Y-9666D01*
X-40045Y-10633D01*
X-39778Y-11594D01*
X-39487Y-12548D01*
X-39174Y-13495D01*
X-38838Y-14434D01*
X-38479Y-15365D01*
X-38098Y-16287D01*
X-37695Y-17199D01*
X-37270Y-18102D01*
X-36823Y-18994D01*
X-40892Y-6619D02*
X-40882Y-6733D01*
X-36378Y-19371D02*
X-35181Y-19668D01*
X-33952Y-19768D01*
X41357Y2512D02*
X41287Y3481D01*
X41194Y4449D01*
X41078Y5414D01*
X40940Y6376D01*
X40779Y7334D01*
X40595Y8289D01*
X40390Y9239D01*
X40162Y10184D01*
X39912Y11123D01*
X41304Y2179D02*
X41357Y2512D01*
X39099Y-1157D02*
X39773Y-411D01*
X40370Y399D01*
X40882Y1266D01*
X41304Y2179D01*
X36206Y-4051D02*
X36512Y-3746D01*
X36206Y-4051D02*
X36178Y-4078D01*
X36539Y-3717D02*
X36512Y-3746D01*
X33858Y23819D02*
X33752Y24031D01*
X39912Y11123D02*
X39634Y12077D01*
X39333Y13023D01*
X39009Y13963D01*
X38664Y14894D01*
X38295Y15816D01*
X37905Y16730D01*
X37493Y17634D01*
X37060Y18528D01*
X36605Y19411D01*
X36129Y20283D01*
X35632Y21143D01*
X35115Y21991D01*
X34578Y22827D01*
X34021Y23649D01*
X34021Y23649D02*
X33858Y23819D01*
X33752Y24031D02*
X33162Y24840D01*
X32552Y25633D01*
X31923Y26412D01*
X31276Y27176D01*
X30610Y27923D01*
X29927Y28654D01*
X29226Y29369D01*
X28508Y30066D01*
X27774Y30746D01*
X27023Y31408D01*
X26256Y32052D01*
X25475Y32676D01*
X24678Y33282D01*
X23867Y33869D01*
X23042Y34435D01*
X22203Y34982D01*
X21352Y35508D01*
X20488Y36013D01*
X19612Y36498D01*
X18725Y36961D01*
X17827Y37402D01*
X16918Y37822D01*
X15999Y38219D01*
X15071Y38595D01*
X14135Y38947D01*
X13190Y39277D01*
X12237Y39585D01*
X11278Y39869D01*
X10311Y40130D01*
X9339Y40367D01*
X8361Y40581D01*
X7379Y40771D01*
X6392Y40937D01*
X5401Y41080D01*
X4407Y41198D01*
X-4369D02*
X-4446Y41194D01*
X-28107Y30442D02*
X-28846Y29742D01*
X-29568Y29024D01*
X-30273Y28289D01*
X-30959Y27537D01*
X-31626Y26768D01*
X-32274Y25983D01*
X-32903Y25182D01*
X-33511Y24366D01*
X-34100Y23535D01*
X-34668Y22690D01*
X-35215Y21832D01*
X-35740Y20960D01*
X-36245Y20076D01*
X-36727Y19179D01*
X-37187Y18271D01*
X-37625Y17352D01*
X-38040Y16422D01*
X-38432Y15483D01*
X-38800Y14534D01*
X-39146Y13576D01*
X-39467Y12610D01*
X-39765Y11637D01*
X-40039Y10656D01*
X-40289Y9669D01*
X-40514Y8677D01*
X-40715Y7679D01*
X-40892Y6676D01*
X-4446Y41194D02*
X-5455Y41072D01*
X-6461Y40926D01*
X-7463Y40755D01*
X-8461Y40560D01*
X-9454Y40340D01*
X-10441Y40096D01*
X-11422Y39828D01*
X-12396Y39535D01*
X-13362Y39219D01*
X-14320Y38880D01*
X-15270Y38517D01*
X-16210Y38130D01*
X-17141Y37721D01*
X-18062Y37289D01*
X-18971Y36835D01*
X-19869Y36358D01*
X-20755Y35860D01*
X-21629Y35339D01*
X-22490Y34798D01*
X-23337Y34236D01*
X-24170Y33653D01*
X-24988Y33050D01*
X-25792Y32427D01*
X-26580Y31784D01*
X-27352Y31122D01*
X-28107Y30442D01*
X-35839Y8576D02*
Y15046D01*
X-34843Y16043D02*
X-34252D01*
X-35839Y15046D02*
X-34843Y16043D01*
X-34252D02*
X-32874Y17421D01*
X-27362D01*
X-26870Y-15619D02*
X-26353Y-16136D01*
X-28051Y-14370D02*
X-26870Y-15551D01*
Y-15619D02*
Y-15551D01*
X-26353Y-16136D02*
X-25301D01*
X-28051Y-8465D02*
X-23772D01*
X-21290Y8494D02*
X-21059Y8264D01*
X-25197Y8956D02*
Y9744D01*
X-24736Y8494D02*
X-21290D01*
X-25197Y8956D02*
X-24736Y8494D01*
X-27362Y11122D02*
X-26575D01*
X-25197Y9744D01*
X-34578Y4362D02*
X-34252Y4035D01*
X-34578Y4362D02*
Y7314D01*
X-35839Y8576D02*
X-34578Y7314D01*
X-27559Y-1378D02*
X-27515Y-1422D01*
Y-4487D02*
Y-1422D01*
X25720Y7292D02*
Y7610D01*
X27953Y9843D01*
X-38049Y-8190D02*
X-35827D01*
Y-8320D02*
Y-8190D01*
X-27559Y-1378D02*
Y3051D01*
X-38458Y-3516D02*
X-38302Y-3673D01*
X-35759D01*
X-33465Y-1378D01*
X-25301Y-16136D02*
X-25000Y-16437D01*
X-27756Y10728D02*
X-27362Y11122D01*
X-32480Y10728D02*
X-27756D01*
X-33071Y11319D02*
X-32480Y10728D01*
X-34252Y-591D02*
Y4035D01*
Y-591D02*
X-33465Y-1378D01*
X-36823Y-18994D02*
X-36823Y-18994D01*
X-36384Y-19369D02*
X-36378Y-19371D01*
X-40892Y-6619D02*
Y6676D01*
X-35827Y-8320D02*
X-33661Y-8366D01*
X39912Y11123D02*
X39912Y11123D01*
X41304Y2179D02*
X41304D01*
X36539Y-3717D02*
X39099Y-1157D01*
X36539Y-3717D02*
X36539Y-3717D01*
X33858Y-6398D02*
X36178Y-4078D01*
X34021Y23649D02*
X34021Y23649D01*
X-4369Y41198D02*
X4407D01*
X-33952Y-19768D02*
X-21059D01*
X21067Y11768D02*
X25098Y15799D01*
Y19249D02*
X27186Y21337D01*
X25098Y15799D02*
Y19249D01*
X25295Y-19043D02*
Y-14950D01*
X28847Y-11398D01*
X21067Y-23272D02*
X25295Y-19043D01*
X-24026Y3051D02*
X-22231Y1256D01*
X-27559Y3051D02*
X-24026D01*
X-22231Y1256D02*
X-21059D01*
X-27559Y3051D02*
X-27559Y3051D01*
X28847Y-11398D02*
X28858D01*
X21067Y-9256D02*
Y-9178D01*
X28847Y-1398D02*
X28858D01*
X21067Y-9178D02*
X28847Y-1398D01*
X-32480Y-14370D02*
X-28051D01*
Y-8465D02*
Y-8465D01*
X-32480Y-8465D02*
X-28051D01*
X27953Y9843D02*
X32283D01*
D27*
X21067Y-16264D02*
D03*
Y-9256D02*
D03*
Y-23272D02*
D03*
Y18776D02*
D03*
Y11768D02*
D03*
Y4760D02*
D03*
Y-2248D02*
D03*
Y-30279D02*
D03*
X-21059Y-26776D02*
D03*
Y-19768D02*
D03*
Y-12760D02*
D03*
Y-5752D02*
D03*
Y1256D02*
D03*
Y8264D02*
D03*
Y15272D02*
D03*
D28*
Y22279D02*
D03*
D29*
X28858Y-16398D02*
D03*
Y-11398D02*
D03*
Y-6398D02*
D03*
Y-1398D02*
D03*
Y3602D02*
D03*
X33858Y-16398D02*
D03*
Y-11398D02*
D03*
Y-6398D02*
D03*
Y-1398D02*
D03*
Y3602D02*
D03*
D30*
X-27515Y-4487D02*
D03*
X25720Y7292D02*
D03*
X-38049Y-8190D02*
D03*
X-38458Y-3516D02*
D03*
X-25000Y-16437D02*
D03*
X-26772Y24606D02*
D03*
M02*
