G04*
G04 #@! TF.GenerationSoftware,Altium Limited,Altium Designer,21.2.0 (30)*
G04*
G04 Layer_Physical_Order=2*
G04 Layer_Color=16711680*
%FSLAX25Y25*%
%MOIN*%
G70*
G04*
G04 #@! TF.SameCoordinates,4DC21BA0-2D48-497D-8E21-FAA421B52516*
G04*
G04*
G04 #@! TF.FilePolarity,Positive*
G04*
G01*
G75*
%ADD26C,0.00787*%
%ADD27C,0.05118*%
%ADD28R,0.05118X0.05118*%
%ADD29C,0.04134*%
%ADD30C,0.02362*%
G36*
X722Y40209D02*
X729Y40202D01*
X729Y40202D01*
X729Y40202D01*
X3944Y40044D01*
X7850Y39465D01*
X11680Y38505D01*
X14753Y37406D01*
X14753Y37406D01*
X14753Y37406D01*
X14759Y37408D01*
X15195Y37208D01*
X15268Y37174D01*
X15305Y37159D01*
X15309Y37157D01*
X15624Y37029D01*
X15624Y37029D01*
X24037Y32228D01*
X24042Y32205D01*
Y32205D01*
X25527Y31104D01*
X28453Y28453D01*
X31104Y25527D01*
X33457Y22355D01*
X35487Y18968D01*
X37175Y15398D01*
X37375Y14840D01*
X38505Y11680D01*
X38807Y10476D01*
X38895Y10124D01*
X38877Y10100D01*
X38923Y9990D01*
X38940Y9521D01*
Y9044D01*
X38951Y8991D01*
X38787Y7327D01*
X38286Y5677D01*
X37473Y4155D01*
X37192Y3813D01*
X36918Y3911D01*
X36715Y4019D01*
X36530Y4709D01*
X36152Y5363D01*
X35619Y5897D01*
X34965Y6274D01*
X34236Y6469D01*
X33481D01*
X32752Y6274D01*
X32098Y5897D01*
X31669Y5468D01*
X31358Y5404D01*
X31047Y5468D01*
X30619Y5897D01*
X29965Y6274D01*
X29236Y6469D01*
X28481D01*
X27752Y6274D01*
X27098Y5897D01*
X26564Y5363D01*
X26187Y4709D01*
X25991Y3980D01*
Y3362D01*
X23091Y462D01*
X22364Y882D01*
X21934Y997D01*
Y1515D01*
X22364Y1630D01*
X23129Y2072D01*
X23755Y2697D01*
X24197Y3463D01*
X24426Y4318D01*
Y5202D01*
X24197Y6056D01*
X23755Y6822D01*
X23129Y7448D01*
X22364Y7890D01*
X21934Y8005D01*
Y8523D01*
X22364Y8638D01*
X23129Y9080D01*
X23755Y9705D01*
X24197Y10471D01*
X24426Y11326D01*
Y12210D01*
X24197Y13064D01*
X23755Y13830D01*
X23129Y14456D01*
X22364Y14898D01*
X21934Y15013D01*
Y15530D01*
X22364Y15645D01*
X23129Y16088D01*
X23755Y16713D01*
X24197Y17479D01*
X24426Y18333D01*
Y19218D01*
X24197Y20072D01*
X23755Y20838D01*
X23129Y21463D01*
X22364Y21906D01*
X21509Y22135D01*
X20625D01*
X19770Y21906D01*
X19004Y21463D01*
X18379Y20838D01*
X18249Y20612D01*
X17749Y20746D01*
Y33224D01*
X17687Y33536D01*
X17510Y33801D01*
X17245Y33978D01*
X16933Y34040D01*
X-16925D01*
X-17237Y33978D01*
X-17502Y33801D01*
X-17679Y33536D01*
X-17741Y33224D01*
Y25639D01*
X-24418D01*
Y25408D01*
X-24918Y25308D01*
X-25092Y25728D01*
X-25649Y26286D01*
X-26378Y26587D01*
X-27166D01*
X-27894Y26286D01*
X-28451Y25728D01*
X-28753Y25000D01*
Y24346D01*
X-30938Y22161D01*
X-31202Y21766D01*
X-31295Y21300D01*
Y-2467D01*
X-31202Y-2933D01*
X-30938Y-3328D01*
X-30038Y-4227D01*
X-29687Y-4462D01*
X-29496Y-4654D01*
Y-4881D01*
X-29194Y-5610D01*
X-28637Y-6167D01*
X-27909Y-6468D01*
X-27121D01*
X-26392Y-6167D01*
X-25835Y-5610D01*
X-25534Y-4881D01*
Y-4093D01*
X-25835Y-3365D01*
X-26392Y-2808D01*
X-27121Y-2506D01*
X-27909D01*
X-28115Y-2592D01*
X-28201Y-2506D01*
X-28552Y-2271D01*
X-28860Y-1963D01*
Y20796D01*
X-27031Y22625D01*
X-26378D01*
X-25649Y22927D01*
X-25092Y23484D01*
X-24918Y23904D01*
X-24418Y23805D01*
Y18921D01*
X-22352D01*
X-22286Y18420D01*
X-22356Y18402D01*
X-23122Y17960D01*
X-23747Y17334D01*
X-24189Y16568D01*
X-24418Y15714D01*
Y14829D01*
X-24189Y13975D01*
X-23747Y13209D01*
X-23122Y12584D01*
X-22356Y12141D01*
X-21926Y12026D01*
Y11509D01*
X-22356Y11394D01*
X-23122Y10952D01*
X-23747Y10326D01*
X-24189Y9560D01*
X-24418Y8706D01*
Y7822D01*
X-24189Y6967D01*
X-23747Y6201D01*
X-23122Y5576D01*
X-22356Y5134D01*
X-21926Y5019D01*
Y4501D01*
X-22356Y4386D01*
X-23122Y3944D01*
X-23747Y3318D01*
X-24189Y2552D01*
X-24418Y1698D01*
Y814D01*
X-24189Y-41D01*
X-23747Y-807D01*
X-23122Y-1432D01*
X-22356Y-1874D01*
X-21926Y-1989D01*
Y-2507D01*
X-22356Y-2622D01*
X-23122Y-3064D01*
X-23747Y-3689D01*
X-24189Y-4455D01*
X-24418Y-5310D01*
Y-6194D01*
X-24189Y-7049D01*
X-23747Y-7814D01*
X-23122Y-8440D01*
X-22356Y-8882D01*
X-21926Y-8997D01*
Y-9515D01*
X-22356Y-9630D01*
X-23122Y-10072D01*
X-23747Y-10697D01*
X-24189Y-11463D01*
X-24418Y-12318D01*
Y-13202D01*
X-24189Y-14056D01*
X-23747Y-14822D01*
X-23122Y-15448D01*
X-22356Y-15890D01*
X-21926Y-16005D01*
Y-16523D01*
X-22356Y-16638D01*
X-23122Y-17080D01*
X-23747Y-17705D01*
X-24189Y-18471D01*
X-24418Y-19326D01*
Y-20210D01*
X-24189Y-21064D01*
X-23747Y-21830D01*
X-23122Y-22456D01*
X-22356Y-22898D01*
X-22313Y-22909D01*
Y-23427D01*
X-22433Y-23459D01*
X-23244Y-23928D01*
X-23907Y-24590D01*
X-24376Y-25402D01*
X-24476Y-25776D01*
X-21059D01*
Y-26776D01*
X-20059D01*
Y-30192D01*
X-19685Y-30092D01*
X-18874Y-29623D01*
X-18241Y-28991D01*
X-18107Y-29002D01*
X-17741Y-29146D01*
Y-34728D01*
X-17679Y-35041D01*
X-17502Y-35305D01*
X-17237Y-35482D01*
X-16925Y-35544D01*
X16933D01*
X17245Y-35482D01*
X17510Y-35305D01*
X17687Y-35041D01*
X17749Y-34728D01*
Y-32250D01*
X18249Y-32116D01*
X18379Y-32342D01*
X19004Y-32967D01*
X19770Y-33410D01*
X20625Y-33639D01*
X21509D01*
X22364Y-33410D01*
X23129Y-32967D01*
X23755Y-32342D01*
X24197Y-31576D01*
X24426Y-30722D01*
Y-29837D01*
X24197Y-28983D01*
X24156Y-28912D01*
X29719Y-23349D01*
X29983Y-22954D01*
X30075Y-22488D01*
Y-19005D01*
X30619Y-18692D01*
X30901Y-18409D01*
X31352Y-18294D01*
X31555Y-18431D01*
X31975Y-18852D01*
X32675Y-19256D01*
X32858Y-19305D01*
Y-16398D01*
X33858D01*
Y-15398D01*
X36765D01*
X36716Y-15214D01*
X36312Y-14514D01*
X36031Y-14233D01*
X35776Y-13898D01*
X36031Y-13562D01*
X36312Y-13281D01*
X36716Y-12581D01*
X36765Y-12398D01*
X33858D01*
Y-10398D01*
X36765D01*
X36716Y-10214D01*
X36312Y-9515D01*
X35892Y-9094D01*
X35755Y-8892D01*
X35870Y-8440D01*
X36152Y-8158D01*
X36530Y-7504D01*
X36725Y-6775D01*
Y-6020D01*
X36530Y-5291D01*
X36152Y-4637D01*
X35724Y-4208D01*
X35660Y-3898D01*
X35724Y-3587D01*
X36152Y-3158D01*
X36530Y-2504D01*
X36725Y-1775D01*
Y-1020D01*
X36563Y-414D01*
X36981Y4D01*
X37054Y2D01*
X37054Y2D01*
X37078Y12D01*
X37237Y224D01*
X37237Y224D01*
X37237Y224D01*
X37449Y382D01*
X37459Y406D01*
X37459Y406D01*
X37457Y480D01*
X38089Y1112D01*
X38097Y1104D01*
X39241Y2444D01*
X40162Y3946D01*
X40836Y5574D01*
X40994Y6232D01*
X41502Y6206D01*
X41837Y3660D01*
X41997Y0D01*
X41837Y-3660D01*
X41359Y-7293D01*
X40566Y-10870D01*
X39464Y-14364D01*
X38062Y-17749D01*
X36371Y-20999D01*
X34402Y-24089D01*
X32172Y-26995D01*
X29696Y-29696D01*
X26995Y-32172D01*
X24089Y-34402D01*
X20999Y-36371D01*
X17749Y-38062D01*
X14364Y-39464D01*
X10870Y-40566D01*
X7293Y-41359D01*
X3660Y-41837D01*
X0Y-41997D01*
X-3660Y-41837D01*
X-7293Y-41359D01*
X-10870Y-40566D01*
X-14364Y-39464D01*
X-17749Y-38062D01*
X-20999Y-36371D01*
X-24089Y-34402D01*
X-26995Y-32172D01*
X-29696Y-29696D01*
X-32172Y-26995D01*
X-34402Y-24089D01*
X-36371Y-20999D01*
X-38062Y-17749D01*
X-39464Y-14364D01*
X-40566Y-10870D01*
X-41359Y-7293D01*
X-41363Y-7266D01*
X-40913Y-7047D01*
X-40057Y-7923D01*
X-40051Y-7927D01*
X-40047Y-7933D01*
X-40030Y-7950D01*
Y-8584D01*
X-39728Y-9313D01*
X-39171Y-9870D01*
X-38443Y-10171D01*
X-37655D01*
X-36927Y-9870D01*
X-36369Y-9313D01*
X-36068Y-8584D01*
Y-7796D01*
X-36369Y-7068D01*
X-36927Y-6511D01*
X-37655Y-6209D01*
X-38328D01*
X-39969Y-4530D01*
Y3928D01*
X-39926Y4423D01*
X-39906Y4470D01*
X-39893Y4966D01*
X-39465Y7850D01*
X-38505Y11680D01*
X-37175Y15398D01*
X-35487Y18968D01*
X-33457Y22355D01*
X-31104Y25527D01*
X-29586Y27202D01*
X-29534Y27204D01*
X-29528Y27218D01*
X-29218Y27609D01*
X-27287Y29540D01*
X-27253Y29539D01*
X-27253Y29539D01*
Y29539D01*
X-25527Y31104D01*
X-22355Y33457D01*
X-18968Y35487D01*
X-15398Y37175D01*
X-11680Y38505D01*
X-10142Y38891D01*
X-7850Y39465D01*
X-3944Y40044D01*
X-720Y40203D01*
X-720Y40203D01*
Y40203D01*
X-713Y40209D01*
X722Y40209D01*
D02*
G37*
G36*
X26564Y-13158D02*
X26993Y-13587D01*
X27056Y-13898D01*
X26993Y-14209D01*
X26564Y-14637D01*
X26187Y-15291D01*
X25991Y-16020D01*
Y-16775D01*
X26187Y-17504D01*
X26564Y-18158D01*
X27098Y-18692D01*
X27641Y-19005D01*
Y-21984D01*
X24388Y-25237D01*
X23988Y-24930D01*
X24197Y-24568D01*
X24426Y-23714D01*
Y-22829D01*
X24197Y-21975D01*
X23755Y-21209D01*
X23129Y-20584D01*
X22364Y-20142D01*
X21934Y-20027D01*
Y-19509D01*
X22364Y-19394D01*
X23129Y-18952D01*
X23755Y-18326D01*
X24197Y-17560D01*
X24426Y-16706D01*
Y-15822D01*
X24197Y-14967D01*
X24156Y-14896D01*
X25953Y-13099D01*
X26521Y-13083D01*
X26564Y-13158D01*
D02*
G37*
%LPC*%
G36*
X36765Y-17398D02*
X34858D01*
Y-19305D01*
X35042Y-19256D01*
X35741Y-18852D01*
X36312Y-18281D01*
X36716Y-17581D01*
X36765Y-17398D01*
D02*
G37*
G36*
X-22059Y-27776D02*
X-24476D01*
X-24376Y-28149D01*
X-23907Y-28961D01*
X-23244Y-29623D01*
X-22433Y-30092D01*
X-22059Y-30192D01*
Y-27776D01*
D02*
G37*
%LPD*%
D26*
X15977Y38229D02*
X15775Y38281D01*
X15202Y38543D02*
X14279Y38895D01*
X13348Y39224D01*
X12409Y39531D01*
X11464Y39816D01*
X10511Y40077D01*
X9553Y40317D01*
X8590Y40533D01*
X7621Y40726D01*
X6648Y40896D01*
X5672Y41043D01*
X4692Y41167D01*
X3709Y41267D01*
X2725Y41343D01*
X1739Y41397D01*
X752Y41426D01*
X40157Y10107D02*
X40134Y10295D01*
X37229Y1973D02*
X37888Y2700D01*
X38472Y3488D01*
X38977Y4330D01*
X39396Y5217D01*
X39727Y6141D01*
X39965Y7093D01*
X40109Y8063D01*
X40157Y9044D01*
X36539Y1283D02*
X36512Y1254D01*
X36206Y949D02*
X36178Y922D01*
X36206Y949D02*
X36512Y1254D01*
X-741Y41426D02*
X-1724Y41397D01*
X-2705Y41345D01*
X-3685Y41269D01*
X-4663Y41170D01*
X-5638Y41048D01*
X-6610Y40903D01*
X-7578Y40734D01*
X-8542Y40543D01*
X-9501Y40329D01*
X-10455Y40092D01*
X-10455D02*
X-11434Y39824D01*
X-12406Y39532D01*
X-13371Y39216D01*
X-14328Y38877D01*
X-15276Y38514D01*
X-16216Y38128D01*
X-17145Y37719D01*
X-18064Y37288D01*
X-18972Y36834D01*
X-19869Y36358D01*
X-20754Y35861D01*
X-21626Y35341D01*
X-22486Y34801D01*
X-23332Y34240D01*
X-24163Y33658D01*
X-24981Y33055D01*
X-25783Y32433D01*
X-26570Y31792D01*
X-27341Y31131D01*
X-28096Y30452D01*
X-30444Y28104D02*
X-30460Y28087D01*
X-41182Y4556D02*
X-41186Y4477D01*
X-38753Y14661D02*
X-39109Y13681D01*
X-39441Y12694D01*
X-39748Y11698D01*
X-40029Y10695D01*
X-40285Y9685D01*
X-40516Y8669D01*
X-40721Y7647D01*
X-40901Y6620D01*
X-41054Y5590D01*
X-41182Y4556D01*
X-30460Y28087D02*
X-31124Y27349D01*
X-31770Y26596D01*
X-32398Y25828D01*
X-33007Y25045D01*
X-33597Y24247D01*
X-34168Y23435D01*
X-34720Y22610D01*
X-35252Y21772D01*
X-35763Y20922D01*
X-36254Y20059D01*
X-36724Y19185D01*
X-37172Y18300D01*
X-37600Y17405D01*
X-38006Y16499D01*
X-38390Y15585D01*
X-38753Y14661D01*
X38509Y15290D02*
X38131Y16209D01*
X37731Y17119D01*
X37310Y18019D01*
X36867Y18908D01*
X36403Y19787D01*
X35918Y20654D01*
X35413Y21509D01*
X34887Y22352D01*
X34341Y23182D01*
X33775Y23999D01*
X33190Y24802D01*
X32585Y25591D01*
X31962Y26365D01*
X31321Y27124D01*
X30662Y27867D01*
X29985Y28594D01*
X29290Y29305D01*
X28579Y29999D01*
X27852Y30675D01*
X27108Y31334D01*
X26349Y31975D01*
X25575Y32598D01*
X24786Y33202D01*
X40134Y10295D02*
X39860Y11310D01*
X39560Y12318D01*
X39235Y13317D01*
X38884Y14308D01*
X38509Y15290D01*
X-39186Y-7073D02*
X-38069Y-8190D01*
X-41186Y-5026D02*
X-39186Y-7073D01*
X-41186Y-5026D02*
Y4477D01*
X-29061Y-3367D02*
X-27941Y-4487D01*
X-27515D01*
X-29178Y-3367D02*
X-29061D01*
X-30077Y-2467D02*
X-29178Y-3367D01*
X-30077Y-2467D02*
Y21300D01*
X-38069Y-8190D02*
X-38049D01*
X-25000Y-22835D02*
X-21059Y-26776D01*
X-25000Y-22835D02*
Y-16437D01*
X-30077Y21300D02*
X-26772Y24606D01*
X-741Y41426D02*
X752Y41426D01*
X15202Y38543D02*
X15775Y38281D01*
X15977Y38229D02*
X24786Y33202D01*
X40157Y9044D02*
Y10107D01*
X36539Y1283D02*
X37229Y1973D01*
X36539Y1283D02*
X36539Y1283D01*
X33858Y-1398D02*
X36178Y922D01*
X-30444Y28104D02*
X-28096Y30452D01*
X-30444Y28104D02*
X-30444Y28104D01*
X-41186Y4477D02*
Y4477D01*
X21067Y-16264D02*
X25197Y-12134D01*
Y-10048D02*
X28847Y-6398D01*
X25197Y-12134D02*
Y-10048D01*
X33858Y-16398D02*
Y-11398D01*
X28858Y-22488D02*
Y-16398D01*
X21067Y-30279D02*
X28858Y-22488D01*
X28847Y-6398D02*
X28858D01*
X22102Y-2248D02*
X27953Y3602D01*
X28858D01*
X21067Y-2248D02*
X22102D01*
D27*
X21067Y-16264D02*
D03*
Y-9256D02*
D03*
Y-23272D02*
D03*
Y18776D02*
D03*
Y11768D02*
D03*
Y4760D02*
D03*
Y-2248D02*
D03*
Y-30279D02*
D03*
X-21059Y-26776D02*
D03*
Y-19768D02*
D03*
Y-12760D02*
D03*
Y-5752D02*
D03*
Y1256D02*
D03*
Y8264D02*
D03*
Y15272D02*
D03*
D28*
Y22279D02*
D03*
D29*
X28858Y-16398D02*
D03*
Y-11398D02*
D03*
Y-6398D02*
D03*
Y-1398D02*
D03*
Y3602D02*
D03*
X33858Y-16398D02*
D03*
Y-11398D02*
D03*
Y-6398D02*
D03*
Y-1398D02*
D03*
Y3602D02*
D03*
D30*
X-27515Y-4487D02*
D03*
X25720Y7292D02*
D03*
X-38049Y-8190D02*
D03*
X-38458Y-3516D02*
D03*
X-25000Y-16437D02*
D03*
X-26772Y24606D02*
D03*
M02*
