M48
;Layer_Color=9474304
;FILE_FORMAT=2:4
INCH,TZ
;TYPE=PLATED
T1F00S00C0.0118
T2F00S00C0.0236
T3F00S00C0.0280
T4F00S00C0.0402
T5F00S00C0.0409
T6F00S00C0.1969
%
T01
X28091Y46112
X29665Y46132
X48944Y34019
T02
X28514Y43278
X28504Y47343
T03
X26262Y37474
X26762
Y37974
X26262
Y38474
X26762
Y38974
X26262
Y39474
X26762
T04
X34866Y37400
Y38400
Y39400
Y40400
Y41400
Y42400
X41866Y41400
Y40400
Y39400
Y38400
T05
X32095Y30400
X33366
X43366
X45095
Y31400
Y32400
Y33400
Y34400
Y35400
Y36400
Y37400
Y38400
Y39400
Y40400
Y41400
Y42400
Y43400
Y44400
Y45400
Y46400
X43366
Y45400
Y44400
Y43400
Y42400
Y41400
Y40400
Y39400
Y38400
Y37400
Y36400
Y35400
Y34400
Y33400
Y32400
Y31400
X42050Y33100
X42100Y34050
X34900Y33400
Y32400
Y31400
X33366
Y32400
Y33400
Y34400
Y35400
Y36400
Y37400
Y38400
Y39400
Y40400
Y41400
Y42400
Y43400
Y44400
Y45400
Y46400
X32095
Y45400
Y44400
Y43400
Y42400
Y41400
Y40400
Y39400
Y38400
Y37400
Y36400
Y35400
Y34400
Y33400
Y32400
Y31400
X34861Y45724
X41961
Y46724
X43366Y47400
Y48400
X45095
Y47400
X33366
Y48400
X32095
Y47400
T06
X41600Y28300
X26575Y42569
X48711Y44478
M30
