M48
;Layer_Color=9474304
;FILE_FORMAT=2:4
INCH,TZ
;TYPE=PLATED
T1F00S00C0.0118
T2F00S00C0.0276
%
T01
X-3805Y-819
X-3846Y-352
X-2751Y-449
X-2500Y-1644
X-2677Y2461
X2572Y729
T02
X-2106Y-2678
Y-1977
Y-1276
Y-575
Y126
Y826
Y1527
Y2228
X2107Y1878
Y1177
Y476
Y-225
Y-926
Y-1626
Y-2327
Y-3028
X2886Y-1640
Y-1140
Y-640
Y-140
Y360
X3386
Y-140
Y-640
Y-1140
Y-1640
M30
