M48
;Layer_Color=9474304
;FILE_FORMAT=4:4
METRIC,LZ
;TYPE=PLATED
T1F00S00C0.3000
T2F00S00C0.7000
%
T01
X-00096644Y-00020803
X-00097684Y-0000893
X-00069887Y-00011398
X-000635Y-0004175
X-00068Y000625
X00065329Y0001852
T02
X-0005349Y-0006801
Y-0005021
Y-0003241
Y-0001461
Y0000319
Y0002099
Y0003879
Y0005659
X0005351Y0004769
Y0002989
Y0001209
Y-0000571
Y-0002351
Y-0004131
Y-0005911
Y-0007691
X000733Y-0004165
Y-0002895
Y-0001625
Y-0000355
Y0000915
X00086
Y-0000355
Y-0001625
Y-0002895
Y-0004165
M30
