G04*
G04 #@! TF.GenerationSoftware,Altium Limited,Altium Designer,21.2.0 (30)*
G04*
G04 Layer_Color=65535*
%FSLAX44Y44*%
%MOMM*%
G71*
G04*
G04 #@! TF.SameCoordinates,24290CB3-EA7C-4BBA-8A3B-F1FFB41C3431*
G04*
G04*
G04 #@! TF.FilePolarity,Positive*
G04*
G01*
G75*
%ADD10C,0.1270*%
%ADD11C,0.1524*%
%ADD12C,0.1500*%
%ADD13C,0.0762*%
D10*
X834990Y759260D02*
X1113990D01*
Y1303260D01*
X834990D02*
X1113990D01*
X834990Y759260D02*
Y1303260D01*
D11*
X748690Y1139444D02*
Y1159510D01*
X728547Y1139444D02*
X735813D01*
X715670D02*
Y1159510D01*
D12*
X779821Y776159D02*
Y768161D01*
Y772160D01*
X785152D01*
Y776159D01*
Y768161D01*
X787818D02*
X790484D01*
X789151D01*
Y776159D01*
X787818Y774826D01*
X794483Y769494D02*
X795816Y768161D01*
X798481D01*
X799814Y769494D01*
Y774826D01*
X798481Y776159D01*
X795816D01*
X794483Y774826D01*
Y773493D01*
X795816Y772160D01*
X799814D01*
X779821Y801559D02*
Y793561D01*
Y797560D01*
X785152D01*
Y801559D01*
Y793561D01*
X787818D02*
X790484D01*
X789151D01*
Y801559D01*
X787818Y800226D01*
X794483D02*
X795816Y801559D01*
X798481D01*
X799814Y800226D01*
Y798893D01*
X798481Y797560D01*
X799814Y796227D01*
Y794894D01*
X798481Y793561D01*
X795816D01*
X794483Y794894D01*
Y796227D01*
X795816Y797560D01*
X794483Y798893D01*
Y800226D01*
X795816Y797560D02*
X798481D01*
X1160154Y776159D02*
Y768161D01*
Y772160D01*
X1165486D01*
Y776159D01*
Y768161D01*
X1168152Y774826D02*
X1169485Y776159D01*
X1172150D01*
X1173483Y774826D01*
Y773493D01*
X1172150Y772160D01*
X1170817D01*
X1172150D01*
X1173483Y770827D01*
Y769494D01*
X1172150Y768161D01*
X1169485D01*
X1168152Y769494D01*
X1176149Y774826D02*
X1177482Y776159D01*
X1180148D01*
X1181481Y774826D01*
Y773493D01*
X1180148Y772160D01*
X1181481Y770827D01*
Y769494D01*
X1180148Y768161D01*
X1177482D01*
X1176149Y769494D01*
Y770827D01*
X1177482Y772160D01*
X1176149Y773493D01*
Y774826D01*
X1177482Y772160D02*
X1180148D01*
X779821Y826959D02*
Y818961D01*
Y822960D01*
X785152D01*
Y826959D01*
Y818961D01*
X787818D02*
X790484D01*
X789151D01*
Y826959D01*
X787818Y825626D01*
X794483Y826959D02*
X799814D01*
Y825626D01*
X794483Y820294D01*
Y818961D01*
X1160154Y801559D02*
Y793561D01*
Y797560D01*
X1165486D01*
Y801559D01*
Y793561D01*
X1168152Y800226D02*
X1169485Y801559D01*
X1172150D01*
X1173483Y800226D01*
Y798893D01*
X1172150Y797560D01*
X1170817D01*
X1172150D01*
X1173483Y796227D01*
Y794894D01*
X1172150Y793561D01*
X1169485D01*
X1168152Y794894D01*
X1176149Y801559D02*
X1181481D01*
Y800226D01*
X1176149Y794894D01*
Y793561D01*
X779821Y852359D02*
Y844361D01*
Y848360D01*
X785152D01*
Y852359D01*
Y844361D01*
X787818D02*
X790484D01*
X789151D01*
Y852359D01*
X787818Y851026D01*
X799814Y852359D02*
X797149Y851026D01*
X794483Y848360D01*
Y845694D01*
X795816Y844361D01*
X798481D01*
X799814Y845694D01*
Y847027D01*
X798481Y848360D01*
X794483D01*
X1160154Y826959D02*
Y818961D01*
Y822960D01*
X1165486D01*
Y826959D01*
Y818961D01*
X1168152Y825626D02*
X1169485Y826959D01*
X1172150D01*
X1173483Y825626D01*
Y824293D01*
X1172150Y822960D01*
X1170817D01*
X1172150D01*
X1173483Y821627D01*
Y820294D01*
X1172150Y818961D01*
X1169485D01*
X1168152Y820294D01*
X1181481Y826959D02*
X1178815Y825626D01*
X1176149Y822960D01*
Y820294D01*
X1177482Y818961D01*
X1180148D01*
X1181481Y820294D01*
Y821627D01*
X1180148Y822960D01*
X1176149D01*
X779821Y877759D02*
Y869761D01*
Y873760D01*
X785152D01*
Y877759D01*
Y869761D01*
X787818D02*
X790484D01*
X789151D01*
Y877759D01*
X787818Y876426D01*
X799814Y877759D02*
X794483D01*
Y873760D01*
X797149Y875093D01*
X798481D01*
X799814Y873760D01*
Y871094D01*
X798481Y869761D01*
X795816D01*
X794483Y871094D01*
X1160154Y852359D02*
Y844361D01*
Y848360D01*
X1165486D01*
Y852359D01*
Y844361D01*
X1168152Y851026D02*
X1169485Y852359D01*
X1172150D01*
X1173483Y851026D01*
Y849693D01*
X1172150Y848360D01*
X1170817D01*
X1172150D01*
X1173483Y847027D01*
Y845694D01*
X1172150Y844361D01*
X1169485D01*
X1168152Y845694D01*
X1181481Y852359D02*
X1176149D01*
Y848360D01*
X1178815Y849693D01*
X1180148D01*
X1181481Y848360D01*
Y845694D01*
X1180148Y844361D01*
X1177482D01*
X1176149Y845694D01*
X779821Y903159D02*
Y895161D01*
Y899160D01*
X785152D01*
Y903159D01*
Y895161D01*
X787818D02*
X790484D01*
X789151D01*
Y903159D01*
X787818Y901826D01*
X798481Y895161D02*
Y903159D01*
X794483Y899160D01*
X799814D01*
X1160154Y877759D02*
Y869761D01*
Y873760D01*
X1165486D01*
Y877759D01*
Y869761D01*
X1168152Y876426D02*
X1169485Y877759D01*
X1172150D01*
X1173483Y876426D01*
Y875093D01*
X1172150Y873760D01*
X1170817D01*
X1172150D01*
X1173483Y872427D01*
Y871094D01*
X1172150Y869761D01*
X1169485D01*
X1168152Y871094D01*
X1180148Y869761D02*
Y877759D01*
X1176149Y873760D01*
X1181481D01*
X779821Y928559D02*
Y920561D01*
Y924560D01*
X785152D01*
Y928559D01*
Y920561D01*
X787818D02*
X790484D01*
X789151D01*
Y928559D01*
X787818Y927226D01*
X794483D02*
X795816Y928559D01*
X798481D01*
X799814Y927226D01*
Y925893D01*
X798481Y924560D01*
X797149D01*
X798481D01*
X799814Y923227D01*
Y921894D01*
X798481Y920561D01*
X795816D01*
X794483Y921894D01*
X1160154Y903159D02*
Y895161D01*
Y899160D01*
X1165486D01*
Y903159D01*
Y895161D01*
X1168152Y901826D02*
X1169485Y903159D01*
X1172150D01*
X1173483Y901826D01*
Y900493D01*
X1172150Y899160D01*
X1170817D01*
X1172150D01*
X1173483Y897827D01*
Y896494D01*
X1172150Y895161D01*
X1169485D01*
X1168152Y896494D01*
X1176149Y901826D02*
X1177482Y903159D01*
X1180148D01*
X1181481Y901826D01*
Y900493D01*
X1180148Y899160D01*
X1178815D01*
X1180148D01*
X1181481Y897827D01*
Y896494D01*
X1180148Y895161D01*
X1177482D01*
X1176149Y896494D01*
X779821Y953959D02*
Y945961D01*
Y949960D01*
X785152D01*
Y953959D01*
Y945961D01*
X787818D02*
X790484D01*
X789151D01*
Y953959D01*
X787818Y952626D01*
X799814Y945961D02*
X794483D01*
X799814Y951293D01*
Y952626D01*
X798481Y953959D01*
X795816D01*
X794483Y952626D01*
X1160154Y928559D02*
Y920561D01*
Y924560D01*
X1165486D01*
Y928559D01*
Y920561D01*
X1168152Y927226D02*
X1169485Y928559D01*
X1172150D01*
X1173483Y927226D01*
Y925893D01*
X1172150Y924560D01*
X1170817D01*
X1172150D01*
X1173483Y923227D01*
Y921894D01*
X1172150Y920561D01*
X1169485D01*
X1168152Y921894D01*
X1181481Y920561D02*
X1176149D01*
X1181481Y925893D01*
Y927226D01*
X1180148Y928559D01*
X1177482D01*
X1176149Y927226D01*
X781154Y979359D02*
Y971361D01*
Y975360D01*
X786485D01*
Y979359D01*
Y971361D01*
X789151D02*
X791817D01*
X790484D01*
Y979359D01*
X789151Y978026D01*
X795816Y971361D02*
X798481D01*
X797149D01*
Y979359D01*
X795816Y978026D01*
X1161487Y953959D02*
Y945961D01*
Y949960D01*
X1166819D01*
Y953959D01*
Y945961D01*
X1169485Y952626D02*
X1170817Y953959D01*
X1173483D01*
X1174816Y952626D01*
Y951293D01*
X1173483Y949960D01*
X1172150D01*
X1173483D01*
X1174816Y948627D01*
Y947294D01*
X1173483Y945961D01*
X1170817D01*
X1169485Y947294D01*
X1177482Y945961D02*
X1180148D01*
X1178815D01*
Y953959D01*
X1177482Y952626D01*
X779821Y1004759D02*
Y996761D01*
Y1000760D01*
X785152D01*
Y1004759D01*
Y996761D01*
X787818D02*
X790484D01*
X789151D01*
Y1004759D01*
X787818Y1003426D01*
X794483D02*
X795816Y1004759D01*
X798481D01*
X799814Y1003426D01*
Y998094D01*
X798481Y996761D01*
X795816D01*
X794483Y998094D01*
Y1003426D01*
X1160154Y979359D02*
Y971361D01*
Y975360D01*
X1165486D01*
Y979359D01*
Y971361D01*
X1168152Y978026D02*
X1169485Y979359D01*
X1172150D01*
X1173483Y978026D01*
Y976693D01*
X1172150Y975360D01*
X1170817D01*
X1172150D01*
X1173483Y974027D01*
Y972694D01*
X1172150Y971361D01*
X1169485D01*
X1168152Y972694D01*
X1176149Y978026D02*
X1177482Y979359D01*
X1180148D01*
X1181481Y978026D01*
Y972694D01*
X1180148Y971361D01*
X1177482D01*
X1176149Y972694D01*
Y978026D01*
X783153Y1030159D02*
Y1022161D01*
Y1026160D01*
X788485D01*
Y1030159D01*
Y1022161D01*
X791150Y1023494D02*
X792483Y1022161D01*
X795149D01*
X796482Y1023494D01*
Y1028826D01*
X795149Y1030159D01*
X792483D01*
X791150Y1028826D01*
Y1027493D01*
X792483Y1026160D01*
X796482D01*
X1160154Y1004759D02*
Y996761D01*
Y1000760D01*
X1165486D01*
Y1004759D01*
Y996761D01*
X1173483D02*
X1168152D01*
X1173483Y1002093D01*
Y1003426D01*
X1172150Y1004759D01*
X1169485D01*
X1168152Y1003426D01*
X1176149Y998094D02*
X1177482Y996761D01*
X1180148D01*
X1181481Y998094D01*
Y1003426D01*
X1180148Y1004759D01*
X1177482D01*
X1176149Y1003426D01*
Y1002093D01*
X1177482Y1000760D01*
X1181481D01*
X783153Y1055559D02*
Y1047561D01*
Y1051560D01*
X788485D01*
Y1055559D01*
Y1047561D01*
X791150Y1054226D02*
X792483Y1055559D01*
X795149D01*
X796482Y1054226D01*
Y1052893D01*
X795149Y1051560D01*
X796482Y1050227D01*
Y1048894D01*
X795149Y1047561D01*
X792483D01*
X791150Y1048894D01*
Y1050227D01*
X792483Y1051560D01*
X791150Y1052893D01*
Y1054226D01*
X792483Y1051560D02*
X795149D01*
X1160154Y1030159D02*
Y1022161D01*
Y1026160D01*
X1165486D01*
Y1030159D01*
Y1022161D01*
X1173483D02*
X1168152D01*
X1173483Y1027493D01*
Y1028826D01*
X1172150Y1030159D01*
X1169485D01*
X1168152Y1028826D01*
X1176149D02*
X1177482Y1030159D01*
X1180148D01*
X1181481Y1028826D01*
Y1027493D01*
X1180148Y1026160D01*
X1181481Y1024827D01*
Y1023494D01*
X1180148Y1022161D01*
X1177482D01*
X1176149Y1023494D01*
Y1024827D01*
X1177482Y1026160D01*
X1176149Y1027493D01*
Y1028826D01*
X1177482Y1026160D02*
X1180148D01*
X783153Y1080959D02*
Y1072961D01*
Y1076960D01*
X788485D01*
Y1080959D01*
Y1072961D01*
X791150Y1080959D02*
X796482D01*
Y1079626D01*
X791150Y1074294D01*
Y1072961D01*
X1160154Y1055559D02*
Y1047561D01*
Y1051560D01*
X1165486D01*
Y1055559D01*
Y1047561D01*
X1173483D02*
X1168152D01*
X1173483Y1052893D01*
Y1054226D01*
X1172150Y1055559D01*
X1169485D01*
X1168152Y1054226D01*
X1176149Y1055559D02*
X1181481D01*
Y1054226D01*
X1176149Y1048894D01*
Y1047561D01*
X783153Y1106359D02*
Y1098361D01*
Y1102360D01*
X788485D01*
Y1106359D01*
Y1098361D01*
X796482Y1106359D02*
X793816Y1105026D01*
X791150Y1102360D01*
Y1099694D01*
X792483Y1098361D01*
X795149D01*
X796482Y1099694D01*
Y1101027D01*
X795149Y1102360D01*
X791150D01*
X1160154Y1080959D02*
Y1072961D01*
Y1076960D01*
X1165486D01*
Y1080959D01*
Y1072961D01*
X1173483D02*
X1168152D01*
X1173483Y1078293D01*
Y1079626D01*
X1172150Y1080959D01*
X1169485D01*
X1168152Y1079626D01*
X1181481Y1080959D02*
X1178815Y1079626D01*
X1176149Y1076960D01*
Y1074294D01*
X1177482Y1072961D01*
X1180148D01*
X1181481Y1074294D01*
Y1075627D01*
X1180148Y1076960D01*
X1176149D01*
X783153Y1131759D02*
Y1123761D01*
Y1127760D01*
X788485D01*
Y1131759D01*
Y1123761D01*
X796482Y1131759D02*
X791150D01*
Y1127760D01*
X793816Y1129093D01*
X795149D01*
X796482Y1127760D01*
Y1125094D01*
X795149Y1123761D01*
X792483D01*
X791150Y1125094D01*
X1160154Y1106359D02*
Y1098361D01*
Y1102360D01*
X1165486D01*
Y1106359D01*
Y1098361D01*
X1173483D02*
X1168152D01*
X1173483Y1103693D01*
Y1105026D01*
X1172150Y1106359D01*
X1169485D01*
X1168152Y1105026D01*
X1181481Y1106359D02*
X1176149D01*
Y1102360D01*
X1178815Y1103693D01*
X1180148D01*
X1181481Y1102360D01*
Y1099694D01*
X1180148Y1098361D01*
X1177482D01*
X1176149Y1099694D01*
X783153Y1157159D02*
Y1149161D01*
Y1153160D01*
X788485D01*
Y1157159D01*
Y1149161D01*
X795149D02*
Y1157159D01*
X791150Y1153160D01*
X796482D01*
X1160154Y1131759D02*
Y1123761D01*
Y1127760D01*
X1165486D01*
Y1131759D01*
Y1123761D01*
X1173483D02*
X1168152D01*
X1173483Y1129093D01*
Y1130426D01*
X1172150Y1131759D01*
X1169485D01*
X1168152Y1130426D01*
X1180148Y1123761D02*
Y1131759D01*
X1176149Y1127760D01*
X1181481D01*
X783153Y1182559D02*
Y1174561D01*
Y1178560D01*
X788485D01*
Y1182559D01*
Y1174561D01*
X791150Y1181226D02*
X792483Y1182559D01*
X795149D01*
X796482Y1181226D01*
Y1179893D01*
X795149Y1178560D01*
X793816D01*
X795149D01*
X796482Y1177227D01*
Y1175894D01*
X795149Y1174561D01*
X792483D01*
X791150Y1175894D01*
X1160154Y1157159D02*
Y1149161D01*
Y1153160D01*
X1165486D01*
Y1157159D01*
Y1149161D01*
X1173483D02*
X1168152D01*
X1173483Y1154493D01*
Y1155826D01*
X1172150Y1157159D01*
X1169485D01*
X1168152Y1155826D01*
X1176149D02*
X1177482Y1157159D01*
X1180148D01*
X1181481Y1155826D01*
Y1154493D01*
X1180148Y1153160D01*
X1178815D01*
X1180148D01*
X1181481Y1151827D01*
Y1150494D01*
X1180148Y1149161D01*
X1177482D01*
X1176149Y1150494D01*
X783153Y1207959D02*
Y1199961D01*
Y1203960D01*
X788485D01*
Y1207959D01*
Y1199961D01*
X796482D02*
X791150D01*
X796482Y1205293D01*
Y1206626D01*
X795149Y1207959D01*
X792483D01*
X791150Y1206626D01*
X1160154Y1182559D02*
Y1174561D01*
Y1178560D01*
X1165486D01*
Y1182559D01*
Y1174561D01*
X1173483D02*
X1168152D01*
X1173483Y1179893D01*
Y1181226D01*
X1172150Y1182559D01*
X1169485D01*
X1168152Y1181226D01*
X1181481Y1174561D02*
X1176149D01*
X1181481Y1179893D01*
Y1181226D01*
X1180148Y1182559D01*
X1177482D01*
X1176149Y1181226D01*
X784486Y1233359D02*
Y1225361D01*
Y1229360D01*
X789818D01*
Y1233359D01*
Y1225361D01*
X792483D02*
X795149D01*
X793816D01*
Y1233359D01*
X792483Y1232026D01*
X1160154Y1233359D02*
Y1225361D01*
Y1229360D01*
X1165486D01*
Y1233359D01*
Y1225361D01*
X1173483D02*
X1168152D01*
X1173483Y1230693D01*
Y1232026D01*
X1172150Y1233359D01*
X1169485D01*
X1168152Y1232026D01*
X1176149D02*
X1177482Y1233359D01*
X1180148D01*
X1181481Y1232026D01*
Y1226694D01*
X1180148Y1225361D01*
X1177482D01*
X1176149Y1226694D01*
Y1232026D01*
X1161487Y1207959D02*
Y1199961D01*
Y1203960D01*
X1166819D01*
Y1207959D01*
Y1199961D01*
X1174816D02*
X1169485D01*
X1174816Y1205293D01*
Y1206626D01*
X1173483Y1207959D01*
X1170817D01*
X1169485Y1206626D01*
X1177482Y1199961D02*
X1180148D01*
X1178815D01*
Y1207959D01*
X1177482Y1206626D01*
X827278Y1320669D02*
Y1314005D01*
X828611Y1312672D01*
X831277D01*
X832610Y1314005D01*
Y1320669D01*
X840607Y1312672D02*
X835275D01*
X840607Y1318004D01*
Y1319337D01*
X839274Y1320669D01*
X836608D01*
X835275Y1319337D01*
X1196835Y1058251D02*
Y1066249D01*
X1200834D01*
X1202167Y1064916D01*
Y1062250D01*
X1200834Y1060917D01*
X1196835D01*
X1199501D02*
X1202167Y1058251D01*
X1210164D02*
X1204833D01*
X1210164Y1063583D01*
Y1064916D01*
X1208832Y1066249D01*
X1206166D01*
X1204833Y1064916D01*
X706168Y989251D02*
Y997249D01*
X710167D01*
X711500Y995916D01*
Y993250D01*
X710167Y991917D01*
X706168D01*
X708834D02*
X711500Y989251D01*
X714166D02*
X716832D01*
X715499D01*
Y997249D01*
X714166Y995916D01*
X1185585Y963751D02*
Y971749D01*
X1189584D01*
X1190917Y970416D01*
Y967750D01*
X1189584Y966417D01*
X1185585D01*
X1188251D02*
X1190917Y963751D01*
X1193583Y971749D02*
X1198914D01*
Y970416D01*
X1193583Y965084D01*
Y963751D01*
X1185086Y942501D02*
Y950499D01*
X1189084D01*
X1190417Y949166D01*
Y946500D01*
X1189084Y945167D01*
X1185086D01*
X1187751D02*
X1190417Y942501D01*
X1198415Y950499D02*
X1195749Y949166D01*
X1193083Y946500D01*
Y943834D01*
X1194416Y942501D01*
X1197082D01*
X1198415Y943834D01*
Y945167D01*
X1197082Y946500D01*
X1193083D01*
X1185585Y921751D02*
Y929749D01*
X1189584D01*
X1190917Y928416D01*
Y925750D01*
X1189584Y924417D01*
X1185585D01*
X1188251D02*
X1190917Y921751D01*
X1198914Y929749D02*
X1193583D01*
Y925750D01*
X1196249Y927083D01*
X1197582D01*
X1198914Y925750D01*
Y923084D01*
X1197582Y921751D01*
X1194916D01*
X1193583Y923084D01*
X1184649Y900629D02*
Y908626D01*
X1188648D01*
X1189980Y907294D01*
Y904628D01*
X1188648Y903295D01*
X1184649D01*
X1187315D02*
X1189980Y900629D01*
X1196645D02*
Y908626D01*
X1192646Y904628D01*
X1197978D01*
X1185086Y880251D02*
Y888249D01*
X1189084D01*
X1190417Y886916D01*
Y884250D01*
X1189084Y882917D01*
X1185086D01*
X1187751D02*
X1190417Y880251D01*
X1193083Y886916D02*
X1194416Y888249D01*
X1197082D01*
X1198415Y886916D01*
Y885583D01*
X1197082Y884250D01*
X1195749D01*
X1197082D01*
X1198415Y882917D01*
Y881584D01*
X1197082Y880251D01*
X1194416D01*
X1193083Y881584D01*
X1252838Y971499D02*
Y963501D01*
X1258170D01*
X1266167Y971499D02*
X1260835D01*
Y963501D01*
X1266167D01*
X1260835Y967500D02*
X1263501D01*
X1268833Y971499D02*
Y963501D01*
X1272832D01*
X1274165Y964834D01*
Y970166D01*
X1272832Y971499D01*
X1268833D01*
X1282162D02*
X1276830D01*
Y967500D01*
X1279496Y968833D01*
X1280829D01*
X1282162Y967500D01*
Y964834D01*
X1280829Y963501D01*
X1278163D01*
X1276830Y964834D01*
X1253088Y950499D02*
Y942501D01*
X1258420D01*
X1266417Y950499D02*
X1261086D01*
Y942501D01*
X1266417D01*
X1261086Y946500D02*
X1263751D01*
X1269083Y950499D02*
Y942501D01*
X1273082D01*
X1274415Y943834D01*
Y949166D01*
X1273082Y950499D01*
X1269083D01*
X1281079Y942501D02*
Y950499D01*
X1277080Y946500D01*
X1282412D01*
X1252838Y930249D02*
Y922251D01*
X1258170D01*
X1266167Y930249D02*
X1260835D01*
Y922251D01*
X1266167D01*
X1260835Y926250D02*
X1263501D01*
X1268833Y930249D02*
Y922251D01*
X1272832D01*
X1274165Y923584D01*
Y928916D01*
X1272832Y930249D01*
X1268833D01*
X1276830Y928916D02*
X1278163Y930249D01*
X1280829D01*
X1282162Y928916D01*
Y927583D01*
X1280829Y926250D01*
X1279496D01*
X1280829D01*
X1282162Y924917D01*
Y923584D01*
X1280829Y922251D01*
X1278163D01*
X1276830Y923584D01*
X1252838Y908249D02*
Y900251D01*
X1258170D01*
X1266167Y908249D02*
X1260835D01*
Y900251D01*
X1266167D01*
X1260835Y904250D02*
X1263501D01*
X1268833Y908249D02*
Y900251D01*
X1272832D01*
X1274165Y901584D01*
Y906916D01*
X1272832Y908249D01*
X1268833D01*
X1282162Y900251D02*
X1276830D01*
X1282162Y905583D01*
Y906916D01*
X1280829Y908249D01*
X1278163D01*
X1276830Y906916D01*
X1253421Y888499D02*
Y880501D01*
X1258753D01*
X1266750Y888499D02*
X1261418D01*
Y880501D01*
X1266750D01*
X1261418Y884500D02*
X1264084D01*
X1269416Y888499D02*
Y880501D01*
X1273415D01*
X1274747Y881834D01*
Y887166D01*
X1273415Y888499D01*
X1269416D01*
X1277413Y880501D02*
X1280079D01*
X1278746D01*
Y888499D01*
X1277413Y887166D01*
X710500Y1121166D02*
X709167Y1122499D01*
X706501D01*
X705168Y1121166D01*
Y1115834D01*
X706501Y1114501D01*
X709167D01*
X710500Y1115834D01*
X713166Y1114501D02*
X715832D01*
X714499D01*
Y1122499D01*
X713166Y1121166D01*
X728216Y1208084D02*
X726883Y1209417D01*
X724217D01*
X722884Y1208084D01*
Y1202753D01*
X724217Y1201420D01*
X726883D01*
X728216Y1202753D01*
X736213Y1201420D02*
X730881D01*
X736213Y1206752D01*
Y1208084D01*
X734880Y1209417D01*
X732214D01*
X730881Y1208084D01*
X702501Y1145668D02*
X709166D01*
X710499Y1147001D01*
Y1149667D01*
X709166Y1151000D01*
X702501D01*
X710499Y1153666D02*
Y1156332D01*
Y1154999D01*
X702501D01*
X703834Y1153666D01*
D13*
X756070Y1168943D02*
X747606Y1160480D01*
Y1168943D02*
X756070Y1160480D01*
X751838Y1168943D02*
Y1160480D01*
X747606Y1164712D02*
X756070D01*
M02*
