G04*
G04 #@! TF.GenerationSoftware,Altium Limited,Altium Designer,21.2.0 (30)*
G04*
G04 Layer_Physical_Order=2*
G04 Layer_Color=16711680*
%FSLAX44Y44*%
%MOMM*%
G71*
G04*
G04 #@! TF.SameCoordinates,FC8C7DE9-18AC-4A15-B1D3-151ED5954E14*
G04*
G04*
G04 #@! TF.FilePolarity,Positive*
G04*
G01*
G75*
%ADD32C,0.5000*%
%ADD36C,1.5600*%
%ADD37C,1.5240*%
%ADD38R,1.5600X1.5600*%
%ADD39C,1.1430*%
%ADD40C,6.0000*%
%ADD41C,1.0000*%
%ADD42C,0.6000*%
G36*
X982682Y1363460D02*
X999845Y1362617D01*
X1016947Y1360933D01*
X1033945Y1358411D01*
X1050799Y1355059D01*
X1067468Y1350883D01*
X1083912Y1345895D01*
X1100091Y1340106D01*
X1115967Y1333530D01*
X1131501Y1326183D01*
X1146656Y1318082D01*
X1161396Y1309248D01*
X1175684Y1299701D01*
X1189486Y1289465D01*
X1202769Y1278563D01*
X1215502Y1267023D01*
X1227653Y1254872D01*
X1239193Y1242140D01*
X1250095Y1228856D01*
X1260331Y1215054D01*
X1269878Y1200766D01*
X1278712Y1186026D01*
X1286813Y1170871D01*
X1294160Y1155337D01*
X1300736Y1139461D01*
X1306525Y1123282D01*
X1311513Y1106838D01*
X1315689Y1090169D01*
X1319041Y1073315D01*
X1321563Y1056317D01*
X1323247Y1039215D01*
X1324090Y1022052D01*
Y1013460D01*
Y1004868D01*
X1323247Y987705D01*
X1321563Y970603D01*
X1319041Y953605D01*
X1315689Y936751D01*
X1311513Y920082D01*
X1306525Y903638D01*
X1300736Y887459D01*
X1294160Y871583D01*
X1286813Y856049D01*
X1278712Y840894D01*
X1269878Y826154D01*
X1260331Y811866D01*
X1250095Y798064D01*
X1239193Y784781D01*
X1227653Y772048D01*
X1215502Y759897D01*
X1202769Y748357D01*
X1189486Y737456D01*
X1175684Y727219D01*
X1161396Y717672D01*
X1146656Y708838D01*
X1131501Y700737D01*
X1115967Y693390D01*
X1100091Y686814D01*
X1083912Y681025D01*
X1067468Y676037D01*
X1050799Y671861D01*
X1033945Y668509D01*
X1016947Y665987D01*
X999845Y664303D01*
X982682Y663460D01*
X974090D01*
X965498D01*
X948335Y664303D01*
X931233Y665987D01*
X914235Y668509D01*
X897381Y671861D01*
X880712Y676037D01*
X864268Y681025D01*
X848089Y686814D01*
X832213Y693390D01*
X816679Y700737D01*
X801524Y708838D01*
X786784Y717672D01*
X772496Y727219D01*
X758694Y737456D01*
X745411Y748357D01*
X732678Y759897D01*
X720527Y772048D01*
X708987Y784781D01*
X698085Y798064D01*
X687849Y811866D01*
X678302Y826154D01*
X669468Y840894D01*
X661367Y856049D01*
X654020Y871583D01*
X647444Y887459D01*
X641655Y903638D01*
X636667Y920082D01*
X632491Y936751D01*
X629139Y953605D01*
X626617Y970603D01*
X624933Y987705D01*
X624090Y1004868D01*
Y1013460D01*
Y1022052D01*
X624933Y1039215D01*
X626617Y1056317D01*
X629139Y1073315D01*
X632491Y1090169D01*
X636667Y1106838D01*
X641655Y1123282D01*
X647444Y1139461D01*
X654020Y1155337D01*
X661367Y1170871D01*
X669468Y1186026D01*
X678302Y1200766D01*
X687849Y1215054D01*
X698085Y1228856D01*
X708987Y1242140D01*
X720527Y1254872D01*
X732678Y1267023D01*
X745411Y1278563D01*
X758694Y1289465D01*
X772496Y1299701D01*
X786784Y1309248D01*
X801524Y1318082D01*
X816679Y1326183D01*
X832213Y1333530D01*
X848089Y1340106D01*
X864268Y1345895D01*
X880712Y1350883D01*
X897381Y1355059D01*
X914235Y1358411D01*
X931233Y1360933D01*
X948335Y1362617D01*
X965498Y1363460D01*
X974090D01*
X982682D01*
D02*
G37*
%LPC*%
G36*
X1146779Y1239700D02*
X1146687D01*
Y1230630D01*
X1155758D01*
Y1230721D01*
X1155053Y1233351D01*
X1153691Y1235709D01*
X1151766Y1237634D01*
X1149409Y1238995D01*
X1146779Y1239700D01*
D02*
G37*
G36*
X1144147D02*
X1144056D01*
X1141426Y1238995D01*
X1139069Y1237634D01*
X1137143Y1235709D01*
X1135782Y1233351D01*
X1135078Y1230721D01*
Y1230630D01*
X1144147D01*
Y1239700D01*
D02*
G37*
G36*
X1102851D02*
X1102760D01*
Y1230630D01*
X1111830D01*
Y1230721D01*
X1111125Y1233351D01*
X1109764Y1235709D01*
X1107839Y1237634D01*
X1105481Y1238995D01*
X1102851Y1239700D01*
D02*
G37*
G36*
X1100220D02*
X1100129D01*
X1097499Y1238995D01*
X1095141Y1237634D01*
X1093216Y1235709D01*
X1091855Y1233351D01*
X1091150Y1230721D01*
Y1230630D01*
X1100220D01*
Y1239700D01*
D02*
G37*
G36*
X857290Y1239160D02*
X837690D01*
Y1219560D01*
X857290D01*
Y1239160D01*
D02*
G37*
G36*
X816508D02*
X813927D01*
X811435Y1238492D01*
X809200Y1237202D01*
X807376Y1235377D01*
X806085Y1233143D01*
X805417Y1230650D01*
Y1228070D01*
X806085Y1225577D01*
X807376Y1223343D01*
X809200Y1221518D01*
X811435Y1220228D01*
X813927Y1219560D01*
X816508D01*
X819000Y1220228D01*
X821235Y1221518D01*
X823059Y1223343D01*
X824350Y1225577D01*
X825017Y1228070D01*
Y1230650D01*
X824350Y1233143D01*
X823059Y1235377D01*
X821235Y1237202D01*
X819000Y1238492D01*
X816508Y1239160D01*
D02*
G37*
G36*
X1155758Y1228090D02*
X1146687D01*
Y1219020D01*
X1146779D01*
X1149409Y1219725D01*
X1151766Y1221086D01*
X1153691Y1223011D01*
X1155053Y1225369D01*
X1155758Y1227999D01*
Y1228090D01*
D02*
G37*
G36*
X1144147D02*
X1135078D01*
Y1227999D01*
X1135782Y1225369D01*
X1137143Y1223011D01*
X1139069Y1221086D01*
X1141426Y1219725D01*
X1144056Y1219020D01*
X1144147D01*
Y1228090D01*
D02*
G37*
G36*
X1111830D02*
X1102760D01*
Y1219020D01*
X1102851D01*
X1105481Y1219725D01*
X1107839Y1221086D01*
X1109764Y1223011D01*
X1111125Y1225369D01*
X1111830Y1227999D01*
Y1228090D01*
D02*
G37*
G36*
X1100220D02*
X1091150D01*
Y1227999D01*
X1091855Y1225369D01*
X1093216Y1223011D01*
X1095141Y1221086D01*
X1097499Y1219725D01*
X1100129Y1219020D01*
X1100220D01*
Y1228090D01*
D02*
G37*
G36*
X725270Y1209966D02*
Y1203770D01*
X731466D01*
X731026Y1205410D01*
X730033Y1207130D01*
X728630Y1208533D01*
X726910Y1209526D01*
X725270Y1209966D01*
D02*
G37*
G36*
X722730D02*
X721090Y1209526D01*
X719370Y1208533D01*
X717967Y1207130D01*
X716974Y1205410D01*
X716534Y1203770D01*
X722730D01*
Y1209966D01*
D02*
G37*
G36*
X731466Y1201230D02*
X725270D01*
Y1195034D01*
X726910Y1195474D01*
X728630Y1196467D01*
X730033Y1197870D01*
X731026Y1199590D01*
X731466Y1201230D01*
D02*
G37*
G36*
X722730D02*
X716534D01*
X716974Y1199590D01*
X717967Y1197870D01*
X719370Y1196467D01*
X721090Y1195474D01*
X722730Y1195034D01*
Y1201230D01*
D02*
G37*
G36*
X1146708Y1213760D02*
X1144127D01*
X1141635Y1213092D01*
X1139400Y1211802D01*
X1137576Y1209977D01*
X1136285Y1207743D01*
X1135618Y1205250D01*
Y1202670D01*
X1136285Y1200177D01*
X1137576Y1197943D01*
X1139400Y1196118D01*
X1141635Y1194828D01*
X1144127Y1194160D01*
X1146708D01*
X1149200Y1194828D01*
X1151435Y1196118D01*
X1153259Y1197943D01*
X1154550Y1200177D01*
X1155218Y1202670D01*
Y1205250D01*
X1154550Y1207743D01*
X1153259Y1209977D01*
X1151435Y1211802D01*
X1149200Y1213092D01*
X1146708Y1213760D01*
D02*
G37*
G36*
X1102780D02*
X1100200D01*
X1097707Y1213092D01*
X1095473Y1211802D01*
X1093648Y1209977D01*
X1092358Y1207743D01*
X1091690Y1205250D01*
Y1202670D01*
X1092358Y1200177D01*
X1093648Y1197943D01*
X1095473Y1196118D01*
X1097707Y1194828D01*
X1100200Y1194160D01*
X1102780D01*
X1105273Y1194828D01*
X1107507Y1196118D01*
X1109332Y1197943D01*
X1110622Y1200177D01*
X1111290Y1202670D01*
Y1205250D01*
X1110622Y1207743D01*
X1109332Y1209977D01*
X1107507Y1211802D01*
X1105273Y1213092D01*
X1102780Y1213760D01*
D02*
G37*
G36*
X848780D02*
X846200D01*
X843707Y1213092D01*
X841473Y1211802D01*
X839648Y1209977D01*
X838358Y1207743D01*
X837690Y1205250D01*
Y1202670D01*
X838358Y1200177D01*
X839648Y1197943D01*
X841473Y1196118D01*
X843707Y1194828D01*
X846200Y1194160D01*
X848780D01*
X851273Y1194828D01*
X853507Y1196118D01*
X855332Y1197943D01*
X856622Y1200177D01*
X857290Y1202670D01*
Y1205250D01*
X856622Y1207743D01*
X855332Y1209977D01*
X853507Y1211802D01*
X851273Y1213092D01*
X848780Y1213760D01*
D02*
G37*
G36*
X816508D02*
X813927D01*
X811435Y1213092D01*
X809200Y1211802D01*
X807376Y1209977D01*
X806085Y1207743D01*
X805417Y1205250D01*
Y1202670D01*
X806085Y1200177D01*
X807376Y1197943D01*
X809200Y1196118D01*
X811435Y1194828D01*
X813927Y1194160D01*
X816508D01*
X819000Y1194828D01*
X821235Y1196118D01*
X823059Y1197943D01*
X824350Y1200177D01*
X825017Y1202670D01*
Y1205250D01*
X824350Y1207743D01*
X823059Y1209977D01*
X821235Y1211802D01*
X819000Y1213092D01*
X816508Y1213760D01*
D02*
G37*
G36*
X1146708Y1188360D02*
X1144127D01*
X1141635Y1187692D01*
X1139400Y1186402D01*
X1137576Y1184577D01*
X1136285Y1182343D01*
X1135618Y1179850D01*
Y1177270D01*
X1136285Y1174777D01*
X1137576Y1172543D01*
X1139400Y1170718D01*
X1141635Y1169428D01*
X1144127Y1168760D01*
X1146708D01*
X1149200Y1169428D01*
X1151435Y1170718D01*
X1153259Y1172543D01*
X1154550Y1174777D01*
X1155218Y1177270D01*
Y1179850D01*
X1154550Y1182343D01*
X1153259Y1184577D01*
X1151435Y1186402D01*
X1149200Y1187692D01*
X1146708Y1188360D01*
D02*
G37*
G36*
X1102780D02*
X1100200D01*
X1097707Y1187692D01*
X1095473Y1186402D01*
X1093648Y1184577D01*
X1092358Y1182343D01*
X1091690Y1179850D01*
Y1177270D01*
X1092358Y1174777D01*
X1093648Y1172543D01*
X1095473Y1170718D01*
X1097707Y1169428D01*
X1100200Y1168760D01*
X1102780D01*
X1105273Y1169428D01*
X1107507Y1170718D01*
X1109332Y1172543D01*
X1110622Y1174777D01*
X1111290Y1177270D01*
Y1179850D01*
X1110622Y1182343D01*
X1109332Y1184577D01*
X1107507Y1186402D01*
X1105273Y1187692D01*
X1102780Y1188360D01*
D02*
G37*
G36*
X848780D02*
X846200D01*
X843707Y1187692D01*
X841473Y1186402D01*
X839648Y1184577D01*
X838358Y1182343D01*
X837690Y1179850D01*
Y1177270D01*
X838358Y1174777D01*
X839648Y1172543D01*
X841473Y1170718D01*
X843707Y1169428D01*
X846200Y1168760D01*
X848780D01*
X851273Y1169428D01*
X853507Y1170718D01*
X855332Y1172543D01*
X856622Y1174777D01*
X857290Y1177270D01*
Y1179850D01*
X856622Y1182343D01*
X855332Y1184577D01*
X853507Y1186402D01*
X851273Y1187692D01*
X848780Y1188360D01*
D02*
G37*
G36*
X816508D02*
X813927D01*
X811435Y1187692D01*
X809200Y1186402D01*
X807376Y1184577D01*
X806085Y1182343D01*
X805417Y1179850D01*
Y1177270D01*
X806085Y1174777D01*
X807376Y1172543D01*
X809200Y1170718D01*
X811435Y1169428D01*
X813927Y1168760D01*
X816508D01*
X819000Y1169428D01*
X821235Y1170718D01*
X823059Y1172543D01*
X824350Y1174777D01*
X825017Y1177270D01*
Y1179850D01*
X824350Y1182343D01*
X823059Y1184577D01*
X821235Y1186402D01*
X819000Y1187692D01*
X816508Y1188360D01*
D02*
G37*
G36*
X1067110Y1196580D02*
X1064530D01*
X1062037Y1195912D01*
X1059803Y1194622D01*
X1057978Y1192797D01*
X1056688Y1190563D01*
X1056020Y1188070D01*
Y1185490D01*
X1056688Y1182997D01*
X1057978Y1180763D01*
X1059803Y1178938D01*
X1062037Y1177648D01*
X1064530Y1176980D01*
X1067110D01*
X1068704Y1177407D01*
X1074032Y1172079D01*
Y1168823D01*
X1072762Y1168297D01*
X1071837Y1169222D01*
X1069603Y1170512D01*
X1067110Y1171180D01*
X1064530D01*
X1062037Y1170512D01*
X1059803Y1169222D01*
X1057978Y1167397D01*
X1056688Y1165163D01*
X1056020Y1162670D01*
Y1160090D01*
X1056447Y1158496D01*
X1047526Y1149574D01*
X1046531Y1148086D01*
X1046182Y1146330D01*
Y1038780D01*
X1046531Y1037024D01*
X1047526Y1035536D01*
X1054164Y1028897D01*
X1053770Y1027427D01*
Y1024893D01*
X1054426Y1022447D01*
X1055692Y1020253D01*
X1057483Y1018462D01*
X1059677Y1017196D01*
X1062123Y1016540D01*
X1064657D01*
X1067103Y1017196D01*
X1069297Y1018462D01*
X1071088Y1020253D01*
X1072354Y1022447D01*
X1073010Y1024893D01*
Y1027427D01*
X1072354Y1029873D01*
X1071088Y1032067D01*
X1069297Y1033858D01*
X1067103Y1035124D01*
X1064657Y1035780D01*
X1062123D01*
X1060653Y1035386D01*
X1055358Y1040680D01*
Y1044191D01*
X1056628Y1044717D01*
X1057483Y1043862D01*
X1059677Y1042596D01*
X1062123Y1041940D01*
X1064657D01*
X1067103Y1042596D01*
X1069297Y1043862D01*
X1071088Y1045653D01*
X1072354Y1047847D01*
X1073010Y1050294D01*
Y1052827D01*
X1072616Y1054297D01*
X1081864Y1063546D01*
X1082859Y1065034D01*
X1083208Y1066790D01*
Y1173980D01*
X1082859Y1175736D01*
X1081864Y1177224D01*
X1075193Y1183896D01*
X1075620Y1185490D01*
Y1188070D01*
X1074952Y1190563D01*
X1073662Y1192797D01*
X1071837Y1194622D01*
X1069603Y1195912D01*
X1067110Y1196580D01*
D02*
G37*
G36*
X754495Y1176750D02*
X752505D01*
X751511Y1176338D01*
X714000D01*
X713557Y1176250D01*
X712505D01*
X710668Y1175489D01*
X709261Y1174082D01*
X708500Y1172245D01*
Y1170255D01*
X709261Y1168418D01*
X710668Y1167011D01*
X712505Y1166250D01*
X714495D01*
X716332Y1167011D01*
X716483Y1167162D01*
X751511D01*
X752505Y1166750D01*
X754495D01*
X756332Y1167511D01*
X757739Y1168918D01*
X758500Y1170755D01*
Y1172745D01*
X757739Y1174582D01*
X756332Y1175989D01*
X754495Y1176750D01*
D02*
G37*
G36*
X886770Y1171180D02*
X884190D01*
X881697Y1170512D01*
X879463Y1169222D01*
X877638Y1167397D01*
X876348Y1165163D01*
X875680Y1162670D01*
Y1160090D01*
X876348Y1157597D01*
X877638Y1155363D01*
X879463Y1153538D01*
X881697Y1152248D01*
X884190Y1151580D01*
X886770D01*
X889263Y1152248D01*
X891497Y1153538D01*
X893322Y1155363D01*
X894612Y1157597D01*
X895280Y1160090D01*
Y1162670D01*
X894612Y1165163D01*
X893322Y1167397D01*
X891497Y1169222D01*
X889263Y1170512D01*
X886770Y1171180D01*
D02*
G37*
G36*
X1146708Y1162960D02*
X1144127D01*
X1141635Y1162292D01*
X1139400Y1161002D01*
X1137576Y1159177D01*
X1136285Y1156943D01*
X1135618Y1154450D01*
Y1151870D01*
X1136285Y1149377D01*
X1137576Y1147143D01*
X1139400Y1145318D01*
X1141635Y1144028D01*
X1144127Y1143360D01*
X1146708D01*
X1149200Y1144028D01*
X1151435Y1145318D01*
X1153259Y1147143D01*
X1154550Y1149377D01*
X1155218Y1151870D01*
Y1154450D01*
X1154550Y1156943D01*
X1153259Y1159177D01*
X1151435Y1161002D01*
X1149200Y1162292D01*
X1146708Y1162960D01*
D02*
G37*
G36*
X1102780D02*
X1100200D01*
X1097707Y1162292D01*
X1095473Y1161002D01*
X1093648Y1159177D01*
X1092358Y1156943D01*
X1091690Y1154450D01*
Y1151870D01*
X1092358Y1149377D01*
X1093648Y1147143D01*
X1095473Y1145318D01*
X1097707Y1144028D01*
X1100200Y1143360D01*
X1102780D01*
X1105273Y1144028D01*
X1107507Y1145318D01*
X1109332Y1147143D01*
X1110622Y1149377D01*
X1111290Y1151870D01*
Y1154450D01*
X1110622Y1156943D01*
X1109332Y1159177D01*
X1107507Y1161002D01*
X1105273Y1162292D01*
X1102780Y1162960D01*
D02*
G37*
G36*
X848780D02*
X846200D01*
X843707Y1162292D01*
X841473Y1161002D01*
X839648Y1159177D01*
X838358Y1156943D01*
X837690Y1154450D01*
Y1151870D01*
X838358Y1149377D01*
X839648Y1147143D01*
X841473Y1145318D01*
X843707Y1144028D01*
X846200Y1143360D01*
X848780D01*
X851273Y1144028D01*
X853507Y1145318D01*
X855332Y1147143D01*
X856622Y1149377D01*
X857290Y1151870D01*
Y1154450D01*
X856622Y1156943D01*
X855332Y1159177D01*
X853507Y1161002D01*
X851273Y1162292D01*
X848780Y1162960D01*
D02*
G37*
G36*
X816508D02*
X813927D01*
X811435Y1162292D01*
X809200Y1161002D01*
X807376Y1159177D01*
X806085Y1156943D01*
X805417Y1154450D01*
Y1151870D01*
X806085Y1149377D01*
X807376Y1147143D01*
X809200Y1145318D01*
X811435Y1144028D01*
X813927Y1143360D01*
X816508D01*
X819000Y1144028D01*
X821235Y1145318D01*
X823059Y1147143D01*
X824350Y1149377D01*
X825017Y1151870D01*
Y1154450D01*
X824350Y1156943D01*
X823059Y1159177D01*
X821235Y1161002D01*
X819000Y1162292D01*
X816508Y1162960D01*
D02*
G37*
G36*
X1146708Y1137560D02*
X1144127D01*
X1141635Y1136892D01*
X1139400Y1135602D01*
X1137576Y1133777D01*
X1136285Y1131543D01*
X1135618Y1129050D01*
Y1126470D01*
X1136285Y1123977D01*
X1137576Y1121743D01*
X1139400Y1119918D01*
X1141635Y1118628D01*
X1144127Y1117960D01*
X1146708D01*
X1149200Y1118628D01*
X1151435Y1119918D01*
X1153259Y1121743D01*
X1154550Y1123977D01*
X1155218Y1126470D01*
Y1129050D01*
X1154550Y1131543D01*
X1153259Y1133777D01*
X1151435Y1135602D01*
X1149200Y1136892D01*
X1146708Y1137560D01*
D02*
G37*
G36*
X1102780D02*
X1100200D01*
X1097707Y1136892D01*
X1095473Y1135602D01*
X1093648Y1133777D01*
X1092358Y1131543D01*
X1091690Y1129050D01*
Y1126470D01*
X1092358Y1123977D01*
X1093648Y1121743D01*
X1095473Y1119918D01*
X1097707Y1118628D01*
X1100200Y1117960D01*
X1102780D01*
X1105273Y1118628D01*
X1107507Y1119918D01*
X1109332Y1121743D01*
X1110622Y1123977D01*
X1111290Y1126470D01*
Y1129050D01*
X1110622Y1131543D01*
X1109332Y1133777D01*
X1107507Y1135602D01*
X1105273Y1136892D01*
X1102780Y1137560D01*
D02*
G37*
G36*
X848780D02*
X846200D01*
X843707Y1136892D01*
X841473Y1135602D01*
X839648Y1133777D01*
X838358Y1131543D01*
X837690Y1129050D01*
Y1126470D01*
X838358Y1123977D01*
X839648Y1121743D01*
X841473Y1119918D01*
X843707Y1118628D01*
X846200Y1117960D01*
X848780D01*
X851273Y1118628D01*
X853507Y1119918D01*
X855332Y1121743D01*
X856622Y1123977D01*
X857290Y1126470D01*
Y1129050D01*
X856622Y1131543D01*
X855332Y1133777D01*
X853507Y1135602D01*
X851273Y1136892D01*
X848780Y1137560D01*
D02*
G37*
G36*
X816508D02*
X813927D01*
X811435Y1136892D01*
X809200Y1135602D01*
X807376Y1133777D01*
X806085Y1131543D01*
X805417Y1129050D01*
Y1126470D01*
X806085Y1123977D01*
X807376Y1121743D01*
X809200Y1119918D01*
X811435Y1118628D01*
X813927Y1117960D01*
X816508D01*
X819000Y1118628D01*
X821235Y1119918D01*
X823059Y1121743D01*
X824350Y1123977D01*
X825017Y1126470D01*
Y1129050D01*
X824350Y1131543D01*
X823059Y1133777D01*
X821235Y1135602D01*
X819000Y1136892D01*
X816508Y1137560D01*
D02*
G37*
G36*
X725520Y1106716D02*
Y1100520D01*
X731716D01*
X731276Y1102160D01*
X730284Y1103880D01*
X728880Y1105284D01*
X727160Y1106276D01*
X725520Y1106716D01*
D02*
G37*
G36*
X722980D02*
X721340Y1106276D01*
X719620Y1105284D01*
X718216Y1103880D01*
X717224Y1102160D01*
X716784Y1100520D01*
X722980D01*
Y1106716D01*
D02*
G37*
G36*
X1146708Y1112160D02*
X1144127D01*
X1141635Y1111492D01*
X1139400Y1110202D01*
X1137576Y1108377D01*
X1136285Y1106143D01*
X1135618Y1103650D01*
Y1101070D01*
X1136285Y1098577D01*
X1137576Y1096343D01*
X1139400Y1094518D01*
X1141635Y1093228D01*
X1144127Y1092560D01*
X1146708D01*
X1149200Y1093228D01*
X1151435Y1094518D01*
X1153259Y1096343D01*
X1154550Y1098577D01*
X1155218Y1101070D01*
Y1103650D01*
X1154550Y1106143D01*
X1153259Y1108377D01*
X1151435Y1110202D01*
X1149200Y1111492D01*
X1146708Y1112160D01*
D02*
G37*
G36*
X1102780D02*
X1100200D01*
X1097707Y1111492D01*
X1095473Y1110202D01*
X1093648Y1108377D01*
X1092358Y1106143D01*
X1091690Y1103650D01*
Y1101070D01*
X1092358Y1098577D01*
X1093648Y1096343D01*
X1095473Y1094518D01*
X1097707Y1093228D01*
X1100200Y1092560D01*
X1102780D01*
X1105273Y1093228D01*
X1107507Y1094518D01*
X1109332Y1096343D01*
X1110622Y1098577D01*
X1111290Y1101070D01*
Y1103650D01*
X1110622Y1106143D01*
X1109332Y1108377D01*
X1107507Y1110202D01*
X1105273Y1111492D01*
X1102780Y1112160D01*
D02*
G37*
G36*
X848780D02*
X846200D01*
X843707Y1111492D01*
X841473Y1110202D01*
X839648Y1108377D01*
X838358Y1106143D01*
X837690Y1103650D01*
Y1101070D01*
X838358Y1098577D01*
X839648Y1096343D01*
X841473Y1094518D01*
X843707Y1093228D01*
X846200Y1092560D01*
X848780D01*
X851273Y1093228D01*
X853507Y1094518D01*
X855332Y1096343D01*
X856622Y1098577D01*
X857290Y1101070D01*
Y1103650D01*
X856622Y1106143D01*
X855332Y1108377D01*
X853507Y1110202D01*
X851273Y1111492D01*
X848780Y1112160D01*
D02*
G37*
G36*
X816508D02*
X813927D01*
X811435Y1111492D01*
X809200Y1110202D01*
X807376Y1108377D01*
X806085Y1106143D01*
X805417Y1103650D01*
Y1101070D01*
X806085Y1098577D01*
X807376Y1096343D01*
X809200Y1094518D01*
X811435Y1093228D01*
X813927Y1092560D01*
X816508D01*
X819000Y1093228D01*
X821235Y1094518D01*
X823059Y1096343D01*
X824350Y1098577D01*
X825017Y1101070D01*
Y1103650D01*
X824350Y1106143D01*
X823059Y1108377D01*
X821235Y1110202D01*
X819000Y1111492D01*
X816508Y1112160D01*
D02*
G37*
G36*
X731716Y1097980D02*
X725520D01*
Y1091784D01*
X727160Y1092224D01*
X728880Y1093216D01*
X730284Y1094620D01*
X731276Y1096340D01*
X731716Y1097980D01*
D02*
G37*
G36*
X722980D02*
X716784D01*
X717224Y1096340D01*
X718216Y1094620D01*
X719620Y1093216D01*
X721340Y1092224D01*
X722980Y1091784D01*
Y1097980D01*
D02*
G37*
G36*
X1146779Y1087300D02*
X1146687D01*
Y1078230D01*
X1155758D01*
Y1078321D01*
X1155053Y1080951D01*
X1153691Y1083309D01*
X1151766Y1085234D01*
X1149409Y1086595D01*
X1146779Y1087300D01*
D02*
G37*
G36*
X1102851D02*
X1102760D01*
Y1078230D01*
X1111830D01*
Y1078321D01*
X1111125Y1080951D01*
X1109764Y1083309D01*
X1107839Y1085234D01*
X1105481Y1086595D01*
X1102851Y1087300D01*
D02*
G37*
G36*
X1100220D02*
X1100129D01*
X1097499Y1086595D01*
X1095141Y1085234D01*
X1093216Y1083309D01*
X1091855Y1080951D01*
X1091150Y1078321D01*
Y1078230D01*
X1100220D01*
Y1087300D01*
D02*
G37*
G36*
X1144147D02*
X1144056D01*
X1141426Y1086595D01*
X1139069Y1085234D01*
X1137143Y1083309D01*
X1135782Y1080951D01*
X1135078Y1078321D01*
Y1078230D01*
X1144147D01*
Y1087300D01*
D02*
G37*
G36*
X1145417Y1076960D02*
D01*
D01*
D01*
D01*
D02*
G37*
G36*
X886857Y1086580D02*
X884324D01*
X881877Y1085924D01*
X879683Y1084658D01*
X877892Y1082867D01*
X876626Y1080673D01*
X875970Y1078226D01*
Y1075694D01*
X876626Y1073247D01*
X877892Y1071053D01*
X879683Y1069262D01*
X881877Y1067996D01*
X884324Y1067340D01*
X886857D01*
X889303Y1067996D01*
X891497Y1069262D01*
X893288Y1071053D01*
X894554Y1073247D01*
X895210Y1075694D01*
Y1078226D01*
X894554Y1080673D01*
X893288Y1082867D01*
X891497Y1084658D01*
X889303Y1085924D01*
X886857Y1086580D01*
D02*
G37*
G36*
X848780Y1086760D02*
X846200D01*
X843707Y1086092D01*
X841473Y1084802D01*
X839648Y1082977D01*
X838358Y1080743D01*
X837690Y1078250D01*
Y1075670D01*
X838358Y1073177D01*
X839648Y1070943D01*
X841473Y1069118D01*
X843707Y1067828D01*
X846200Y1067160D01*
X848780D01*
X851273Y1067828D01*
X853507Y1069118D01*
X855332Y1070943D01*
X856622Y1073177D01*
X857290Y1075670D01*
Y1078250D01*
X856622Y1080743D01*
X855332Y1082977D01*
X853507Y1084802D01*
X851273Y1086092D01*
X848780Y1086760D01*
D02*
G37*
G36*
X816508D02*
X813927D01*
X811435Y1086092D01*
X809200Y1084802D01*
X807376Y1082977D01*
X806085Y1080743D01*
X805417Y1078250D01*
Y1075670D01*
X806085Y1073177D01*
X807376Y1070943D01*
X809200Y1069118D01*
X811435Y1067828D01*
X813927Y1067160D01*
X816508D01*
X819000Y1067828D01*
X821235Y1069118D01*
X823059Y1070943D01*
X824350Y1073177D01*
X825017Y1075670D01*
Y1078250D01*
X824350Y1080743D01*
X823059Y1082977D01*
X821235Y1084802D01*
X819000Y1086092D01*
X816508Y1086760D01*
D02*
G37*
G36*
X1155758Y1075690D02*
X1146687D01*
Y1066620D01*
X1146779D01*
X1149409Y1067325D01*
X1151766Y1068686D01*
X1153691Y1070611D01*
X1155053Y1072969D01*
X1155758Y1075599D01*
Y1075690D01*
D02*
G37*
G36*
X1144147D02*
X1135078D01*
Y1075599D01*
X1135782Y1072969D01*
X1137143Y1070611D01*
X1139069Y1068686D01*
X1141426Y1067325D01*
X1144056Y1066620D01*
X1144147D01*
Y1075690D01*
D02*
G37*
G36*
X1111830D02*
X1102760D01*
Y1066620D01*
X1102851D01*
X1105481Y1067325D01*
X1107839Y1068686D01*
X1109764Y1070611D01*
X1111125Y1072969D01*
X1111830Y1075599D01*
Y1075690D01*
D02*
G37*
G36*
X1100220D02*
X1091150D01*
Y1075599D01*
X1091855Y1072969D01*
X1093216Y1070611D01*
X1095141Y1068686D01*
X1097499Y1067325D01*
X1100129Y1066620D01*
X1100220D01*
Y1075690D01*
D02*
G37*
G36*
X886857Y1061180D02*
X884324D01*
X881877Y1060524D01*
X879683Y1059258D01*
X877892Y1057467D01*
X876626Y1055273D01*
X875970Y1052827D01*
Y1050294D01*
X876626Y1047847D01*
X877892Y1045653D01*
X879683Y1043862D01*
X881877Y1042596D01*
X884324Y1041940D01*
X886857D01*
X889303Y1042596D01*
X891497Y1043862D01*
X893288Y1045653D01*
X894554Y1047847D01*
X895210Y1050294D01*
Y1052827D01*
X894554Y1055273D01*
X893288Y1057467D01*
X891497Y1059258D01*
X889303Y1060524D01*
X886857Y1061180D01*
D02*
G37*
G36*
X1146708Y1061360D02*
X1144127D01*
X1141635Y1060692D01*
X1139400Y1059402D01*
X1137576Y1057577D01*
X1136285Y1055343D01*
X1135618Y1052850D01*
Y1050270D01*
X1136285Y1047777D01*
X1137576Y1045543D01*
X1139400Y1043718D01*
X1141635Y1042428D01*
X1144127Y1041760D01*
X1146708D01*
X1149200Y1042428D01*
X1151435Y1043718D01*
X1153259Y1045543D01*
X1154550Y1047777D01*
X1155218Y1050270D01*
Y1052850D01*
X1154550Y1055343D01*
X1153259Y1057577D01*
X1151435Y1059402D01*
X1149200Y1060692D01*
X1146708Y1061360D01*
D02*
G37*
G36*
X1102780D02*
X1100200D01*
X1097707Y1060692D01*
X1095473Y1059402D01*
X1093648Y1057577D01*
X1092358Y1055343D01*
X1091690Y1052850D01*
Y1050270D01*
X1092358Y1047777D01*
X1093648Y1045543D01*
X1095473Y1043718D01*
X1097707Y1042428D01*
X1100200Y1041760D01*
X1102780D01*
X1105273Y1042428D01*
X1107507Y1043718D01*
X1109332Y1045543D01*
X1110622Y1047777D01*
X1111290Y1050270D01*
Y1052850D01*
X1110622Y1055343D01*
X1109332Y1057577D01*
X1107507Y1059402D01*
X1105273Y1060692D01*
X1102780Y1061360D01*
D02*
G37*
G36*
X848780D02*
X846200D01*
X843707Y1060692D01*
X841473Y1059402D01*
X839648Y1057577D01*
X838358Y1055343D01*
X837690Y1052850D01*
Y1050270D01*
X838358Y1047777D01*
X839648Y1045543D01*
X841473Y1043718D01*
X843707Y1042428D01*
X846200Y1041760D01*
X848780D01*
X851273Y1042428D01*
X853507Y1043718D01*
X855332Y1045543D01*
X856622Y1047777D01*
X857290Y1050270D01*
Y1052850D01*
X856622Y1055343D01*
X855332Y1057577D01*
X853507Y1059402D01*
X851273Y1060692D01*
X848780Y1061360D01*
D02*
G37*
G36*
X816508D02*
X813927D01*
X811435Y1060692D01*
X809200Y1059402D01*
X807376Y1057577D01*
X806085Y1055343D01*
X805417Y1052850D01*
Y1050270D01*
X806085Y1047777D01*
X807376Y1045543D01*
X809200Y1043718D01*
X811435Y1042428D01*
X813927Y1041760D01*
X816508D01*
X819000Y1042428D01*
X821235Y1043718D01*
X823059Y1045543D01*
X824350Y1047777D01*
X825017Y1050270D01*
Y1052850D01*
X824350Y1055343D01*
X823059Y1057577D01*
X821235Y1059402D01*
X819000Y1060692D01*
X816508Y1061360D01*
D02*
G37*
G36*
X886928Y1036320D02*
X886860D01*
Y1027430D01*
X895750D01*
Y1027498D01*
X895058Y1030082D01*
X893720Y1032398D01*
X891828Y1034290D01*
X889512Y1035628D01*
X886928Y1036320D01*
D02*
G37*
G36*
X884320D02*
X884252D01*
X881668Y1035628D01*
X879352Y1034290D01*
X877460Y1032398D01*
X876122Y1030082D01*
X875430Y1027498D01*
Y1027430D01*
X884320D01*
Y1036320D01*
D02*
G37*
G36*
X1146708Y1035960D02*
X1144127D01*
X1141635Y1035292D01*
X1139400Y1034002D01*
X1137576Y1032177D01*
X1136285Y1029943D01*
X1135618Y1027450D01*
Y1024870D01*
X1136285Y1022377D01*
X1137576Y1020143D01*
X1139400Y1018318D01*
X1141635Y1017028D01*
X1144127Y1016360D01*
X1146708D01*
X1149200Y1017028D01*
X1151435Y1018318D01*
X1153259Y1020143D01*
X1154550Y1022377D01*
X1155218Y1024870D01*
Y1027450D01*
X1154550Y1029943D01*
X1153259Y1032177D01*
X1151435Y1034002D01*
X1149200Y1035292D01*
X1146708Y1035960D01*
D02*
G37*
G36*
X1102780D02*
X1100200D01*
X1097707Y1035292D01*
X1095473Y1034002D01*
X1093648Y1032177D01*
X1092358Y1029943D01*
X1091690Y1027450D01*
Y1024870D01*
X1092358Y1022377D01*
X1093648Y1020143D01*
X1095473Y1018318D01*
X1097707Y1017028D01*
X1100200Y1016360D01*
X1102780D01*
X1105273Y1017028D01*
X1107507Y1018318D01*
X1109332Y1020143D01*
X1110622Y1022377D01*
X1111290Y1024870D01*
Y1027450D01*
X1110622Y1029943D01*
X1109332Y1032177D01*
X1107507Y1034002D01*
X1105273Y1035292D01*
X1102780Y1035960D01*
D02*
G37*
G36*
X848780D02*
X846200D01*
X843707Y1035292D01*
X841473Y1034002D01*
X839648Y1032177D01*
X838358Y1029943D01*
X837690Y1027450D01*
Y1024870D01*
X838358Y1022377D01*
X839648Y1020143D01*
X841473Y1018318D01*
X843707Y1017028D01*
X846200Y1016360D01*
X848780D01*
X851273Y1017028D01*
X853507Y1018318D01*
X855332Y1020143D01*
X856622Y1022377D01*
X857290Y1024870D01*
Y1027450D01*
X856622Y1029943D01*
X855332Y1032177D01*
X853507Y1034002D01*
X851273Y1035292D01*
X848780Y1035960D01*
D02*
G37*
G36*
X816508D02*
X813927D01*
X811435Y1035292D01*
X809200Y1034002D01*
X807376Y1032177D01*
X806085Y1029943D01*
X805417Y1027450D01*
Y1024870D01*
X806085Y1022377D01*
X807376Y1020143D01*
X809200Y1018318D01*
X811435Y1017028D01*
X813927Y1016360D01*
X816508D01*
X819000Y1017028D01*
X821235Y1018318D01*
X823059Y1020143D01*
X824350Y1022377D01*
X825017Y1024870D01*
Y1027450D01*
X824350Y1029943D01*
X823059Y1032177D01*
X821235Y1034002D01*
X819000Y1035292D01*
X816508Y1035960D01*
D02*
G37*
G36*
X895750Y1024890D02*
X886860D01*
Y1016000D01*
X886928D01*
X889512Y1016692D01*
X891828Y1018030D01*
X893720Y1019922D01*
X895058Y1022238D01*
X895750Y1024822D01*
Y1024890D01*
D02*
G37*
G36*
X884320D02*
X875430D01*
Y1024822D01*
X876122Y1022238D01*
X877460Y1019922D01*
X879352Y1018030D01*
X881668Y1016692D01*
X884252Y1016000D01*
X884320D01*
Y1024890D01*
D02*
G37*
G36*
X680766Y1010365D02*
X678734D01*
X676772Y1009839D01*
X675013Y1008823D01*
X674260Y1008071D01*
X673400Y1007504D01*
X672540Y1008071D01*
X671787Y1008823D01*
X670028Y1009839D01*
X668066Y1010365D01*
X666034D01*
X664072Y1009839D01*
X662313Y1008823D01*
X660876Y1007387D01*
X659861Y1005628D01*
X659335Y1003666D01*
Y1001634D01*
X659861Y999672D01*
X660876Y997913D01*
X661262Y997528D01*
X661209Y995784D01*
X660444Y995019D01*
X659358Y993136D01*
X658844Y991220D01*
X667050D01*
Y988680D01*
X658844D01*
X659358Y986764D01*
X660444Y984881D01*
X661209Y984116D01*
X661262Y982372D01*
X660876Y981987D01*
X659861Y980228D01*
X659335Y978266D01*
Y976234D01*
X659861Y974272D01*
X660876Y972513D01*
X661629Y971760D01*
X662197Y970900D01*
X661629Y970040D01*
X660876Y969287D01*
X659861Y967528D01*
X659335Y965566D01*
Y963534D01*
X659861Y961572D01*
X660876Y959813D01*
X661629Y959060D01*
X662197Y958200D01*
X661629Y957340D01*
X660876Y956587D01*
X659861Y954828D01*
X659335Y952866D01*
Y950834D01*
X659861Y948872D01*
X660876Y947113D01*
X662313Y945676D01*
X664072Y944661D01*
X666034Y944135D01*
X668066D01*
X670028Y944661D01*
X671787Y945676D01*
X672540Y946429D01*
X673400Y946997D01*
X674260Y946429D01*
X675013Y945676D01*
X676772Y944661D01*
X678734Y944135D01*
X680766D01*
X682728Y944661D01*
X684487Y945676D01*
X685923Y947113D01*
X686939Y948872D01*
X687465Y950834D01*
Y952866D01*
X686939Y954828D01*
X685923Y956587D01*
X685171Y957340D01*
X684604Y958200D01*
X685171Y959060D01*
X685923Y959813D01*
X686939Y961572D01*
X687465Y963534D01*
Y965566D01*
X686939Y967528D01*
X685923Y969287D01*
X685171Y970040D01*
X684604Y970900D01*
X685171Y971760D01*
X685923Y972513D01*
X686939Y974272D01*
X687465Y976234D01*
Y978266D01*
X686939Y980228D01*
X685923Y981987D01*
X685538Y982372D01*
X685591Y984116D01*
X686356Y984881D01*
X687442Y986764D01*
X687956Y988680D01*
X679750D01*
Y991220D01*
X687956D01*
X687442Y993136D01*
X686356Y995019D01*
X685591Y995784D01*
X685538Y997528D01*
X685923Y997913D01*
X686939Y999672D01*
X687465Y1001634D01*
Y1003666D01*
X686939Y1005628D01*
X685923Y1007387D01*
X684487Y1008823D01*
X682728Y1009839D01*
X680766Y1010365D01*
D02*
G37*
G36*
X1064657Y1010380D02*
X1062123D01*
X1059677Y1009724D01*
X1057483Y1008458D01*
X1055692Y1006667D01*
X1054426Y1004473D01*
X1053770Y1002027D01*
Y999493D01*
X1054426Y997047D01*
X1055692Y994853D01*
X1057483Y993062D01*
X1059677Y991796D01*
X1062123Y991140D01*
X1064657D01*
X1067103Y991796D01*
X1069297Y993062D01*
X1071088Y994853D01*
X1072354Y997047D01*
X1073010Y999493D01*
Y1002027D01*
X1072354Y1004473D01*
X1071088Y1006667D01*
X1069297Y1008458D01*
X1067103Y1009724D01*
X1064657Y1010380D01*
D02*
G37*
G36*
X886857D02*
X884324D01*
X881877Y1009724D01*
X879683Y1008458D01*
X877892Y1006667D01*
X876626Y1004473D01*
X875970Y1002027D01*
Y999493D01*
X876626Y997047D01*
X877892Y994853D01*
X879683Y993062D01*
X881877Y991796D01*
X884324Y991140D01*
X886857D01*
X889303Y991796D01*
X891497Y993062D01*
X893288Y994853D01*
X894554Y997047D01*
X895210Y999493D01*
Y1002027D01*
X894554Y1004473D01*
X893288Y1006667D01*
X891497Y1008458D01*
X889303Y1009724D01*
X886857Y1010380D01*
D02*
G37*
G36*
X1146708Y1010560D02*
X1144127D01*
X1141635Y1009892D01*
X1139400Y1008602D01*
X1137576Y1006777D01*
X1136285Y1004543D01*
X1135618Y1002050D01*
Y999470D01*
X1136285Y996977D01*
X1137576Y994743D01*
X1139400Y992918D01*
X1141635Y991628D01*
X1144127Y990960D01*
X1146708D01*
X1149200Y991628D01*
X1151435Y992918D01*
X1153259Y994743D01*
X1154550Y996977D01*
X1155218Y999470D01*
Y1002050D01*
X1154550Y1004543D01*
X1153259Y1006777D01*
X1151435Y1008602D01*
X1149200Y1009892D01*
X1146708Y1010560D01*
D02*
G37*
G36*
X1102780D02*
X1100200D01*
X1097707Y1009892D01*
X1095473Y1008602D01*
X1093648Y1006777D01*
X1092358Y1004543D01*
X1091690Y1002050D01*
Y999470D01*
X1092358Y996977D01*
X1093648Y994743D01*
X1095473Y992918D01*
X1097707Y991628D01*
X1100200Y990960D01*
X1102780D01*
X1105273Y991628D01*
X1107507Y992918D01*
X1109332Y994743D01*
X1110622Y996977D01*
X1111290Y999470D01*
Y1002050D01*
X1110622Y1004543D01*
X1109332Y1006777D01*
X1107507Y1008602D01*
X1105273Y1009892D01*
X1102780Y1010560D01*
D02*
G37*
G36*
X848780D02*
X846200D01*
X843707Y1009892D01*
X841473Y1008602D01*
X839648Y1006777D01*
X838358Y1004543D01*
X837690Y1002050D01*
Y999470D01*
X838358Y996977D01*
X839648Y994743D01*
X841473Y992918D01*
X843707Y991628D01*
X846200Y990960D01*
X848780D01*
X851273Y991628D01*
X853507Y992918D01*
X855332Y994743D01*
X856622Y996977D01*
X857290Y999470D01*
Y1002050D01*
X856622Y1004543D01*
X855332Y1006777D01*
X853507Y1008602D01*
X851273Y1009892D01*
X848780Y1010560D01*
D02*
G37*
G36*
X816508D02*
X813927D01*
X811435Y1009892D01*
X809200Y1008602D01*
X807376Y1006777D01*
X806085Y1004543D01*
X805417Y1002050D01*
Y999470D01*
X806085Y996977D01*
X807376Y994743D01*
X809200Y992918D01*
X811435Y991628D01*
X813927Y990960D01*
X816508D01*
X819000Y991628D01*
X821235Y992918D01*
X823059Y994743D01*
X824350Y996977D01*
X825017Y999470D01*
Y1002050D01*
X824350Y1004543D01*
X823059Y1006777D01*
X821235Y1008602D01*
X819000Y1009892D01*
X816508Y1010560D01*
D02*
G37*
G36*
X1064657Y984980D02*
X1062123D01*
X1059677Y984324D01*
X1057483Y983058D01*
X1055692Y981267D01*
X1054426Y979073D01*
X1053770Y976627D01*
Y974093D01*
X1054426Y971647D01*
X1055692Y969453D01*
X1057483Y967662D01*
X1059677Y966396D01*
X1062123Y965740D01*
X1064657D01*
X1067103Y966396D01*
X1069297Y967662D01*
X1071088Y969453D01*
X1072354Y971647D01*
X1073010Y974093D01*
Y976627D01*
X1072354Y979073D01*
X1071088Y981267D01*
X1069297Y983058D01*
X1067103Y984324D01*
X1064657Y984980D01*
D02*
G37*
G36*
X886857D02*
X884324D01*
X881877Y984324D01*
X879683Y983058D01*
X877892Y981267D01*
X876626Y979073D01*
X875970Y976627D01*
Y974093D01*
X876626Y971647D01*
X877892Y969453D01*
X879683Y967662D01*
X881877Y966396D01*
X884324Y965740D01*
X886857D01*
X889303Y966396D01*
X891497Y967662D01*
X893288Y969453D01*
X894554Y971647D01*
X895210Y974093D01*
Y976627D01*
X894554Y979073D01*
X893288Y981267D01*
X891497Y983058D01*
X889303Y984324D01*
X886857Y984980D01*
D02*
G37*
G36*
X1146708Y985160D02*
X1144127D01*
X1141635Y984492D01*
X1139400Y983202D01*
X1137576Y981377D01*
X1136285Y979143D01*
X1135618Y976650D01*
Y974070D01*
X1136285Y971577D01*
X1137576Y969343D01*
X1139400Y967518D01*
X1141635Y966228D01*
X1144127Y965560D01*
X1146708D01*
X1149200Y966228D01*
X1151435Y967518D01*
X1153259Y969343D01*
X1154550Y971577D01*
X1155218Y974070D01*
Y976650D01*
X1154550Y979143D01*
X1153259Y981377D01*
X1151435Y983202D01*
X1149200Y984492D01*
X1146708Y985160D01*
D02*
G37*
G36*
X1102780D02*
X1100200D01*
X1097707Y984492D01*
X1095473Y983202D01*
X1093648Y981377D01*
X1092358Y979143D01*
X1091690Y976650D01*
Y974070D01*
X1092358Y971577D01*
X1093648Y969343D01*
X1095473Y967518D01*
X1097707Y966228D01*
X1100200Y965560D01*
X1102780D01*
X1105273Y966228D01*
X1107507Y967518D01*
X1109332Y969343D01*
X1110622Y971577D01*
X1111290Y974070D01*
Y976650D01*
X1110622Y979143D01*
X1109332Y981377D01*
X1107507Y983202D01*
X1105273Y984492D01*
X1102780Y985160D01*
D02*
G37*
G36*
X848780D02*
X846200D01*
X843707Y984492D01*
X841473Y983202D01*
X839648Y981377D01*
X838358Y979143D01*
X837690Y976650D01*
Y974070D01*
X838358Y971577D01*
X839648Y969343D01*
X841473Y967518D01*
X843707Y966228D01*
X846200Y965560D01*
X848780D01*
X851273Y966228D01*
X853507Y967518D01*
X855332Y969343D01*
X856622Y971577D01*
X857290Y974070D01*
Y976650D01*
X856622Y979143D01*
X855332Y981377D01*
X853507Y983202D01*
X851273Y984492D01*
X848780Y985160D01*
D02*
G37*
G36*
X816508D02*
X813927D01*
X811435Y984492D01*
X809200Y983202D01*
X807376Y981377D01*
X806085Y979143D01*
X805417Y976650D01*
Y974070D01*
X806085Y971577D01*
X807376Y969343D01*
X809200Y967518D01*
X811435Y966228D01*
X813927Y965560D01*
X816508D01*
X819000Y966228D01*
X821235Y967518D01*
X823059Y969343D01*
X824350Y971577D01*
X825017Y974070D01*
Y976650D01*
X824350Y979143D01*
X823059Y981377D01*
X821235Y983202D01*
X819000Y984492D01*
X816508Y985160D01*
D02*
G37*
G36*
X886857Y959580D02*
X884324D01*
X881877Y958924D01*
X879683Y957658D01*
X877892Y955867D01*
X876626Y953673D01*
X875970Y951227D01*
Y948693D01*
X876626Y946247D01*
X877892Y944053D01*
X879683Y942262D01*
X881877Y940996D01*
X884324Y940340D01*
X886857D01*
X889303Y940996D01*
X891497Y942262D01*
X893288Y944053D01*
X894554Y946247D01*
X895210Y948693D01*
Y951227D01*
X894554Y953673D01*
X893288Y955867D01*
X891497Y957658D01*
X889303Y958924D01*
X886857Y959580D01*
D02*
G37*
G36*
X1146708Y959760D02*
X1144127D01*
X1141635Y959092D01*
X1139400Y957802D01*
X1137576Y955977D01*
X1136285Y953743D01*
X1135618Y951250D01*
Y948670D01*
X1136285Y946177D01*
X1137576Y943943D01*
X1139400Y942118D01*
X1141635Y940828D01*
X1144127Y940160D01*
X1146708D01*
X1149200Y940828D01*
X1151435Y942118D01*
X1153259Y943943D01*
X1154550Y946177D01*
X1155218Y948670D01*
Y951250D01*
X1154550Y953743D01*
X1153259Y955977D01*
X1151435Y957802D01*
X1149200Y959092D01*
X1146708Y959760D01*
D02*
G37*
G36*
X1102780D02*
X1100200D01*
X1097707Y959092D01*
X1095473Y957802D01*
X1093648Y955977D01*
X1092358Y953743D01*
X1091690Y951250D01*
Y948670D01*
X1092358Y946177D01*
X1093648Y943943D01*
X1095473Y942118D01*
X1097707Y940828D01*
X1100200Y940160D01*
X1102780D01*
X1105273Y940828D01*
X1107507Y942118D01*
X1109332Y943943D01*
X1110622Y946177D01*
X1111290Y948670D01*
Y951250D01*
X1110622Y953743D01*
X1109332Y955977D01*
X1107507Y957802D01*
X1105273Y959092D01*
X1102780Y959760D01*
D02*
G37*
G36*
X848780D02*
X846200D01*
X843707Y959092D01*
X841473Y957802D01*
X839648Y955977D01*
X838358Y953743D01*
X837690Y951250D01*
Y948670D01*
X838358Y946177D01*
X839648Y943943D01*
X841473Y942118D01*
X843707Y940828D01*
X846200Y940160D01*
X848780D01*
X851273Y940828D01*
X853507Y942118D01*
X855332Y943943D01*
X856622Y946177D01*
X857290Y948670D01*
Y951250D01*
X856622Y953743D01*
X855332Y955977D01*
X853507Y957802D01*
X851273Y959092D01*
X848780Y959760D01*
D02*
G37*
G36*
X816508D02*
X813927D01*
X811435Y959092D01*
X809200Y957802D01*
X807376Y955977D01*
X806085Y953743D01*
X805417Y951250D01*
Y948670D01*
X806085Y946177D01*
X807376Y943943D01*
X809200Y942118D01*
X811435Y940828D01*
X813927Y940160D01*
X816508D01*
X819000Y940828D01*
X821235Y942118D01*
X823059Y943943D01*
X824350Y946177D01*
X825017Y948670D01*
Y951250D01*
X824350Y953743D01*
X823059Y955977D01*
X821235Y957802D01*
X819000Y959092D01*
X816508Y959760D01*
D02*
G37*
G36*
X1146708Y934360D02*
X1144127D01*
X1141635Y933692D01*
X1139400Y932402D01*
X1137576Y930577D01*
X1136285Y928343D01*
X1135618Y925850D01*
Y923270D01*
X1136285Y920777D01*
X1137576Y918543D01*
X1139400Y916718D01*
X1141635Y915428D01*
X1144127Y914760D01*
X1146708D01*
X1149200Y915428D01*
X1151435Y916718D01*
X1153259Y918543D01*
X1154550Y920777D01*
X1155218Y923270D01*
Y925850D01*
X1154550Y928343D01*
X1153259Y930577D01*
X1151435Y932402D01*
X1149200Y933692D01*
X1146708Y934360D01*
D02*
G37*
G36*
X1102780D02*
X1100200D01*
X1097707Y933692D01*
X1095473Y932402D01*
X1093648Y930577D01*
X1092358Y928343D01*
X1091690Y925850D01*
Y923270D01*
X1092358Y920777D01*
X1093648Y918543D01*
X1095473Y916718D01*
X1097707Y915428D01*
X1100200Y914760D01*
X1102780D01*
X1105273Y915428D01*
X1107507Y916718D01*
X1109332Y918543D01*
X1110622Y920777D01*
X1111290Y923270D01*
Y925850D01*
X1110622Y928343D01*
X1109332Y930577D01*
X1107507Y932402D01*
X1105273Y933692D01*
X1102780Y934360D01*
D02*
G37*
G36*
X848780D02*
X846200D01*
X843707Y933692D01*
X841473Y932402D01*
X839648Y930577D01*
X838358Y928343D01*
X837690Y925850D01*
Y923270D01*
X838358Y920777D01*
X839648Y918543D01*
X841473Y916718D01*
X843707Y915428D01*
X846200Y914760D01*
X848780D01*
X851273Y915428D01*
X853507Y916718D01*
X855332Y918543D01*
X856622Y920777D01*
X857290Y923270D01*
Y925850D01*
X856622Y928343D01*
X855332Y930577D01*
X853507Y932402D01*
X851273Y933692D01*
X848780Y934360D01*
D02*
G37*
G36*
X816508D02*
X813927D01*
X811435Y933692D01*
X809200Y932402D01*
X807376Y930577D01*
X806085Y928343D01*
X805417Y925850D01*
Y923270D01*
X806085Y920777D01*
X807376Y918543D01*
X809200Y916718D01*
X811435Y915428D01*
X813927Y914760D01*
X816508D01*
X819000Y915428D01*
X821235Y916718D01*
X823059Y918543D01*
X824350Y920777D01*
X825017Y923270D01*
Y925850D01*
X824350Y928343D01*
X823059Y930577D01*
X821235Y932402D01*
X819000Y933692D01*
X816508Y934360D01*
D02*
G37*
G36*
X816579Y909500D02*
X816487D01*
Y900430D01*
X825557D01*
Y900521D01*
X824853Y903151D01*
X823492Y905509D01*
X821566Y907434D01*
X819209Y908795D01*
X816579Y909500D01*
D02*
G37*
G36*
X848851D02*
X848760D01*
Y900430D01*
X857830D01*
Y900521D01*
X857125Y903151D01*
X855764Y905509D01*
X853839Y907434D01*
X851481Y908795D01*
X848851Y909500D01*
D02*
G37*
G36*
X846220D02*
X846129D01*
X843499Y908795D01*
X841141Y907434D01*
X839216Y905509D01*
X837855Y903151D01*
X837150Y900521D01*
Y900430D01*
X846220D01*
Y909500D01*
D02*
G37*
G36*
X813947D02*
X813856D01*
X811226Y908795D01*
X808869Y907434D01*
X806943Y905509D01*
X805582Y903151D01*
X804877Y900521D01*
Y900430D01*
X813947D01*
Y909500D01*
D02*
G37*
G36*
X1146708Y908960D02*
X1144127D01*
X1141635Y908292D01*
X1139400Y907002D01*
X1137576Y905177D01*
X1136285Y902943D01*
X1135618Y900450D01*
Y897870D01*
X1136285Y895377D01*
X1137576Y893143D01*
X1139400Y891318D01*
X1141635Y890028D01*
X1144127Y889360D01*
X1146708D01*
X1149200Y890028D01*
X1151435Y891318D01*
X1153259Y893143D01*
X1154550Y895377D01*
X1155218Y897870D01*
Y900450D01*
X1154550Y902943D01*
X1153259Y905177D01*
X1151435Y907002D01*
X1149200Y908292D01*
X1146708Y908960D01*
D02*
G37*
G36*
X1102780D02*
X1100200D01*
X1097707Y908292D01*
X1095473Y907002D01*
X1093648Y905177D01*
X1092358Y902943D01*
X1091690Y900450D01*
Y897870D01*
X1092358Y895377D01*
X1093648Y893143D01*
X1095473Y891318D01*
X1097707Y890028D01*
X1100200Y889360D01*
X1102780D01*
X1105273Y890028D01*
X1107507Y891318D01*
X1109332Y893143D01*
X1110622Y895377D01*
X1111290Y897870D01*
Y900450D01*
X1110622Y902943D01*
X1109332Y905177D01*
X1107507Y907002D01*
X1105273Y908292D01*
X1102780Y908960D01*
D02*
G37*
G36*
X857830Y897890D02*
X848760D01*
Y888820D01*
X848851D01*
X851481Y889525D01*
X853839Y890886D01*
X855764Y892811D01*
X857125Y895169D01*
X857830Y897799D01*
Y897890D01*
D02*
G37*
G36*
X846220D02*
X837150D01*
Y897799D01*
X837855Y895169D01*
X839216Y892811D01*
X841141Y890886D01*
X843499Y889525D01*
X846129Y888820D01*
X846220D01*
Y897890D01*
D02*
G37*
G36*
X825557D02*
X816487D01*
Y888820D01*
X816579D01*
X819209Y889525D01*
X821566Y890886D01*
X823492Y892811D01*
X824853Y895169D01*
X825557Y897799D01*
Y897890D01*
D02*
G37*
G36*
X813947D02*
X804877D01*
Y897799D01*
X805582Y895169D01*
X806943Y892811D01*
X808869Y890886D01*
X811226Y889525D01*
X813856Y888820D01*
X813947D01*
Y897890D01*
D02*
G37*
G36*
X1244449Y869554D02*
Y865354D01*
X1248650D01*
X1247876Y867222D01*
X1246318Y868781D01*
X1244449Y869554D01*
D02*
G37*
G36*
X1241909D02*
X1240041Y868781D01*
X1238483Y867222D01*
X1237709Y865354D01*
X1241909D01*
Y869554D01*
D02*
G37*
G36*
X1146708Y883560D02*
X1144127D01*
X1141635Y882892D01*
X1139400Y881602D01*
X1137576Y879777D01*
X1136285Y877543D01*
X1135618Y875050D01*
Y872470D01*
X1136285Y869977D01*
X1137576Y867743D01*
X1139400Y865918D01*
X1141635Y864628D01*
X1144127Y863960D01*
X1146708D01*
X1149200Y864628D01*
X1151435Y865918D01*
X1153259Y867743D01*
X1154550Y869977D01*
X1155218Y872470D01*
Y875050D01*
X1154550Y877543D01*
X1153259Y879777D01*
X1151435Y881602D01*
X1149200Y882892D01*
X1146708Y883560D01*
D02*
G37*
G36*
X1102780D02*
X1100200D01*
X1097707Y882892D01*
X1095473Y881602D01*
X1093648Y879777D01*
X1092358Y877543D01*
X1091690Y875050D01*
Y872470D01*
X1092358Y869977D01*
X1093648Y867743D01*
X1095473Y865918D01*
X1097707Y864628D01*
X1100200Y863960D01*
X1102780D01*
X1105273Y864628D01*
X1107507Y865918D01*
X1109332Y867743D01*
X1110622Y869977D01*
X1111290Y872470D01*
Y875050D01*
X1110622Y877543D01*
X1109332Y879777D01*
X1107507Y881602D01*
X1105273Y882892D01*
X1102780Y883560D01*
D02*
G37*
G36*
X848780D02*
X846200D01*
X843707Y882892D01*
X841473Y881602D01*
X839648Y879777D01*
X838358Y877543D01*
X837690Y875050D01*
Y872470D01*
X838358Y869977D01*
X839648Y867743D01*
X841473Y865918D01*
X843707Y864628D01*
X846200Y863960D01*
X848780D01*
X851273Y864628D01*
X853507Y865918D01*
X855332Y867743D01*
X856622Y869977D01*
X857290Y872470D01*
Y875050D01*
X856622Y877543D01*
X855332Y879777D01*
X853507Y881602D01*
X851273Y882892D01*
X848780Y883560D01*
D02*
G37*
G36*
X816508D02*
X813927D01*
X811435Y882892D01*
X809200Y881602D01*
X807376Y879777D01*
X806085Y877543D01*
X805417Y875050D01*
Y872470D01*
X806085Y869977D01*
X807376Y867743D01*
X809200Y865918D01*
X811435Y864628D01*
X813927Y863960D01*
X816508D01*
X819000Y864628D01*
X821235Y865918D01*
X823059Y867743D01*
X824350Y869977D01*
X825017Y872470D01*
Y875050D01*
X824350Y877543D01*
X823059Y879777D01*
X821235Y881602D01*
X819000Y882892D01*
X816508Y883560D01*
D02*
G37*
G36*
X1248650Y862814D02*
X1244449D01*
Y858614D01*
X1246318Y859387D01*
X1247876Y860946D01*
X1248650Y862814D01*
D02*
G37*
G36*
X1241909D02*
X1237709D01*
X1238483Y860946D01*
X1240041Y859387D01*
X1241909Y858614D01*
Y862814D01*
D02*
G37*
G36*
X1070630Y874670D02*
X1068050D01*
X1065557Y874002D01*
X1063323Y872712D01*
X1061498Y870887D01*
X1060208Y868653D01*
X1059540Y866160D01*
Y863580D01*
X1060208Y861087D01*
X1061498Y858853D01*
X1063323Y857028D01*
X1065557Y855738D01*
X1068050Y855070D01*
X1070630D01*
X1073123Y855738D01*
X1075357Y857028D01*
X1077182Y858853D01*
X1078472Y861087D01*
X1079140Y863580D01*
Y866160D01*
X1078472Y868653D01*
X1077182Y870887D01*
X1075357Y872712D01*
X1073123Y874002D01*
X1070630Y874670D01*
D02*
G37*
G36*
X1146708Y858160D02*
X1144127D01*
X1141635Y857492D01*
X1139400Y856202D01*
X1137576Y854377D01*
X1136285Y852143D01*
X1135618Y849650D01*
Y847070D01*
X1136285Y844577D01*
X1137576Y842343D01*
X1139400Y840518D01*
X1141635Y839228D01*
X1144127Y838560D01*
X1146708D01*
X1149200Y839228D01*
X1151435Y840518D01*
X1153259Y842343D01*
X1154550Y844577D01*
X1155218Y847070D01*
Y849650D01*
X1154550Y852143D01*
X1153259Y854377D01*
X1151435Y856202D01*
X1149200Y857492D01*
X1146708Y858160D01*
D02*
G37*
G36*
X1102780D02*
X1100200D01*
X1097707Y857492D01*
X1095473Y856202D01*
X1093648Y854377D01*
X1092358Y852143D01*
X1091690Y849650D01*
Y847070D01*
X1092358Y844577D01*
X1093648Y842343D01*
X1095473Y840518D01*
X1097707Y839228D01*
X1100200Y838560D01*
X1102780D01*
X1105273Y839228D01*
X1107507Y840518D01*
X1109332Y842343D01*
X1110622Y844577D01*
X1111290Y847070D01*
Y849650D01*
X1110622Y852143D01*
X1109332Y854377D01*
X1107507Y856202D01*
X1105273Y857492D01*
X1102780Y858160D01*
D02*
G37*
G36*
X887750D02*
X885170D01*
X882677Y857492D01*
X880443Y856202D01*
X878618Y854377D01*
X877328Y852143D01*
X876660Y849650D01*
Y847070D01*
X877328Y844577D01*
X878618Y842343D01*
X880443Y840518D01*
X882677Y839228D01*
X885170Y838560D01*
X887750D01*
X890243Y839228D01*
X892477Y840518D01*
X894302Y842343D01*
X895592Y844577D01*
X896260Y847070D01*
Y849650D01*
X895592Y852143D01*
X894302Y854377D01*
X892477Y856202D01*
X890243Y857492D01*
X887750Y858160D01*
D02*
G37*
G36*
X848780D02*
X846200D01*
X843707Y857492D01*
X841473Y856202D01*
X839648Y854377D01*
X838358Y852143D01*
X837690Y849650D01*
Y847070D01*
X838358Y844577D01*
X839648Y842343D01*
X841473Y840518D01*
X843707Y839228D01*
X846200Y838560D01*
X848780D01*
X851273Y839228D01*
X853507Y840518D01*
X855332Y842343D01*
X856622Y844577D01*
X857290Y847070D01*
Y849650D01*
X856622Y852143D01*
X855332Y854377D01*
X853507Y856202D01*
X851273Y857492D01*
X848780Y858160D01*
D02*
G37*
G36*
X816508D02*
X813927D01*
X811435Y857492D01*
X809200Y856202D01*
X807376Y854377D01*
X806085Y852143D01*
X805417Y849650D01*
Y847070D01*
X806085Y844577D01*
X807376Y842343D01*
X809200Y840518D01*
X811435Y839228D01*
X813927Y838560D01*
X816508D01*
X819000Y839228D01*
X821235Y840518D01*
X823059Y842343D01*
X824350Y844577D01*
X825017Y847070D01*
Y849650D01*
X824350Y852143D01*
X823059Y854377D01*
X821235Y856202D01*
X819000Y857492D01*
X816508Y858160D01*
D02*
G37*
G36*
X1069360Y850540D02*
X1066780D01*
X1064287Y849872D01*
X1062053Y848582D01*
X1060228Y846757D01*
X1058938Y844523D01*
X1058270Y842030D01*
Y839450D01*
X1058938Y836957D01*
X1060228Y834723D01*
X1062053Y832898D01*
X1064287Y831608D01*
X1066780Y830940D01*
X1069360D01*
X1071853Y831608D01*
X1074087Y832898D01*
X1075912Y834723D01*
X1077202Y836957D01*
X1077870Y839450D01*
Y842030D01*
X1077202Y844523D01*
X1075912Y846757D01*
X1074087Y848582D01*
X1071853Y849872D01*
X1069360Y850540D01*
D02*
G37*
G36*
X1146708Y832760D02*
X1144127D01*
X1141635Y832092D01*
X1139400Y830802D01*
X1137576Y828977D01*
X1136285Y826743D01*
X1135618Y824250D01*
Y821670D01*
X1136285Y819177D01*
X1137576Y816943D01*
X1139400Y815118D01*
X1141635Y813828D01*
X1144127Y813160D01*
X1146708D01*
X1149200Y813828D01*
X1151435Y815118D01*
X1153259Y816943D01*
X1154550Y819177D01*
X1155218Y821670D01*
Y824250D01*
X1154550Y826743D01*
X1153259Y828977D01*
X1151435Y830802D01*
X1149200Y832092D01*
X1146708Y832760D01*
D02*
G37*
G36*
X1102780D02*
X1100200D01*
X1097707Y832092D01*
X1095473Y830802D01*
X1093648Y828977D01*
X1092358Y826743D01*
X1091690Y824250D01*
Y821670D01*
X1092358Y819177D01*
X1093648Y816943D01*
X1095473Y815118D01*
X1097707Y813828D01*
X1100200Y813160D01*
X1102780D01*
X1105273Y813828D01*
X1107507Y815118D01*
X1109332Y816943D01*
X1110622Y819177D01*
X1111290Y821670D01*
Y824250D01*
X1110622Y826743D01*
X1109332Y828977D01*
X1107507Y830802D01*
X1105273Y832092D01*
X1102780Y832760D01*
D02*
G37*
G36*
X887750D02*
X885170D01*
X882677Y832092D01*
X880443Y830802D01*
X878618Y828977D01*
X877328Y826743D01*
X876660Y824250D01*
Y821670D01*
X877328Y819177D01*
X878618Y816943D01*
X880443Y815118D01*
X882677Y813828D01*
X885170Y813160D01*
X887750D01*
X890243Y813828D01*
X892477Y815118D01*
X894302Y816943D01*
X895592Y819177D01*
X896260Y821670D01*
Y824250D01*
X895592Y826743D01*
X894302Y828977D01*
X892477Y830802D01*
X890243Y832092D01*
X887750Y832760D01*
D02*
G37*
G36*
X848780D02*
X846200D01*
X843707Y832092D01*
X841473Y830802D01*
X839648Y828977D01*
X838358Y826743D01*
X837690Y824250D01*
Y821670D01*
X838358Y819177D01*
X839648Y816943D01*
X841473Y815118D01*
X843707Y813828D01*
X846200Y813160D01*
X848780D01*
X851273Y813828D01*
X853507Y815118D01*
X855332Y816943D01*
X856622Y819177D01*
X857290Y821670D01*
Y824250D01*
X856622Y826743D01*
X855332Y828977D01*
X853507Y830802D01*
X851273Y832092D01*
X848780Y832760D01*
D02*
G37*
G36*
X816508D02*
X813927D01*
X811435Y832092D01*
X809200Y830802D01*
X807376Y828977D01*
X806085Y826743D01*
X805417Y824250D01*
Y821670D01*
X806085Y819177D01*
X807376Y816943D01*
X809200Y815118D01*
X811435Y813828D01*
X813927Y813160D01*
X816508D01*
X819000Y813828D01*
X821235Y815118D01*
X823059Y816943D01*
X824350Y819177D01*
X825017Y821670D01*
Y824250D01*
X824350Y826743D01*
X823059Y828977D01*
X821235Y830802D01*
X819000Y832092D01*
X816508Y832760D01*
D02*
G37*
G36*
X1146708Y807360D02*
X1144127D01*
X1141635Y806692D01*
X1139400Y805402D01*
X1137576Y803577D01*
X1136285Y801343D01*
X1135618Y798850D01*
Y796270D01*
X1136285Y793777D01*
X1137576Y791543D01*
X1139400Y789718D01*
X1141635Y788428D01*
X1144127Y787760D01*
X1146708D01*
X1149200Y788428D01*
X1151435Y789718D01*
X1153259Y791543D01*
X1154550Y793777D01*
X1155218Y796270D01*
Y798850D01*
X1154550Y801343D01*
X1153259Y803577D01*
X1151435Y805402D01*
X1149200Y806692D01*
X1146708Y807360D01*
D02*
G37*
G36*
X1102780D02*
X1100200D01*
X1097707Y806692D01*
X1095473Y805402D01*
X1093648Y803577D01*
X1092358Y801343D01*
X1091690Y798850D01*
Y796270D01*
X1092358Y793777D01*
X1093648Y791543D01*
X1095473Y789718D01*
X1097707Y788428D01*
X1100200Y787760D01*
X1102780D01*
X1105273Y788428D01*
X1107507Y789718D01*
X1109332Y791543D01*
X1110622Y793777D01*
X1111290Y796270D01*
Y798850D01*
X1110622Y801343D01*
X1109332Y803577D01*
X1107507Y805402D01*
X1105273Y806692D01*
X1102780Y807360D01*
D02*
G37*
G36*
X887750D02*
X885170D01*
X882677Y806692D01*
X880443Y805402D01*
X878618Y803577D01*
X877328Y801343D01*
X876660Y798850D01*
Y796270D01*
X877328Y793777D01*
X878618Y791543D01*
X880443Y789718D01*
X882677Y788428D01*
X885170Y787760D01*
X887750D01*
X890243Y788428D01*
X892477Y789718D01*
X894302Y791543D01*
X895592Y793777D01*
X896260Y796270D01*
Y798850D01*
X895592Y801343D01*
X894302Y803577D01*
X892477Y805402D01*
X890243Y806692D01*
X887750Y807360D01*
D02*
G37*
G36*
X848780D02*
X846200D01*
X843707Y806692D01*
X841473Y805402D01*
X839648Y803577D01*
X838358Y801343D01*
X837690Y798850D01*
Y796270D01*
X838358Y793777D01*
X839648Y791543D01*
X841473Y789718D01*
X843707Y788428D01*
X846200Y787760D01*
X848780D01*
X851273Y788428D01*
X853507Y789718D01*
X855332Y791543D01*
X856622Y793777D01*
X857290Y796270D01*
Y798850D01*
X856622Y801343D01*
X855332Y803577D01*
X853507Y805402D01*
X851273Y806692D01*
X848780Y807360D01*
D02*
G37*
G36*
X816508D02*
X813927D01*
X811435Y806692D01*
X809200Y805402D01*
X807376Y803577D01*
X806085Y801343D01*
X805417Y798850D01*
Y796270D01*
X806085Y793777D01*
X807376Y791543D01*
X809200Y789718D01*
X811435Y788428D01*
X813927Y787760D01*
X816508D01*
X819000Y788428D01*
X821235Y789718D01*
X823059Y791543D01*
X824350Y793777D01*
X825017Y796270D01*
Y798850D01*
X824350Y801343D01*
X823059Y803577D01*
X821235Y805402D01*
X819000Y806692D01*
X816508Y807360D01*
D02*
G37*
G36*
X1146708Y781960D02*
X1144127D01*
X1141635Y781292D01*
X1139400Y780002D01*
X1137576Y778177D01*
X1136285Y775943D01*
X1135618Y773450D01*
Y770870D01*
X1136285Y768377D01*
X1137576Y766143D01*
X1139400Y764318D01*
X1141635Y763028D01*
X1144127Y762360D01*
X1146708D01*
X1149200Y763028D01*
X1151435Y764318D01*
X1153259Y766143D01*
X1154550Y768377D01*
X1155218Y770870D01*
Y773450D01*
X1154550Y775943D01*
X1153259Y778177D01*
X1151435Y780002D01*
X1149200Y781292D01*
X1146708Y781960D01*
D02*
G37*
G36*
X1102780D02*
X1100200D01*
X1097707Y781292D01*
X1095473Y780002D01*
X1093648Y778177D01*
X1092358Y775943D01*
X1091690Y773450D01*
Y770870D01*
X1092358Y768377D01*
X1093648Y766143D01*
X1095473Y764318D01*
X1097707Y763028D01*
X1100200Y762360D01*
X1102780D01*
X1105273Y763028D01*
X1107507Y764318D01*
X1109332Y766143D01*
X1110622Y768377D01*
X1111290Y770870D01*
Y773450D01*
X1110622Y775943D01*
X1109332Y778177D01*
X1107507Y780002D01*
X1105273Y781292D01*
X1102780Y781960D01*
D02*
G37*
G36*
X848780D02*
X846200D01*
X843707Y781292D01*
X841473Y780002D01*
X839648Y778177D01*
X838358Y775943D01*
X837690Y773450D01*
Y770870D01*
X838358Y768377D01*
X839648Y766143D01*
X841473Y764318D01*
X843707Y763028D01*
X846200Y762360D01*
X848780D01*
X851273Y763028D01*
X853507Y764318D01*
X855332Y766143D01*
X856622Y768377D01*
X857290Y770870D01*
Y773450D01*
X856622Y775943D01*
X855332Y778177D01*
X853507Y780002D01*
X851273Y781292D01*
X848780Y781960D01*
D02*
G37*
G36*
X816508D02*
X813927D01*
X811435Y781292D01*
X809200Y780002D01*
X807376Y778177D01*
X806085Y775943D01*
X805417Y773450D01*
Y770870D01*
X806085Y768377D01*
X807376Y766143D01*
X809200Y764318D01*
X811435Y763028D01*
X813927Y762360D01*
X816508D01*
X819000Y763028D01*
X821235Y764318D01*
X823059Y766143D01*
X824350Y768377D01*
X825017Y770870D01*
Y773450D01*
X824350Y775943D01*
X823059Y778177D01*
X821235Y780002D01*
X819000Y781292D01*
X816508Y781960D01*
D02*
G37*
%LPD*%
G36*
X1074032Y1153936D02*
Y1068690D01*
X1066127Y1060786D01*
X1064657Y1061180D01*
X1062123D01*
X1059677Y1060524D01*
X1057483Y1059258D01*
X1056628Y1058403D01*
X1055358Y1058929D01*
Y1144429D01*
X1062936Y1152007D01*
X1064530Y1151580D01*
X1067110D01*
X1069603Y1152248D01*
X1071837Y1153538D01*
X1072762Y1154463D01*
X1074032Y1153936D01*
D02*
G37*
D32*
X713500Y1171250D02*
X714000Y1171750D01*
X753500D01*
X885480Y1161380D02*
X885780Y1161080D01*
X1050770Y1038780D02*
Y1146330D01*
Y1038780D02*
X1063390Y1026160D01*
X1050770Y1146330D02*
X1065820Y1161380D01*
X1065520Y1186480D02*
X1065820Y1186780D01*
X1078620Y1066790D02*
Y1173980D01*
X1063390Y1051560D02*
X1078620Y1066790D01*
X1065820Y1186780D02*
X1078620Y1173980D01*
D36*
X886460Y797560D02*
D03*
Y822960D02*
D03*
Y848360D02*
D03*
X815218Y772160D02*
D03*
Y797560D02*
D03*
X1145417Y772160D02*
D03*
X815218Y822960D02*
D03*
X1145417Y797560D02*
D03*
X815218Y848360D02*
D03*
X1145417Y822960D02*
D03*
X815218Y873760D02*
D03*
X1145417Y848360D02*
D03*
X815218Y899160D02*
D03*
X1145417Y873760D02*
D03*
X815218Y924560D02*
D03*
X1145417Y899160D02*
D03*
X815218Y949960D02*
D03*
X1145417Y924560D02*
D03*
X815218Y975360D02*
D03*
X1145417Y949960D02*
D03*
X815218Y1000760D02*
D03*
X1145417Y975360D02*
D03*
X815218Y1026160D02*
D03*
X1145417Y1000760D02*
D03*
X815218Y1051560D02*
D03*
X1145417Y1026160D02*
D03*
X815218Y1076960D02*
D03*
X1145417Y1051560D02*
D03*
X815218Y1102360D02*
D03*
X1145417Y1076960D02*
D03*
X815218Y1127760D02*
D03*
X1145417Y1102360D02*
D03*
X815218Y1153160D02*
D03*
X1145417Y1127760D02*
D03*
X815218Y1178560D02*
D03*
X1145417Y1153160D02*
D03*
X815218Y1203960D02*
D03*
X1145417Y1178560D02*
D03*
X815218Y1229360D02*
D03*
X1145417D02*
D03*
Y1203960D02*
D03*
X1101490Y1076960D02*
D03*
Y1229360D02*
D03*
X847490Y822960D02*
D03*
Y848360D02*
D03*
Y873760D02*
D03*
Y899160D02*
D03*
Y924560D02*
D03*
Y949960D02*
D03*
Y975360D02*
D03*
Y772160D02*
D03*
Y797560D02*
D03*
X1101490Y772160D02*
D03*
Y797560D02*
D03*
Y822960D02*
D03*
Y848360D02*
D03*
Y873760D02*
D03*
Y899160D02*
D03*
Y924560D02*
D03*
Y949960D02*
D03*
X847490Y1000760D02*
D03*
X1101490Y975360D02*
D03*
X847490Y1026160D02*
D03*
X1101490Y1000760D02*
D03*
X847490Y1051560D02*
D03*
X1101490Y1026160D02*
D03*
X847490Y1076960D02*
D03*
X1101490Y1051560D02*
D03*
X847490Y1102360D02*
D03*
Y1127760D02*
D03*
X1101490Y1102360D02*
D03*
X847490Y1153160D02*
D03*
X1101490Y1127760D02*
D03*
X847490Y1178560D02*
D03*
X1101490Y1153160D02*
D03*
X847490Y1203960D02*
D03*
X1101490Y1178560D02*
D03*
Y1203960D02*
D03*
X1068070Y840740D02*
D03*
X1069340Y864870D02*
D03*
X885480Y1161380D02*
D03*
X1065820D02*
D03*
Y1186780D02*
D03*
D37*
X885590Y1026160D02*
D03*
Y1076960D02*
D03*
X1063390Y1051560D02*
D03*
Y1026160D02*
D03*
X885590Y1051560D02*
D03*
X1063390Y1000760D02*
D03*
Y975360D02*
D03*
X885590Y949960D02*
D03*
Y975360D02*
D03*
Y1000760D02*
D03*
D38*
X847490Y1229360D02*
D03*
D39*
X667050Y1002650D02*
D03*
Y951850D02*
D03*
X679750D02*
D03*
X667050Y964550D02*
D03*
X679750D02*
D03*
X667050Y977250D02*
D03*
X679750D02*
D03*
X667050Y989950D02*
D03*
X679750D02*
D03*
Y1002650D02*
D03*
D40*
X675000Y1081250D02*
D03*
X1237250Y1129750D02*
D03*
X1066800Y718820D02*
D03*
D41*
X724250Y1099250D02*
D03*
X724000Y1202500D02*
D03*
D42*
X713500Y1171250D02*
D03*
X753500Y1171750D02*
D03*
X1243179Y864084D02*
D03*
M02*
