G04*
G04 #@! TF.GenerationSoftware,Altium Limited,Altium Designer,21.2.0 (30)*
G04*
G04 Layer_Color=8421504*
%FSLAX44Y44*%
%MOMM*%
G71*
G04*
G04 #@! TF.SameCoordinates,FC8C7DE9-18AC-4A15-B1D3-151ED5954E14*
G04*
G04*
G04 #@! TF.FilePolarity,Positive*
G04*
G01*
G75*
%ADD14R,0.9000X0.6000*%
%ADD15R,0.6000X0.8000*%
%ADD16R,0.6000X0.9000*%
%ADD17R,0.5080X0.9977*%
%ADD18R,0.9000X1.3000*%
D14*
X1186180Y1067950D02*
D03*
Y1052950D02*
D03*
X698000Y1000750D02*
D03*
Y985750D02*
D03*
D15*
X1247534Y925429D02*
D03*
X1233034D02*
D03*
X1247534Y946300D02*
D03*
X1233034D02*
D03*
X1247534Y883687D02*
D03*
X1233034D02*
D03*
X1247534Y904558D02*
D03*
X1233034D02*
D03*
X1247534Y967170D02*
D03*
X1233034D02*
D03*
D16*
X1204000Y967240D02*
D03*
X1219000D02*
D03*
X1204000Y883757D02*
D03*
X1219000D02*
D03*
X1204000Y904628D02*
D03*
X1219000D02*
D03*
X1204000Y946369D02*
D03*
X1219000D02*
D03*
X1204000Y925499D02*
D03*
X1219000D02*
D03*
D17*
X741680Y1135725D02*
D03*
X722680D02*
D03*
Y1163229D02*
D03*
X732180D02*
D03*
X741680D02*
D03*
D18*
Y1116345D02*
D03*
X722680D02*
D03*
X727500Y1187000D02*
D03*
X746500D02*
D03*
M02*
