G04*
G04 #@! TF.GenerationSoftware,Altium Limited,Altium Designer,21.2.0 (30)*
G04*
G04 Layer_Color=16711935*
%FSLAX25Y25*%
%MOIN*%
G70*
G04*
G04 #@! TF.SameCoordinates,F6623EA8-E50E-48A9-B40B-32A5B5D900BF*
G04*
G04*
G04 #@! TF.FilePolarity,Positive*
G04*
G01*
G75*
%ADD44C,0.00394*%
D44*
X521295Y399000D02*
X521292Y400000D01*
X521281Y400999D01*
X521263Y401999D01*
X521237Y402998D01*
X521205Y403998D01*
X521165Y404997D01*
X521118Y405995D01*
X521063Y406994D01*
X521002Y407992D01*
X520933Y408989D01*
X520857Y409986D01*
X520773Y410982D01*
X520683Y411978D01*
X520585Y412973D01*
X520480Y413967D01*
X520368Y414960D01*
X520248Y415953D01*
X520122Y416945D01*
X519988Y417935D01*
X519847Y418925D01*
X519699Y419914D01*
X519544Y420901D01*
X519381Y421888D01*
X519211Y422873D01*
X519035Y423857D01*
X518851Y424840D01*
X518660Y425821D01*
X518462Y426801D01*
X518256Y427780D01*
X518044Y428757D01*
X517825Y429732D01*
X517598Y430706D01*
X517365Y431678D01*
X517124Y432648D01*
X516876Y433617D01*
X516622Y434584D01*
X516360Y435548D01*
X516091Y436512D01*
X515816Y437472D01*
X515533Y438432D01*
X515243Y439388D01*
X514947Y440343D01*
X514643Y441296D01*
X514333Y442246D01*
X514016Y443194D01*
X513692Y444140D01*
X513361Y445083D01*
X513023Y446024D01*
X512679Y446963D01*
X512327Y447899D01*
X511969Y448832D01*
X511604Y449763D01*
X511232Y450691D01*
X510854Y451616D01*
X510469Y452539D01*
X510077Y453459D01*
X509679Y454376D01*
X509274Y455290D01*
X508862Y456201D01*
X508443Y457109D01*
X508019Y458014D01*
X507587Y458916D01*
X507149Y459815D01*
X506705Y460710D01*
X506254Y461602D01*
X505796Y462491D01*
X505333Y463377D01*
X504862Y464259D01*
X504386Y465138D01*
X503902Y466013D01*
X503413Y466885D01*
X502917Y467753D01*
X502415Y468618D01*
X501907Y469479D01*
X501393Y470336D01*
X500872Y471190D01*
X500345Y472039D01*
X499812Y472885D01*
X499273Y473727D01*
X498728Y474565D01*
X498177Y475399D01*
X497619Y476229D01*
X497056Y477055D01*
X496487Y477877D01*
X495911Y478694D01*
X495330Y479508D01*
X494743Y480317D01*
X494150Y481122D01*
X493552Y481923D01*
X492947Y482719D01*
X492337Y483511D01*
X491721Y484298D01*
X491099Y485081D01*
X490472Y485860D01*
X489839Y486634D01*
X489200Y487403D01*
X488556Y488167D01*
X487906Y488927D01*
X487251Y489682D01*
X486590Y490433D01*
X485924Y491178D01*
X485253Y491919D01*
X484576Y492655D01*
X483894Y493386D01*
X483206Y494111D01*
X482514Y494832D01*
X481816Y495548D01*
X481113Y496259D01*
X480404Y496965D01*
X479691Y497665D01*
X478973Y498360D01*
X478249Y499051D01*
X477521Y499735D01*
X476788Y500415D01*
X476049Y501089D01*
X475306Y501758D01*
X474558Y502421D01*
X473806Y503079D01*
X473048Y503732D01*
X472286Y504379D01*
X471519Y505020D01*
X470747Y505656D01*
X469971Y506286D01*
X469191Y506911D01*
X468405Y507529D01*
X467616Y508143D01*
X466822Y508750D01*
X466023Y509352D01*
X465220Y509947D01*
X464413Y510537D01*
X463602Y511122D01*
X462786Y511700D01*
X461967Y512272D01*
X461143Y512838D01*
X460315Y513399D01*
X459483Y513953D01*
X458647Y514501D01*
X457807Y515043D01*
X456963Y515579D01*
X456115Y516109D01*
X455263Y516633D01*
X454408Y517151D01*
X453549Y517662D01*
X452686Y518167D01*
X451820Y518666D01*
X450950Y519159D01*
X450076Y519645D01*
X449199Y520125D01*
X448319Y520598D01*
X447435Y521065D01*
X446547Y521526D01*
X445657Y521980D01*
X444763Y522428D01*
X443866Y522869D01*
X442966Y523304D01*
X442062Y523732D01*
X441155Y524153D01*
X440246Y524568D01*
X439333Y524977D01*
X438418Y525379D01*
X437500Y525774D01*
X436578Y526162D01*
X435654Y526544D01*
X434728Y526919D01*
X433798Y527287D01*
X432866Y527649D01*
X431931Y528004D01*
X430994Y528352D01*
X430055Y528693D01*
X429112Y529027D01*
X428168Y529355D01*
X427221Y529675D01*
X426271Y529989D01*
X425320Y530296D01*
X424366Y530596D01*
X423411Y530889D01*
X422452Y531175D01*
X421492Y531454D01*
X420531Y531726D01*
X419567Y531991D01*
X418601Y532250D01*
X417633Y532501D01*
X416664Y532745D01*
X415692Y532982D01*
X414719Y533212D01*
X413745Y533435D01*
X412769Y533651D01*
X411791Y533860D01*
X410812Y534061D01*
X409831Y534256D01*
X408849Y534444D01*
X407866Y534624D01*
X406881Y534797D01*
X405895Y534963D01*
X404908Y535122D01*
X403920Y535274D01*
X402931Y535418D01*
X401940Y535556D01*
X400949Y535686D01*
X399957Y535809D01*
X398964Y535925D01*
X397970Y536033D01*
X396976Y536135D01*
X395980Y536229D01*
X394984Y536316D01*
X393988Y536396D01*
X392991Y536468D01*
X391993Y536533D01*
X390995Y536591D01*
X389997Y536642D01*
X388998Y536686D01*
X387999Y536722D01*
X386999Y536751D01*
X386000Y536773D01*
X385000Y536787D01*
X384000Y536794D01*
X383001Y536794D01*
X382001Y536787D01*
X381001Y536773D01*
X380002Y536751D01*
X379002Y536722D01*
X378003Y536686D01*
X377005Y536642D01*
X376006Y536591D01*
X375008Y536533D01*
X374010Y536468D01*
X373013Y536396D01*
X372017Y536316D01*
X371021Y536229D01*
X370025Y536135D01*
X369031Y536033D01*
X368037Y535925D01*
X367044Y535809D01*
X366052Y535686D01*
X365060Y535556D01*
X364070Y535419D01*
X363081Y535274D01*
X362093Y535122D01*
X361106Y534963D01*
X360120Y534797D01*
X359135Y534624D01*
X358152Y534444D01*
X357170Y534256D01*
X356189Y534062D01*
X355210Y533860D01*
X354232Y533651D01*
X353256Y533435D01*
X352282Y533212D01*
X351309Y532982D01*
X350337Y532745D01*
X349368Y532501D01*
X348400Y532250D01*
X347434Y531992D01*
X346470Y531727D01*
X345508Y531454D01*
X344548Y531175D01*
X343590Y530889D01*
X342635Y530596D01*
X341681Y530296D01*
X340729Y529989D01*
X339780Y529676D01*
X338833Y529355D01*
X337889Y529028D01*
X336947Y528693D01*
X336007Y528352D01*
X335069Y528004D01*
X334135Y527649D01*
X333203Y527288D01*
X332273Y526919D01*
X331347Y526544D01*
X330422Y526163D01*
X329501Y525774D01*
X328583Y525379D01*
X327667Y524977D01*
X326755Y524569D01*
X325845Y524154D01*
X324939Y523732D01*
X324035Y523304D01*
X323135Y522869D01*
X322238Y522428D01*
X321344Y521980D01*
X320454Y521526D01*
X319566Y521066D01*
X318682Y520599D01*
X317802Y520125D01*
X316925Y519645D01*
X316051Y519159D01*
X315181Y518666D01*
X314315Y518168D01*
X313452Y517662D01*
X312593Y517151D01*
X311737Y516634D01*
X310886Y516110D01*
X310038Y515580D01*
X309194Y515044D01*
X308354Y514502D01*
X307518Y513953D01*
X306686Y513399D01*
X305858Y512839D01*
X305034Y512273D01*
X304215Y511700D01*
X303399Y511122D01*
X302588Y510538D01*
X301780Y509948D01*
X300978Y509352D01*
X300179Y508750D01*
X299385Y508143D01*
X298595Y507530D01*
X297810Y506911D01*
X297029Y506286D01*
X296253Y505656D01*
X295482Y505021D01*
X294715Y504379D01*
X293953Y503732D01*
X293195Y503080D01*
X292442Y502422D01*
X291694Y501758D01*
X290951Y501089D01*
X290213Y500415D01*
X289480Y499736D01*
X288751Y499051D01*
X288028Y498361D01*
X287309Y497666D01*
X286596Y496965D01*
X285888Y496259D01*
X285185Y495549D01*
X284487Y494833D01*
X283794Y494112D01*
X283107Y493386D01*
X282424Y492655D01*
X281748Y491919D01*
X281076Y491179D01*
X280410Y490433D01*
X279749Y489683D01*
X279094Y488928D01*
X278445Y488168D01*
X277800Y487403D01*
X277162Y486634D01*
X276529Y485860D01*
X275901Y485082D01*
X275279Y484299D01*
X274663Y483511D01*
X274053Y482719D01*
X273449Y481923D01*
X272850Y481122D01*
X272257Y480317D01*
X271670Y479508D01*
X271089Y478695D01*
X270514Y477877D01*
X269944Y477055D01*
X269381Y476229D01*
X268824Y475399D01*
X268272Y474565D01*
X267727Y473727D01*
X267188Y472885D01*
X266655Y472039D01*
X266128Y471190D01*
X265607Y470336D01*
X265093Y469479D01*
X264585Y468618D01*
X264083Y467753D01*
X263587Y466885D01*
X263098Y466013D01*
X262614Y465138D01*
X262138Y464259D01*
X261667Y463377D01*
X261204Y462491D01*
X260746Y461602D01*
X260295Y460710D01*
X259851Y459814D01*
X259413Y458916D01*
X258981Y458014D01*
X258556Y457109D01*
X258138Y456201D01*
X257726Y455290D01*
X257321Y454376D01*
X256923Y453459D01*
X256531Y452539D01*
X256146Y451616D01*
X255767Y450691D01*
X255396Y449763D01*
X255031Y448832D01*
X254673Y447899D01*
X254321Y446963D01*
X253977Y446024D01*
X253639Y445083D01*
X253308Y444140D01*
X252984Y443194D01*
X252667Y442246D01*
X252356Y441295D01*
X252053Y440343D01*
X251757Y439388D01*
X251467Y438431D01*
X251184Y437472D01*
X250909Y436511D01*
X250640Y435548D01*
X250378Y434583D01*
X250124Y433616D01*
X249876Y432648D01*
X249635Y431677D01*
X249402Y430705D01*
X249175Y429731D01*
X248956Y428756D01*
X248744Y427779D01*
X248538Y426801D01*
X248340Y425821D01*
X248149Y424839D01*
X247965Y423857D01*
X247788Y422873D01*
X247619Y421887D01*
X247456Y420901D01*
X247301Y419913D01*
X247153Y418924D01*
X247012Y417935D01*
X246878Y416944D01*
X246751Y415952D01*
X246632Y414959D01*
X246520Y413966D01*
X246415Y412972D01*
X246317Y411977D01*
X246227Y410981D01*
X246143Y409985D01*
X246067Y408988D01*
X245998Y407991D01*
X245937Y406993D01*
X245882Y405994D01*
X245835Y404996D01*
X245795Y403997D01*
X245763Y402998D01*
X245737Y401998D01*
X245719Y400998D01*
X245708Y399999D01*
X245705Y398999D01*
X245708Y397999D01*
X245719Y397000D01*
X245737Y396000D01*
X245763Y395001D01*
X245795Y394001D01*
X245835Y393002D01*
X245883Y392004D01*
X245937Y391005D01*
X245999Y390007D01*
X246067Y389010D01*
X246143Y388013D01*
X246227Y387017D01*
X246317Y386021D01*
X246415Y385026D01*
X246520Y384032D01*
X246632Y383038D01*
X246752Y382046D01*
X246878Y381054D01*
X247012Y380063D01*
X247153Y379074D01*
X247301Y378085D01*
X247457Y377097D01*
X247619Y376111D01*
X247789Y375126D01*
X247966Y374142D01*
X248149Y373159D01*
X248341Y372177D01*
X248539Y371198D01*
X248744Y370219D01*
X248956Y369242D01*
X249176Y368267D01*
X249402Y367293D01*
X249636Y366321D01*
X249876Y365350D01*
X250124Y364382D01*
X250379Y363415D01*
X250641Y362450D01*
X250909Y361487D01*
X251185Y360526D01*
X251467Y359567D01*
X251757Y358610D01*
X252054Y357655D01*
X252357Y356703D01*
X252667Y355752D01*
X252985Y354804D01*
X253309Y353858D01*
X253640Y352915D01*
X253977Y351974D01*
X254322Y351035D01*
X254673Y350100D01*
X255032Y349166D01*
X255397Y348235D01*
X255768Y347307D01*
X256147Y346382D01*
X256532Y345459D01*
X256924Y344539D01*
X257322Y343622D01*
X257727Y342708D01*
X258139Y341797D01*
X258557Y340889D01*
X258982Y339984D01*
X259414Y339083D01*
X259852Y338184D01*
X260296Y337288D01*
X260747Y336396D01*
X261205Y335507D01*
X261668Y334621D01*
X262139Y333739D01*
X262615Y332860D01*
X263099Y331985D01*
X263588Y331113D01*
X264084Y330245D01*
X264586Y329380D01*
X265094Y328519D01*
X265608Y327662D01*
X266129Y326809D01*
X266656Y325959D01*
X267189Y325113D01*
X267728Y324271D01*
X268273Y323433D01*
X268825Y322599D01*
X269382Y321769D01*
X269945Y320943D01*
X270515Y320121D01*
X271090Y319304D01*
X271671Y318490D01*
X272258Y317681D01*
X272851Y316876D01*
X273450Y316075D01*
X274054Y315279D01*
X274665Y314487D01*
X275281Y313700D01*
X275903Y312917D01*
X276530Y312138D01*
X277163Y311365D01*
X277801Y310595D01*
X278446Y309831D01*
X279096Y309071D01*
X279751Y308316D01*
X280411Y307565D01*
X281078Y306820D01*
X281749Y306079D01*
X282426Y305343D01*
X283108Y304612D01*
X283795Y303887D01*
X284488Y303166D01*
X285186Y302450D01*
X285889Y301739D01*
X286597Y301033D01*
X287311Y300333D01*
X288029Y299638D01*
X288753Y298948D01*
X289481Y298263D01*
X290214Y297583D01*
X290953Y296909D01*
X291696Y296240D01*
X292444Y295577D01*
X293197Y294919D01*
X293954Y294267D01*
X294716Y293620D01*
X295483Y292978D01*
X296255Y292342D01*
X297031Y291712D01*
X297812Y291088D01*
X298597Y290469D01*
X299387Y289856D01*
X300181Y289248D01*
X300979Y288647D01*
X301782Y288051D01*
X302589Y287461D01*
X303401Y286877D01*
X304216Y286298D01*
X305036Y285726D01*
X305860Y285160D01*
X306688Y284600D01*
X307520Y284045D01*
X308356Y283497D01*
X309196Y282955D01*
X310040Y282419D01*
X310888Y281889D01*
X311739Y281365D01*
X312595Y280848D01*
X313454Y280336D01*
X314317Y279831D01*
X315183Y279332D01*
X316053Y278840D01*
X316927Y278354D01*
X317804Y277874D01*
X318684Y277400D01*
X319568Y276933D01*
X320456Y276473D01*
X321346Y276019D01*
X322240Y275571D01*
X323137Y275130D01*
X324038Y274695D01*
X324941Y274267D01*
X325848Y273845D01*
X326757Y273430D01*
X327670Y273022D01*
X328585Y272620D01*
X329504Y272225D01*
X330425Y271836D01*
X331349Y271455D01*
X332276Y271080D01*
X333205Y270711D01*
X334137Y270350D01*
X335072Y269995D01*
X336009Y269647D01*
X336949Y269306D01*
X337891Y268972D01*
X338836Y268644D01*
X339783Y268323D01*
X340732Y268010D01*
X341684Y267703D01*
X342637Y267403D01*
X343593Y267110D01*
X344551Y266824D01*
X345511Y266545D01*
X346473Y266273D01*
X347437Y266007D01*
X348403Y265749D01*
X349371Y265498D01*
X350340Y265254D01*
X351312Y265017D01*
X352285Y264787D01*
X353259Y264564D01*
X354235Y264348D01*
X355213Y264139D01*
X356192Y263938D01*
X357173Y263743D01*
X358155Y263556D01*
X359138Y263375D01*
X360123Y263202D01*
X361109Y263036D01*
X362096Y262877D01*
X363084Y262725D01*
X364073Y262581D01*
X365064Y262444D01*
X366055Y262314D01*
X367047Y262191D01*
X368040Y262075D01*
X369034Y261966D01*
X370029Y261865D01*
X371024Y261771D01*
X372020Y261684D01*
X373017Y261604D01*
X374014Y261532D01*
X375011Y261466D01*
X376009Y261408D01*
X377008Y261358D01*
X378007Y261314D01*
X379006Y261278D01*
X380005Y261249D01*
X381005Y261227D01*
X382004Y261213D01*
X383004Y261206D01*
X384004Y261206D01*
X385004Y261213D01*
X386003Y261227D01*
X387003Y261249D01*
X388002Y261278D01*
X389001Y261315D01*
X390000Y261358D01*
X390999Y261409D01*
X391997Y261467D01*
X392994Y261532D01*
X393992Y261605D01*
X394988Y261684D01*
X395984Y261771D01*
X396979Y261866D01*
X397974Y261967D01*
X398968Y262076D01*
X399961Y262192D01*
X400953Y262315D01*
X401944Y262445D01*
X402935Y262582D01*
X403924Y262727D01*
X404912Y262878D01*
X405899Y263037D01*
X406885Y263204D01*
X407870Y263377D01*
X408853Y263557D01*
X409835Y263745D01*
X410816Y263939D01*
X411795Y264141D01*
X412773Y264350D01*
X413749Y264566D01*
X414723Y264789D01*
X415696Y265019D01*
X416668Y265256D01*
X417637Y265500D01*
X418605Y265751D01*
X419571Y266010D01*
X420535Y266275D01*
X421497Y266547D01*
X422457Y266826D01*
X423415Y267112D01*
X424370Y267405D01*
X425324Y267705D01*
X426276Y268012D01*
X427225Y268326D01*
X428172Y268647D01*
X429116Y268974D01*
X430059Y269309D01*
X430998Y269650D01*
X431936Y269998D01*
X432870Y270353D01*
X433803Y270714D01*
X434732Y271083D01*
X435659Y271458D01*
X436583Y271840D01*
X437504Y272228D01*
X438422Y272623D01*
X439338Y273025D01*
X440250Y273433D01*
X441160Y273849D01*
X442066Y274270D01*
X442970Y274698D01*
X443870Y275133D01*
X444767Y275574D01*
X445661Y276022D01*
X446552Y276476D01*
X447439Y276937D01*
X448323Y277404D01*
X449203Y277878D01*
X450080Y278358D01*
X450954Y278844D01*
X451824Y279337D01*
X452691Y279835D01*
X453553Y280341D01*
X454412Y280852D01*
X455268Y281369D01*
X456119Y281893D01*
X456967Y282423D01*
X457811Y282959D01*
X458651Y283502D01*
X459487Y284050D01*
X460319Y284604D01*
X461147Y285165D01*
X461971Y285731D01*
X462790Y286303D01*
X463606Y286881D01*
X464418Y287466D01*
X465225Y288056D01*
X466027Y288652D01*
X466826Y289253D01*
X467620Y289861D01*
X468409Y290474D01*
X469195Y291093D01*
X469975Y291717D01*
X470751Y292348D01*
X471523Y292984D01*
X472290Y293625D01*
X473052Y294272D01*
X473810Y294924D01*
X474562Y295582D01*
X475310Y296246D01*
X476053Y296915D01*
X476792Y297589D01*
X477525Y298268D01*
X478253Y298953D01*
X478977Y299643D01*
X479695Y300339D01*
X480408Y301039D01*
X481117Y301745D01*
X481820Y302456D01*
X482517Y303172D01*
X483210Y303893D01*
X483898Y304619D01*
X484580Y305349D01*
X485257Y306085D01*
X485928Y306826D01*
X486594Y307572D01*
X487255Y308322D01*
X487910Y309077D01*
X488560Y309837D01*
X489204Y310602D01*
X489842Y311371D01*
X490475Y312145D01*
X491103Y312923D01*
X491724Y313706D01*
X492340Y314494D01*
X492951Y315286D01*
X493555Y316082D01*
X494154Y316883D01*
X494747Y317688D01*
X495334Y318497D01*
X495915Y319310D01*
X496490Y320128D01*
X497059Y320950D01*
X497623Y321776D01*
X498180Y322606D01*
X498731Y323440D01*
X499276Y324278D01*
X499816Y325120D01*
X500349Y325966D01*
X500875Y326816D01*
X501396Y327669D01*
X501910Y328526D01*
X502419Y329387D01*
X502920Y330252D01*
X503416Y331120D01*
X503905Y331992D01*
X504389Y332868D01*
X504865Y333746D01*
X505335Y334629D01*
X505799Y335514D01*
X506257Y336403D01*
X506708Y337296D01*
X507152Y338191D01*
X507590Y339090D01*
X508021Y339992D01*
X508446Y340897D01*
X508864Y341805D01*
X509276Y342716D01*
X509681Y343630D01*
X510080Y344547D01*
X510471Y345467D01*
X510856Y346390D01*
X511235Y347315D01*
X511607Y348243D01*
X511971Y349174D01*
X512329Y350107D01*
X512681Y351043D01*
X513025Y351982D01*
X513363Y352923D01*
X513694Y353866D01*
X514018Y354812D01*
X514335Y355760D01*
X514645Y356711D01*
X514949Y357663D01*
X515245Y358618D01*
X515535Y359575D01*
X515817Y360534D01*
X516093Y361495D01*
X516362Y362458D01*
X516623Y363423D01*
X516878Y364390D01*
X517126Y365358D01*
X517366Y366329D01*
X517600Y367301D01*
X517826Y368275D01*
X518046Y369250D01*
X518258Y370227D01*
X518463Y371205D01*
X518661Y372185D01*
X518852Y373167D01*
X519036Y374150D01*
X519213Y375134D01*
X519382Y376119D01*
X519545Y377105D01*
X519700Y378093D01*
X519848Y379082D01*
X519989Y380072D01*
X520123Y381062D01*
X520249Y382054D01*
X520369Y383047D01*
X520481Y384040D01*
X520586Y385034D01*
X520683Y386029D01*
X520774Y387025D01*
X520857Y388021D01*
X520933Y389018D01*
X521002Y390016D01*
X521064Y391014D01*
X521118Y392012D01*
X521165Y393010D01*
X521205Y394009D01*
X521238Y395009D01*
X521263Y396008D01*
X521281Y397008D01*
X521292Y398007D01*
X521295Y399000D01*
M02*
