G04*
G04 #@! TF.GenerationSoftware,Altium Limited,Altium Designer,21.2.0 (30)*
G04*
G04 Layer_Physical_Order=1*
G04 Layer_Color=255*
%FSLAX44Y44*%
%MOMM*%
G71*
G04*
G04 #@! TF.SameCoordinates,FC8C7DE9-18AC-4A15-B1D3-151ED5954E14*
G04*
G04*
G04 #@! TF.FilePolarity,Positive*
G04*
G01*
G75*
%ADD14R,0.9000X0.6000*%
%ADD15R,0.6000X0.8000*%
%ADD16R,0.6000X0.9000*%
%ADD17R,0.5080X0.9977*%
%ADD18R,0.9000X1.3000*%
%ADD31C,0.8000*%
%ADD32C,0.5000*%
%ADD33C,0.3000*%
%ADD34C,0.4000*%
%ADD35C,1.0000*%
%ADD36C,1.5600*%
%ADD37C,1.5240*%
%ADD38R,1.5600X1.5600*%
%ADD39C,1.1430*%
%ADD40C,6.0000*%
%ADD41C,1.0000*%
%ADD42C,0.6000*%
G36*
X753750Y1157750D02*
X737250D01*
Y1212000D01*
X753750D01*
Y1157750D01*
D02*
G37*
G36*
X735211D02*
X735250Y1157553D01*
Y1141750D01*
Y1125045D01*
X735219Y1124891D01*
Y1124891D01*
X735219Y1124890D01*
Y1124845D01*
Y1124844D01*
X735180D01*
Y1124493D01*
Y1124493D01*
Y1120468D01*
Y1107844D01*
X735250D01*
Y1092250D01*
X715750D01*
Y1156250D01*
X718140D01*
Y1156240D01*
X727220D01*
Y1156250D01*
X727500D01*
Y1175000D01*
X716821D01*
X716332Y1175489D01*
X716000Y1175627D01*
Y1211750D01*
X735211D01*
Y1157750D01*
D02*
G37*
G36*
X749500Y1103750D02*
X737289D01*
Y1107844D01*
X737219Y1108196D01*
Y1120468D01*
Y1124493D01*
Y1124493D01*
X737250Y1124648D01*
Y1124802D01*
X737258Y1124844D01*
Y1124845D01*
Y1124890D01*
X737258Y1124891D01*
Y1124891D01*
X737289Y1125045D01*
Y1141750D01*
X749500D01*
Y1103750D01*
D02*
G37*
D14*
X1186180Y1067950D02*
D03*
Y1052950D02*
D03*
X698000Y1000750D02*
D03*
Y985750D02*
D03*
D15*
X1247534Y925429D02*
D03*
X1233034D02*
D03*
X1247534Y946300D02*
D03*
X1233034D02*
D03*
X1247534Y883687D02*
D03*
X1233034D02*
D03*
X1247534Y904558D02*
D03*
X1233034D02*
D03*
X1247534Y967170D02*
D03*
X1233034D02*
D03*
D16*
X1204000Y967240D02*
D03*
X1219000D02*
D03*
X1204000Y883757D02*
D03*
X1219000D02*
D03*
X1204000Y904628D02*
D03*
X1219000D02*
D03*
X1204000Y946369D02*
D03*
X1219000D02*
D03*
X1204000Y925499D02*
D03*
X1219000D02*
D03*
D17*
X741680Y1135725D02*
D03*
X722680D02*
D03*
Y1163229D02*
D03*
X732180D02*
D03*
X741680D02*
D03*
D18*
Y1116345D02*
D03*
X722680D02*
D03*
X727500Y1187000D02*
D03*
X746500D02*
D03*
D31*
X789358Y1112258D02*
Y1203500D01*
X679750Y1002650D02*
X789358Y1112258D01*
X679750Y989950D02*
X679750Y989950D01*
X741680Y1081855D02*
Y1116345D01*
X667535Y1007710D02*
X741680Y1081855D01*
X667050Y1002650D02*
X667535Y1003135D01*
Y1007710D01*
X789358Y1203500D02*
X815218Y1229360D01*
D32*
X847490Y975360D02*
X848360D01*
X815218D02*
X847490D01*
Y949960D02*
X848360D01*
X815218D02*
X847490D01*
Y873760D02*
X848360D01*
X815218D02*
X847490D01*
Y848360D02*
X848360D01*
X815218D02*
X847490D01*
Y822960D02*
X848360D01*
X815218D02*
X847490D01*
X1102360Y1203960D02*
X1145417D01*
X1102360Y1178560D02*
X1145417D01*
X815218Y1203960D02*
X848360D01*
X1102360Y1153160D02*
X1145417D01*
X815218Y1178560D02*
X848360D01*
X1102360Y1127760D02*
X1145417D01*
X815218Y1153160D02*
X848360D01*
X1102360Y1102360D02*
X1145417D01*
X815218Y1127760D02*
X848360D01*
X815218Y1102360D02*
X848360D01*
X1102360Y1051560D02*
X1145417D01*
X815218Y1076960D02*
X848360D01*
X1102360Y1026160D02*
X1145417D01*
X815218Y1051560D02*
X848360D01*
X1102360Y1000760D02*
X1145417D01*
X815218Y1026160D02*
X848360D01*
X1102360Y975360D02*
X1145417D01*
X815218Y1000760D02*
X848360D01*
X1102360Y949960D02*
X1145417D01*
X1102360Y924560D02*
X1145417D01*
X1102360Y899160D02*
X1145417D01*
X1102360Y873760D02*
X1145417D01*
X1102360Y848360D02*
X1145417D01*
X1102360Y822960D02*
X1145417D01*
X1102360Y797560D02*
X1145417D01*
X1102360Y772160D02*
X1145417D01*
X815218Y797560D02*
X848360D01*
X815218Y772160D02*
X848360D01*
X815218Y1229360D02*
X847490D01*
X1102360D02*
X1145417D01*
X1102360Y1076960D02*
X1145417D01*
X815218Y899160D02*
X848360D01*
X679750Y964550D02*
X801929D01*
X812739Y975360D02*
X815218D01*
X801929Y964550D02*
X812739Y975360D01*
X886460Y797560D02*
X890412Y793609D01*
X886460Y797560D02*
X886460D01*
X815218Y924560D02*
X847490D01*
X680695Y950905D02*
X814273D01*
X815218Y949960D01*
X679750Y951850D02*
X680695Y950905D01*
X704847Y911600D02*
X777377D01*
X667050Y951850D02*
X668280Y950620D01*
X777377Y911600D02*
X815218Y873760D01*
X668280Y948166D02*
X704847Y911600D01*
X668280Y948166D02*
Y950620D01*
X706954Y886200D02*
X751977D01*
X665820Y963320D02*
X667050Y964550D01*
X663366Y963320D02*
X665820D01*
X656335Y956288D02*
X663366Y963320D01*
X656335Y947412D02*
Y956288D01*
Y947412D02*
X704847Y898900D01*
X764678D01*
X815218Y848360D01*
X648845Y944309D02*
X706954Y886200D01*
X648845Y944309D02*
Y961498D01*
X662612Y975265D01*
X663325D01*
X665310Y977250D01*
X667050D01*
X751977Y886200D02*
X815218Y822960D01*
X713500Y1171250D02*
X713691Y1171059D01*
Y1165466D02*
X715929Y1163229D01*
X722680D01*
X713691Y1165466D02*
Y1171059D01*
X1243179Y864084D02*
X1247534Y868438D01*
Y883687D01*
Y946300D02*
Y967170D01*
Y925429D02*
Y946300D01*
Y904558D02*
Y925429D01*
Y883687D02*
Y904558D01*
X1219035Y883722D02*
X1232999D01*
X1233034Y883687D01*
X1219000Y883757D02*
X1219035Y883722D01*
X1219000Y904628D02*
X1219035Y904593D01*
X1232999D01*
X1233034Y904558D01*
X1219035Y925464D02*
X1232999D01*
X1219000Y925499D02*
X1219035Y925464D01*
X1232999D02*
X1233034Y925429D01*
X1219035Y946335D02*
X1232999D01*
X1233034Y946300D01*
X1219000Y946369D02*
X1219035Y946335D01*
X1232999Y967205D02*
X1233034Y967170D01*
X1219000Y967240D02*
X1219035Y967205D01*
X1232999D01*
X1197380Y975360D02*
X1204000Y968740D01*
Y967240D02*
Y968740D01*
X1145417Y975360D02*
X1197380D01*
X1147213Y948165D02*
X1203500D01*
X1145417Y949960D02*
X1147213Y948165D01*
X1203500D02*
X1204000Y947665D01*
Y946369D02*
Y947665D01*
X1203500Y924560D02*
X1204000Y925060D01*
Y925499D01*
X1145417Y924560D02*
X1203500D01*
X1173159Y899160D02*
X1178627Y904628D01*
X1204000D01*
X1145417Y899160D02*
X1173159D01*
X1157058Y883757D02*
X1204000D01*
X1145417Y873760D02*
X1147061D01*
X1157058Y883757D01*
X967215Y1082385D02*
X1005315D01*
X1101490Y1178560D01*
X885590Y1000760D02*
X967215Y1082385D01*
X916940Y975360D02*
X1043940Y1102360D01*
X885590Y975360D02*
X916940D01*
X1043940Y1102360D02*
X1101490D01*
X885590Y949960D02*
X917890D01*
X1037271Y1069340D01*
X1083710D02*
X1101490Y1051560D01*
X1037271Y1069340D02*
X1083710D01*
X885590Y949960D02*
X886025Y949525D01*
X1145417Y1051560D02*
X1146807Y1052950D01*
X1186180D01*
X886025Y848360D02*
Y949525D01*
X1063390Y919504D02*
Y975360D01*
X1056540Y912654D02*
X1063390Y919504D01*
X1056540Y852270D02*
Y912654D01*
Y852270D02*
X1068070Y840740D01*
X1063390Y1000760D02*
X1076010Y988140D01*
Y927498D02*
Y988140D01*
X1070880Y866410D02*
Y922368D01*
X1076010Y927498D01*
X1069340Y864870D02*
X1070880Y866410D01*
X885480Y1161380D02*
X898210Y1148650D01*
Y1064180D02*
Y1148650D01*
X885590Y1051560D02*
X898210Y1064180D01*
X1186180Y1067950D02*
Y1238250D01*
X1175551Y1248879D02*
X1186180Y1238250D01*
X1023930Y1248879D02*
X1175551D01*
X1004411Y1229360D02*
X1023930Y1248879D01*
X847490Y1229360D02*
X1004411D01*
X868210Y1094340D02*
X885590Y1076960D01*
X868210Y1094340D02*
Y1208640D01*
X847490Y1229360D02*
X868210Y1208640D01*
D33*
X679750Y1002650D02*
X688850D01*
X690750Y1000750D02*
X698000D01*
X688850Y1002650D02*
X690750Y1000750D01*
D34*
X685000Y977250D02*
X692500Y984750D01*
X685000Y977250D02*
X799713D01*
X692500Y984750D02*
X697000D01*
X679750Y977250D02*
X685000D01*
X697000Y984750D02*
X698000Y985750D01*
X810123Y987660D02*
X852585D01*
X799713Y977250D02*
X810123Y987660D01*
X852585D02*
X859790Y980455D01*
Y936860D02*
Y980455D01*
X847490Y924560D02*
X859790Y936860D01*
X866980Y982150D02*
X885590Y1000760D01*
X866980Y817040D02*
Y982150D01*
X885590Y973363D02*
Y975360D01*
X873470Y841013D02*
Y961243D01*
X885590Y973363D01*
X866980Y817040D02*
X886460Y797560D01*
X873470Y841013D02*
X884240Y830243D01*
Y825180D02*
Y830243D01*
Y825180D02*
X886460Y822960D01*
D35*
X747000Y1206250D02*
X770110Y1229360D01*
X815218D01*
D36*
X886460Y797560D02*
D03*
Y822960D02*
D03*
Y848360D02*
D03*
X815218Y772160D02*
D03*
Y797560D02*
D03*
X1145417Y772160D02*
D03*
X815218Y822960D02*
D03*
X1145417Y797560D02*
D03*
X815218Y848360D02*
D03*
X1145417Y822960D02*
D03*
X815218Y873760D02*
D03*
X1145417Y848360D02*
D03*
X815218Y899160D02*
D03*
X1145417Y873760D02*
D03*
X815218Y924560D02*
D03*
X1145417Y899160D02*
D03*
X815218Y949960D02*
D03*
X1145417Y924560D02*
D03*
X815218Y975360D02*
D03*
X1145417Y949960D02*
D03*
X815218Y1000760D02*
D03*
X1145417Y975360D02*
D03*
X815218Y1026160D02*
D03*
X1145417Y1000760D02*
D03*
X815218Y1051560D02*
D03*
X1145417Y1026160D02*
D03*
X815218Y1076960D02*
D03*
X1145417Y1051560D02*
D03*
X815218Y1102360D02*
D03*
X1145417Y1076960D02*
D03*
X815218Y1127760D02*
D03*
X1145417Y1102360D02*
D03*
X815218Y1153160D02*
D03*
X1145417Y1127760D02*
D03*
X815218Y1178560D02*
D03*
X1145417Y1153160D02*
D03*
X815218Y1203960D02*
D03*
X1145417Y1178560D02*
D03*
X815218Y1229360D02*
D03*
X1145417D02*
D03*
Y1203960D02*
D03*
X1101490Y1076960D02*
D03*
Y1229360D02*
D03*
X847490Y822960D02*
D03*
Y848360D02*
D03*
Y873760D02*
D03*
Y899160D02*
D03*
Y924560D02*
D03*
Y949960D02*
D03*
Y975360D02*
D03*
Y772160D02*
D03*
Y797560D02*
D03*
X1101490Y772160D02*
D03*
Y797560D02*
D03*
Y822960D02*
D03*
Y848360D02*
D03*
Y873760D02*
D03*
Y899160D02*
D03*
Y924560D02*
D03*
Y949960D02*
D03*
X847490Y1000760D02*
D03*
X1101490Y975360D02*
D03*
X847490Y1026160D02*
D03*
X1101490Y1000760D02*
D03*
X847490Y1051560D02*
D03*
X1101490Y1026160D02*
D03*
X847490Y1076960D02*
D03*
X1101490Y1051560D02*
D03*
X847490Y1102360D02*
D03*
Y1127760D02*
D03*
X1101490Y1102360D02*
D03*
X847490Y1153160D02*
D03*
X1101490Y1127760D02*
D03*
X847490Y1178560D02*
D03*
X1101490Y1153160D02*
D03*
X847490Y1203960D02*
D03*
X1101490Y1178560D02*
D03*
Y1203960D02*
D03*
X1068070Y840740D02*
D03*
X1069340Y864870D02*
D03*
X885480Y1161380D02*
D03*
X1065820D02*
D03*
Y1186780D02*
D03*
D37*
X885590Y1026160D02*
D03*
Y1076960D02*
D03*
X1063390Y1051560D02*
D03*
Y1026160D02*
D03*
X885590Y1051560D02*
D03*
X1063390Y1000760D02*
D03*
Y975360D02*
D03*
X885590Y949960D02*
D03*
Y975360D02*
D03*
Y1000760D02*
D03*
D38*
X847490Y1229360D02*
D03*
D39*
X667050Y1002650D02*
D03*
Y951850D02*
D03*
X679750D02*
D03*
X667050Y964550D02*
D03*
X679750D02*
D03*
X667050Y977250D02*
D03*
X679750D02*
D03*
X667050Y989950D02*
D03*
X679750D02*
D03*
Y1002650D02*
D03*
D40*
X675000Y1081250D02*
D03*
X1237250Y1129750D02*
D03*
X1066800Y718820D02*
D03*
D41*
X724250Y1099250D02*
D03*
X724000Y1202500D02*
D03*
D42*
X713500Y1171250D02*
D03*
X753500Y1171750D02*
D03*
X1243179Y864084D02*
D03*
M02*
