G04*
G04 #@! TF.GenerationSoftware,Altium Limited,Altium Designer,21.2.0 (30)*
G04*
G04 Layer_Physical_Order=2*
G04 Layer_Color=16711680*
%FSLAX44Y44*%
%MOMM*%
G71*
G04*
G04 #@! TF.SameCoordinates,24290CB3-EA7C-4BBA-8A3B-F1FFB41C3431*
G04*
G04*
G04 #@! TF.FilePolarity,Positive*
G04*
G01*
G75*
%ADD33C,0.5000*%
%ADD35C,1.5600*%
%ADD36C,1.5240*%
%ADD37R,1.5600X1.5600*%
%ADD38C,1.1430*%
%ADD39C,6.0000*%
%ADD40C,1.0000*%
%ADD41C,0.6000*%
G36*
X982682Y1363460D02*
X999845Y1362617D01*
X1016947Y1360933D01*
X1033945Y1358411D01*
X1050799Y1355059D01*
X1067468Y1350883D01*
X1083912Y1345895D01*
X1100091Y1340106D01*
X1115967Y1333530D01*
X1131501Y1326183D01*
X1146656Y1318082D01*
X1161396Y1309248D01*
X1175684Y1299701D01*
X1189486Y1289465D01*
X1202769Y1278563D01*
X1215502Y1267023D01*
X1227653Y1254872D01*
X1239193Y1242140D01*
X1250095Y1228856D01*
X1260331Y1215054D01*
X1269878Y1200766D01*
X1278712Y1186026D01*
X1286813Y1170871D01*
X1294160Y1155337D01*
X1300736Y1139461D01*
X1306525Y1123282D01*
X1311513Y1106838D01*
X1315689Y1090169D01*
X1319041Y1073315D01*
X1321563Y1056317D01*
X1323247Y1039215D01*
X1324090Y1022052D01*
Y1013460D01*
Y1004868D01*
X1323247Y987705D01*
X1321563Y970603D01*
X1319041Y953605D01*
X1315689Y936751D01*
X1311513Y920082D01*
X1306525Y903638D01*
X1300736Y887459D01*
X1294160Y871583D01*
X1286813Y856049D01*
X1278712Y840894D01*
X1269878Y826154D01*
X1260331Y811866D01*
X1250095Y798064D01*
X1239193Y784781D01*
X1227653Y772048D01*
X1215502Y759897D01*
X1202769Y748357D01*
X1189486Y737456D01*
X1175684Y727219D01*
X1161396Y717672D01*
X1146656Y708838D01*
X1131501Y700737D01*
X1115967Y693390D01*
X1100091Y686814D01*
X1083912Y681025D01*
X1067468Y676037D01*
X1050799Y671861D01*
X1033945Y668509D01*
X1016947Y665987D01*
X999845Y664303D01*
X982682Y663460D01*
X974090D01*
X965498D01*
X948335Y664303D01*
X931233Y665987D01*
X914235Y668509D01*
X897381Y671861D01*
X880712Y676037D01*
X864268Y681025D01*
X848089Y686814D01*
X832213Y693390D01*
X816679Y700737D01*
X801524Y708838D01*
X786784Y717672D01*
X772496Y727219D01*
X758694Y737456D01*
X745411Y748357D01*
X732678Y759897D01*
X720527Y772048D01*
X708987Y784781D01*
X698085Y798064D01*
X687849Y811866D01*
X678302Y826154D01*
X669468Y840894D01*
X661367Y856049D01*
X654020Y871583D01*
X647444Y887459D01*
X641655Y903638D01*
X636667Y920082D01*
X632491Y936751D01*
X629139Y953605D01*
X626617Y970603D01*
X624933Y987705D01*
X624090Y1004868D01*
Y1013460D01*
Y1022052D01*
X624933Y1039215D01*
X626617Y1056317D01*
X629139Y1073315D01*
X632491Y1090169D01*
X636667Y1106838D01*
X641655Y1123282D01*
X647444Y1139461D01*
X654020Y1155337D01*
X661367Y1170871D01*
X669468Y1186026D01*
X678302Y1200766D01*
X687849Y1215054D01*
X698085Y1228856D01*
X708987Y1242140D01*
X720527Y1254872D01*
X732678Y1267023D01*
X745411Y1278563D01*
X758694Y1289465D01*
X772496Y1299701D01*
X786784Y1309248D01*
X801524Y1318082D01*
X816679Y1326183D01*
X832213Y1333530D01*
X848089Y1340106D01*
X864268Y1345895D01*
X880712Y1350883D01*
X897381Y1355059D01*
X914235Y1358411D01*
X931233Y1360933D01*
X948335Y1362617D01*
X965498Y1363460D01*
X974090D01*
X982682D01*
D02*
G37*
%LPC*%
G36*
X1147958Y1239384D02*
Y1231900D01*
X1155442D01*
X1155053Y1233351D01*
X1153691Y1235709D01*
X1151766Y1237634D01*
X1149409Y1238995D01*
X1147958Y1239384D01*
D02*
G37*
G36*
X1142878D02*
X1141426Y1238995D01*
X1139069Y1237634D01*
X1137143Y1235709D01*
X1135782Y1233351D01*
X1135393Y1231900D01*
X1142878D01*
Y1239384D01*
D02*
G37*
G36*
X1104030D02*
Y1231900D01*
X1111514D01*
X1111125Y1233351D01*
X1109764Y1235709D01*
X1107839Y1237634D01*
X1105481Y1238995D01*
X1104030Y1239384D01*
D02*
G37*
G36*
X1098950D02*
X1097499Y1238995D01*
X1095141Y1237634D01*
X1093216Y1235709D01*
X1091855Y1233351D01*
X1091466Y1231900D01*
X1098950D01*
Y1239384D01*
D02*
G37*
G36*
X857322Y1239192D02*
X837658D01*
Y1219528D01*
X857322D01*
Y1239192D01*
D02*
G37*
G36*
X816512D02*
X813923D01*
X811423Y1238522D01*
X809181Y1237227D01*
X807350Y1235397D01*
X806056Y1233155D01*
X805386Y1230654D01*
Y1228066D01*
X806056Y1225565D01*
X807350Y1223323D01*
X809181Y1221492D01*
X811423Y1220198D01*
X813923Y1219528D01*
X816512D01*
X819013Y1220198D01*
X821255Y1221492D01*
X823085Y1223323D01*
X824380Y1225565D01*
X825050Y1228066D01*
Y1230654D01*
X824380Y1233155D01*
X823085Y1235397D01*
X821255Y1237227D01*
X819013Y1238522D01*
X816512Y1239192D01*
D02*
G37*
G36*
X1155442Y1226820D02*
X1147958D01*
Y1219336D01*
X1149409Y1219725D01*
X1151766Y1221086D01*
X1153691Y1223011D01*
X1155053Y1225369D01*
X1155442Y1226820D01*
D02*
G37*
G36*
X1142878D02*
X1135393D01*
X1135782Y1225369D01*
X1137143Y1223011D01*
X1139069Y1221086D01*
X1141426Y1219725D01*
X1142878Y1219336D01*
Y1226820D01*
D02*
G37*
G36*
X1111514D02*
X1104030D01*
Y1219336D01*
X1105481Y1219725D01*
X1107839Y1221086D01*
X1109764Y1223011D01*
X1111125Y1225369D01*
X1111514Y1226820D01*
D02*
G37*
G36*
X1098950D02*
X1091466D01*
X1091855Y1225369D01*
X1093216Y1223011D01*
X1095141Y1221086D01*
X1097499Y1219725D01*
X1098950Y1219336D01*
Y1226820D01*
D02*
G37*
G36*
X1146712Y1213792D02*
X1144123D01*
X1141622Y1213122D01*
X1139380Y1211827D01*
X1137550Y1209997D01*
X1136255Y1207755D01*
X1135585Y1205254D01*
Y1202666D01*
X1136255Y1200165D01*
X1137550Y1197923D01*
X1139380Y1196093D01*
X1141622Y1194798D01*
X1144123Y1194128D01*
X1146712D01*
X1149212Y1194798D01*
X1151454Y1196093D01*
X1153285Y1197923D01*
X1154579Y1200165D01*
X1155249Y1202666D01*
Y1205254D01*
X1154579Y1207755D01*
X1153285Y1209997D01*
X1151454Y1211827D01*
X1149212Y1213122D01*
X1146712Y1213792D01*
D02*
G37*
G36*
X1102784D02*
X1100196D01*
X1097695Y1213122D01*
X1095453Y1211827D01*
X1093623Y1209997D01*
X1092328Y1207755D01*
X1091658Y1205254D01*
Y1202666D01*
X1092328Y1200165D01*
X1093623Y1197923D01*
X1095453Y1196093D01*
X1097695Y1194798D01*
X1100196Y1194128D01*
X1102784D01*
X1105285Y1194798D01*
X1107527Y1196093D01*
X1109358Y1197923D01*
X1110652Y1200165D01*
X1111322Y1202666D01*
Y1205254D01*
X1110652Y1207755D01*
X1109358Y1209997D01*
X1107527Y1211827D01*
X1105285Y1213122D01*
X1102784Y1213792D01*
D02*
G37*
G36*
X848784D02*
X846196D01*
X843695Y1213122D01*
X841453Y1211827D01*
X839622Y1209997D01*
X838328Y1207755D01*
X837658Y1205254D01*
Y1202666D01*
X838328Y1200165D01*
X839622Y1197923D01*
X841453Y1196093D01*
X843695Y1194798D01*
X846196Y1194128D01*
X848784D01*
X851285Y1194798D01*
X853527Y1196093D01*
X855358Y1197923D01*
X856652Y1200165D01*
X857322Y1202666D01*
Y1205254D01*
X856652Y1207755D01*
X855358Y1209997D01*
X853527Y1211827D01*
X851285Y1213122D01*
X848784Y1213792D01*
D02*
G37*
G36*
X816512D02*
X813923D01*
X811423Y1213122D01*
X809181Y1211827D01*
X807350Y1209997D01*
X806056Y1207755D01*
X805386Y1205254D01*
Y1202666D01*
X806056Y1200165D01*
X807350Y1197923D01*
X809181Y1196093D01*
X811423Y1194798D01*
X813923Y1194128D01*
X816512D01*
X819013Y1194798D01*
X821255Y1196093D01*
X823085Y1197923D01*
X824380Y1200165D01*
X825050Y1202666D01*
Y1205254D01*
X824380Y1207755D01*
X823085Y1209997D01*
X821255Y1211827D01*
X819013Y1213122D01*
X816512Y1213792D01*
D02*
G37*
G36*
X754501Y1176782D02*
X752499D01*
X751506Y1176371D01*
X714000D01*
X714000Y1176371D01*
X713553Y1176282D01*
X712499D01*
X710650Y1175516D01*
X709234Y1174100D01*
X708468Y1172251D01*
Y1170249D01*
X709234Y1168400D01*
X710650Y1166984D01*
X712499Y1166218D01*
X714501D01*
X716350Y1166984D01*
X716496Y1167129D01*
X751506D01*
X752499Y1166718D01*
X754501D01*
X756350Y1167484D01*
X757766Y1168900D01*
X758532Y1170749D01*
Y1172751D01*
X757766Y1174600D01*
X756350Y1176016D01*
X754501Y1176782D01*
D02*
G37*
G36*
X1146712Y1188392D02*
X1144123D01*
X1141622Y1187722D01*
X1139380Y1186428D01*
X1137550Y1184597D01*
X1136255Y1182355D01*
X1135585Y1179854D01*
Y1177266D01*
X1136255Y1174765D01*
X1137550Y1172523D01*
X1139380Y1170693D01*
X1141622Y1169398D01*
X1144123Y1168728D01*
X1146712D01*
X1149212Y1169398D01*
X1151454Y1170693D01*
X1153285Y1172523D01*
X1154579Y1174765D01*
X1155249Y1177266D01*
Y1179854D01*
X1154579Y1182355D01*
X1153285Y1184597D01*
X1151454Y1186428D01*
X1149212Y1187722D01*
X1146712Y1188392D01*
D02*
G37*
G36*
X1102784D02*
X1100196D01*
X1097695Y1187722D01*
X1095453Y1186428D01*
X1093623Y1184597D01*
X1092328Y1182355D01*
X1091658Y1179854D01*
Y1177266D01*
X1092328Y1174765D01*
X1093623Y1172523D01*
X1095453Y1170693D01*
X1097695Y1169398D01*
X1100196Y1168728D01*
X1102784D01*
X1105285Y1169398D01*
X1107527Y1170693D01*
X1109358Y1172523D01*
X1110652Y1174765D01*
X1111322Y1177266D01*
Y1179854D01*
X1110652Y1182355D01*
X1109358Y1184597D01*
X1107527Y1186428D01*
X1105285Y1187722D01*
X1102784Y1188392D01*
D02*
G37*
G36*
X848784D02*
X846196D01*
X843695Y1187722D01*
X841453Y1186428D01*
X839622Y1184597D01*
X838328Y1182355D01*
X837658Y1179854D01*
Y1177266D01*
X838328Y1174765D01*
X839622Y1172523D01*
X841453Y1170693D01*
X843695Y1169398D01*
X846196Y1168728D01*
X848784D01*
X851285Y1169398D01*
X853527Y1170693D01*
X855358Y1172523D01*
X856652Y1174765D01*
X857322Y1177266D01*
Y1179854D01*
X856652Y1182355D01*
X855358Y1184597D01*
X853527Y1186428D01*
X851285Y1187722D01*
X848784Y1188392D01*
D02*
G37*
G36*
X816512D02*
X813923D01*
X811423Y1187722D01*
X809181Y1186428D01*
X807350Y1184597D01*
X806056Y1182355D01*
X805386Y1179854D01*
Y1177266D01*
X806056Y1174765D01*
X807350Y1172523D01*
X809181Y1170693D01*
X811423Y1169398D01*
X813923Y1168728D01*
X816512D01*
X819013Y1169398D01*
X821255Y1170693D01*
X823085Y1172523D01*
X824380Y1174765D01*
X825050Y1177266D01*
Y1179854D01*
X824380Y1182355D01*
X823085Y1184597D01*
X821255Y1186428D01*
X819013Y1187722D01*
X816512Y1188392D01*
D02*
G37*
G36*
X1067114Y1196612D02*
X1064526D01*
X1062025Y1195942D01*
X1059783Y1194648D01*
X1057952Y1192817D01*
X1056658Y1190575D01*
X1055988Y1188074D01*
Y1185486D01*
X1056658Y1182985D01*
X1057952Y1180743D01*
X1059783Y1178913D01*
X1062025Y1177618D01*
X1064526Y1176948D01*
X1067114D01*
X1068694Y1177371D01*
X1073999Y1172066D01*
Y1168901D01*
X1072729Y1168375D01*
X1071857Y1169248D01*
X1069615Y1170542D01*
X1067114Y1171212D01*
X1064526D01*
X1062025Y1170542D01*
X1059783Y1169248D01*
X1057952Y1167417D01*
X1056658Y1165175D01*
X1055988Y1162674D01*
Y1160086D01*
X1056411Y1158506D01*
X1047503Y1149597D01*
X1046501Y1148098D01*
X1046149Y1146330D01*
X1046149Y1146330D01*
Y1038780D01*
X1046149Y1038780D01*
X1046501Y1037012D01*
X1047503Y1035513D01*
X1054128Y1028887D01*
X1053738Y1027431D01*
Y1024889D01*
X1054396Y1022434D01*
X1055667Y1020234D01*
X1057464Y1018437D01*
X1059665Y1017166D01*
X1062119Y1016508D01*
X1064661D01*
X1067115Y1017166D01*
X1069316Y1018437D01*
X1071114Y1020234D01*
X1072384Y1022434D01*
X1073042Y1024889D01*
Y1027431D01*
X1072384Y1029885D01*
X1071114Y1032086D01*
X1069316Y1033884D01*
X1067115Y1035154D01*
X1064661Y1035812D01*
X1062119D01*
X1060663Y1035422D01*
X1055391Y1040694D01*
Y1044113D01*
X1056661Y1044639D01*
X1057464Y1043837D01*
X1059665Y1042566D01*
X1062119Y1041908D01*
X1064661D01*
X1067115Y1042566D01*
X1069316Y1043837D01*
X1071114Y1045633D01*
X1072384Y1047834D01*
X1073042Y1050289D01*
Y1052831D01*
X1072652Y1054287D01*
X1081887Y1063523D01*
X1082889Y1065022D01*
X1083241Y1066790D01*
X1083241Y1066790D01*
Y1173980D01*
X1083241Y1173980D01*
X1082889Y1175748D01*
X1081887Y1177247D01*
X1081887Y1177247D01*
X1075229Y1183906D01*
X1075652Y1185486D01*
Y1188074D01*
X1074982Y1190575D01*
X1073688Y1192817D01*
X1071857Y1194648D01*
X1069615Y1195942D01*
X1067114Y1196612D01*
D02*
G37*
G36*
X886774Y1171212D02*
X884186D01*
X881685Y1170542D01*
X879443Y1169248D01*
X877612Y1167417D01*
X876318Y1165175D01*
X875648Y1162674D01*
Y1160086D01*
X876318Y1157585D01*
X877612Y1155343D01*
X879443Y1153512D01*
X881685Y1152218D01*
X884186Y1151548D01*
X886774D01*
X889275Y1152218D01*
X891517Y1153512D01*
X893347Y1155343D01*
X894642Y1157585D01*
X895312Y1160086D01*
Y1162674D01*
X894642Y1165175D01*
X893347Y1167417D01*
X891517Y1169248D01*
X889275Y1170542D01*
X886774Y1171212D01*
D02*
G37*
G36*
X1146712Y1162992D02*
X1144123D01*
X1141622Y1162322D01*
X1139380Y1161028D01*
X1137550Y1159197D01*
X1136255Y1156955D01*
X1135585Y1154454D01*
Y1151866D01*
X1136255Y1149365D01*
X1137550Y1147123D01*
X1139380Y1145293D01*
X1141622Y1143998D01*
X1144123Y1143328D01*
X1146712D01*
X1149212Y1143998D01*
X1151454Y1145293D01*
X1153285Y1147123D01*
X1154579Y1149365D01*
X1155249Y1151866D01*
Y1154454D01*
X1154579Y1156955D01*
X1153285Y1159197D01*
X1151454Y1161028D01*
X1149212Y1162322D01*
X1146712Y1162992D01*
D02*
G37*
G36*
X1102784D02*
X1100196D01*
X1097695Y1162322D01*
X1095453Y1161028D01*
X1093623Y1159197D01*
X1092328Y1156955D01*
X1091658Y1154454D01*
Y1151866D01*
X1092328Y1149365D01*
X1093623Y1147123D01*
X1095453Y1145293D01*
X1097695Y1143998D01*
X1100196Y1143328D01*
X1102784D01*
X1105285Y1143998D01*
X1107527Y1145293D01*
X1109358Y1147123D01*
X1110652Y1149365D01*
X1111322Y1151866D01*
Y1154454D01*
X1110652Y1156955D01*
X1109358Y1159197D01*
X1107527Y1161028D01*
X1105285Y1162322D01*
X1102784Y1162992D01*
D02*
G37*
G36*
X848784D02*
X846196D01*
X843695Y1162322D01*
X841453Y1161028D01*
X839622Y1159197D01*
X838328Y1156955D01*
X837658Y1154454D01*
Y1151866D01*
X838328Y1149365D01*
X839622Y1147123D01*
X841453Y1145293D01*
X843695Y1143998D01*
X846196Y1143328D01*
X848784D01*
X851285Y1143998D01*
X853527Y1145293D01*
X855358Y1147123D01*
X856652Y1149365D01*
X857322Y1151866D01*
Y1154454D01*
X856652Y1156955D01*
X855358Y1159197D01*
X853527Y1161028D01*
X851285Y1162322D01*
X848784Y1162992D01*
D02*
G37*
G36*
X816512D02*
X813923D01*
X811423Y1162322D01*
X809181Y1161028D01*
X807350Y1159197D01*
X806056Y1156955D01*
X805386Y1154454D01*
Y1151866D01*
X806056Y1149365D01*
X807350Y1147123D01*
X809181Y1145293D01*
X811423Y1143998D01*
X813923Y1143328D01*
X816512D01*
X819013Y1143998D01*
X821255Y1145293D01*
X823085Y1147123D01*
X824380Y1149365D01*
X825050Y1151866D01*
Y1154454D01*
X824380Y1156955D01*
X823085Y1159197D01*
X821255Y1161028D01*
X819013Y1162322D01*
X816512Y1162992D01*
D02*
G37*
G36*
X1146712Y1137592D02*
X1144123D01*
X1141622Y1136922D01*
X1139380Y1135628D01*
X1137550Y1133797D01*
X1136255Y1131555D01*
X1135585Y1129054D01*
Y1126466D01*
X1136255Y1123965D01*
X1137550Y1121723D01*
X1139380Y1119893D01*
X1141622Y1118598D01*
X1144123Y1117928D01*
X1146712D01*
X1149212Y1118598D01*
X1151454Y1119893D01*
X1153285Y1121723D01*
X1154579Y1123965D01*
X1155249Y1126466D01*
Y1129054D01*
X1154579Y1131555D01*
X1153285Y1133797D01*
X1151454Y1135628D01*
X1149212Y1136922D01*
X1146712Y1137592D01*
D02*
G37*
G36*
X1102784D02*
X1100196D01*
X1097695Y1136922D01*
X1095453Y1135628D01*
X1093623Y1133797D01*
X1092328Y1131555D01*
X1091658Y1129054D01*
Y1126466D01*
X1092328Y1123965D01*
X1093623Y1121723D01*
X1095453Y1119893D01*
X1097695Y1118598D01*
X1100196Y1117928D01*
X1102784D01*
X1105285Y1118598D01*
X1107527Y1119893D01*
X1109358Y1121723D01*
X1110652Y1123965D01*
X1111322Y1126466D01*
Y1129054D01*
X1110652Y1131555D01*
X1109358Y1133797D01*
X1107527Y1135628D01*
X1105285Y1136922D01*
X1102784Y1137592D01*
D02*
G37*
G36*
X848784D02*
X846196D01*
X843695Y1136922D01*
X841453Y1135628D01*
X839622Y1133797D01*
X838328Y1131555D01*
X837658Y1129054D01*
Y1126466D01*
X838328Y1123965D01*
X839622Y1121723D01*
X841453Y1119893D01*
X843695Y1118598D01*
X846196Y1117928D01*
X848784D01*
X851285Y1118598D01*
X853527Y1119893D01*
X855358Y1121723D01*
X856652Y1123965D01*
X857322Y1126466D01*
Y1129054D01*
X856652Y1131555D01*
X855358Y1133797D01*
X853527Y1135628D01*
X851285Y1136922D01*
X848784Y1137592D01*
D02*
G37*
G36*
X816512D02*
X813923D01*
X811423Y1136922D01*
X809181Y1135628D01*
X807350Y1133797D01*
X806056Y1131555D01*
X805386Y1129054D01*
Y1126466D01*
X806056Y1123965D01*
X807350Y1121723D01*
X809181Y1119893D01*
X811423Y1118598D01*
X813923Y1117928D01*
X816512D01*
X819013Y1118598D01*
X821255Y1119893D01*
X823085Y1121723D01*
X824380Y1123965D01*
X825050Y1126466D01*
Y1129054D01*
X824380Y1131555D01*
X823085Y1133797D01*
X821255Y1135628D01*
X819013Y1136922D01*
X816512Y1137592D01*
D02*
G37*
G36*
X1146712Y1112192D02*
X1144123D01*
X1141622Y1111522D01*
X1139380Y1110228D01*
X1137550Y1108397D01*
X1136255Y1106155D01*
X1135585Y1103654D01*
Y1101066D01*
X1136255Y1098565D01*
X1137550Y1096323D01*
X1139380Y1094492D01*
X1141622Y1093198D01*
X1144123Y1092528D01*
X1146712D01*
X1149212Y1093198D01*
X1151454Y1094492D01*
X1153285Y1096323D01*
X1154579Y1098565D01*
X1155249Y1101066D01*
Y1103654D01*
X1154579Y1106155D01*
X1153285Y1108397D01*
X1151454Y1110228D01*
X1149212Y1111522D01*
X1146712Y1112192D01*
D02*
G37*
G36*
X1102784D02*
X1100196D01*
X1097695Y1111522D01*
X1095453Y1110228D01*
X1093623Y1108397D01*
X1092328Y1106155D01*
X1091658Y1103654D01*
Y1101066D01*
X1092328Y1098565D01*
X1093623Y1096323D01*
X1095453Y1094492D01*
X1097695Y1093198D01*
X1100196Y1092528D01*
X1102784D01*
X1105285Y1093198D01*
X1107527Y1094492D01*
X1109358Y1096323D01*
X1110652Y1098565D01*
X1111322Y1101066D01*
Y1103654D01*
X1110652Y1106155D01*
X1109358Y1108397D01*
X1107527Y1110228D01*
X1105285Y1111522D01*
X1102784Y1112192D01*
D02*
G37*
G36*
X848784D02*
X846196D01*
X843695Y1111522D01*
X841453Y1110228D01*
X839622Y1108397D01*
X838328Y1106155D01*
X837658Y1103654D01*
Y1101066D01*
X838328Y1098565D01*
X839622Y1096323D01*
X841453Y1094492D01*
X843695Y1093198D01*
X846196Y1092528D01*
X848784D01*
X851285Y1093198D01*
X853527Y1094492D01*
X855358Y1096323D01*
X856652Y1098565D01*
X857322Y1101066D01*
Y1103654D01*
X856652Y1106155D01*
X855358Y1108397D01*
X853527Y1110228D01*
X851285Y1111522D01*
X848784Y1112192D01*
D02*
G37*
G36*
X816512D02*
X813923D01*
X811423Y1111522D01*
X809181Y1110228D01*
X807350Y1108397D01*
X806056Y1106155D01*
X805386Y1103654D01*
Y1101066D01*
X806056Y1098565D01*
X807350Y1096323D01*
X809181Y1094492D01*
X811423Y1093198D01*
X813923Y1092528D01*
X816512D01*
X819013Y1093198D01*
X821255Y1094492D01*
X823085Y1096323D01*
X824380Y1098565D01*
X825050Y1101066D01*
Y1103654D01*
X824380Y1106155D01*
X823085Y1108397D01*
X821255Y1110228D01*
X819013Y1111522D01*
X816512Y1112192D01*
D02*
G37*
G36*
X1147957Y1086984D02*
Y1079500D01*
X1155442D01*
X1155053Y1080951D01*
X1153691Y1083309D01*
X1151766Y1085234D01*
X1149409Y1086595D01*
X1147957Y1086984D01*
D02*
G37*
G36*
X1104030D02*
Y1079500D01*
X1111514D01*
X1111125Y1080951D01*
X1109764Y1083309D01*
X1107839Y1085234D01*
X1105481Y1086595D01*
X1104030Y1086984D01*
D02*
G37*
G36*
X1098950D02*
X1097499Y1086595D01*
X1095141Y1085234D01*
X1093216Y1083309D01*
X1091855Y1080951D01*
X1091466Y1079500D01*
X1098950D01*
Y1086984D01*
D02*
G37*
G36*
X1142877Y1086984D02*
X1141426Y1086595D01*
X1139069Y1085234D01*
X1137143Y1083309D01*
X1135782Y1080951D01*
X1135393Y1079500D01*
X1142877D01*
Y1086984D01*
D02*
G37*
G36*
X886861Y1086612D02*
X884319D01*
X881864Y1085954D01*
X879663Y1084684D01*
X877867Y1082887D01*
X876596Y1080686D01*
X875938Y1078231D01*
Y1075689D01*
X876596Y1073234D01*
X877867Y1071033D01*
X879663Y1069237D01*
X881864Y1067966D01*
X884319Y1067308D01*
X886861D01*
X889315Y1067966D01*
X891516Y1069237D01*
X893314Y1071033D01*
X894584Y1073234D01*
X895242Y1075689D01*
Y1078231D01*
X894584Y1080686D01*
X893314Y1082887D01*
X891516Y1084684D01*
X889315Y1085954D01*
X886861Y1086612D01*
D02*
G37*
G36*
X848784Y1086792D02*
X846196D01*
X843695Y1086122D01*
X841453Y1084827D01*
X839622Y1082997D01*
X838328Y1080755D01*
X837658Y1078254D01*
Y1075666D01*
X838328Y1073165D01*
X839622Y1070923D01*
X841453Y1069092D01*
X843695Y1067798D01*
X846196Y1067128D01*
X848784D01*
X851285Y1067798D01*
X853527Y1069092D01*
X855358Y1070923D01*
X856652Y1073165D01*
X857322Y1075666D01*
Y1078254D01*
X856652Y1080755D01*
X855358Y1082997D01*
X853527Y1084827D01*
X851285Y1086122D01*
X848784Y1086792D01*
D02*
G37*
G36*
X816512D02*
X813923D01*
X811423Y1086122D01*
X809181Y1084827D01*
X807350Y1082997D01*
X806056Y1080755D01*
X805386Y1078254D01*
Y1075666D01*
X806056Y1073165D01*
X807350Y1070923D01*
X809181Y1069092D01*
X811423Y1067798D01*
X813923Y1067128D01*
X816512D01*
X819013Y1067798D01*
X821255Y1069092D01*
X823085Y1070923D01*
X824380Y1073165D01*
X825050Y1075666D01*
Y1078254D01*
X824380Y1080755D01*
X823085Y1082997D01*
X821255Y1084827D01*
X819013Y1086122D01*
X816512Y1086792D01*
D02*
G37*
G36*
X1142877Y1074420D02*
X1135393D01*
X1135782Y1072969D01*
X1137143Y1070611D01*
X1139069Y1068686D01*
X1141426Y1067325D01*
X1142877Y1066936D01*
Y1074420D01*
D02*
G37*
G36*
X1111514D02*
X1104030D01*
Y1066936D01*
X1105481Y1067325D01*
X1107839Y1068686D01*
X1109764Y1070611D01*
X1111125Y1072969D01*
X1111514Y1074420D01*
D02*
G37*
G36*
X1098950D02*
X1091466D01*
X1091855Y1072969D01*
X1093216Y1070611D01*
X1095141Y1068686D01*
X1097499Y1067325D01*
X1098950Y1066936D01*
Y1074420D01*
D02*
G37*
G36*
X1155442D02*
X1147957D01*
Y1066936D01*
X1149409Y1067325D01*
X1151766Y1068686D01*
X1153691Y1070611D01*
X1155053Y1072969D01*
X1155442Y1074420D01*
D02*
G37*
G36*
X886861Y1061212D02*
X884319D01*
X881864Y1060554D01*
X879663Y1059284D01*
X877867Y1057486D01*
X876596Y1055285D01*
X875938Y1052831D01*
Y1050289D01*
X876596Y1047834D01*
X877867Y1045633D01*
X879663Y1043837D01*
X881864Y1042566D01*
X884319Y1041908D01*
X886861D01*
X889315Y1042566D01*
X891516Y1043837D01*
X893314Y1045633D01*
X894584Y1047834D01*
X895242Y1050289D01*
Y1052831D01*
X894584Y1055285D01*
X893314Y1057486D01*
X891516Y1059284D01*
X889315Y1060554D01*
X886861Y1061212D01*
D02*
G37*
G36*
X1146712Y1061392D02*
X1144123D01*
X1141622Y1060722D01*
X1139380Y1059427D01*
X1137550Y1057597D01*
X1136255Y1055355D01*
X1135585Y1052854D01*
Y1050266D01*
X1136255Y1047765D01*
X1137550Y1045523D01*
X1139380Y1043692D01*
X1141622Y1042398D01*
X1144123Y1041728D01*
X1146712D01*
X1149212Y1042398D01*
X1151454Y1043692D01*
X1153285Y1045523D01*
X1154579Y1047765D01*
X1155249Y1050266D01*
Y1052854D01*
X1154579Y1055355D01*
X1153285Y1057597D01*
X1151454Y1059427D01*
X1149212Y1060722D01*
X1146712Y1061392D01*
D02*
G37*
G36*
X1102784D02*
X1100196D01*
X1097695Y1060722D01*
X1095453Y1059427D01*
X1093623Y1057597D01*
X1092328Y1055355D01*
X1091658Y1052854D01*
Y1050266D01*
X1092328Y1047765D01*
X1093623Y1045523D01*
X1095453Y1043692D01*
X1097695Y1042398D01*
X1100196Y1041728D01*
X1102784D01*
X1105285Y1042398D01*
X1107527Y1043692D01*
X1109358Y1045523D01*
X1110652Y1047765D01*
X1111322Y1050266D01*
Y1052854D01*
X1110652Y1055355D01*
X1109358Y1057597D01*
X1107527Y1059427D01*
X1105285Y1060722D01*
X1102784Y1061392D01*
D02*
G37*
G36*
X848784D02*
X846196D01*
X843695Y1060722D01*
X841453Y1059427D01*
X839622Y1057597D01*
X838328Y1055355D01*
X837658Y1052854D01*
Y1050266D01*
X838328Y1047765D01*
X839622Y1045523D01*
X841453Y1043692D01*
X843695Y1042398D01*
X846196Y1041728D01*
X848784D01*
X851285Y1042398D01*
X853527Y1043692D01*
X855358Y1045523D01*
X856652Y1047765D01*
X857322Y1050266D01*
Y1052854D01*
X856652Y1055355D01*
X855358Y1057597D01*
X853527Y1059427D01*
X851285Y1060722D01*
X848784Y1061392D01*
D02*
G37*
G36*
X816512D02*
X813923D01*
X811423Y1060722D01*
X809181Y1059427D01*
X807350Y1057597D01*
X806056Y1055355D01*
X805386Y1052854D01*
Y1050266D01*
X806056Y1047765D01*
X807350Y1045523D01*
X809181Y1043692D01*
X811423Y1042398D01*
X813923Y1041728D01*
X816512D01*
X819013Y1042398D01*
X821255Y1043692D01*
X823085Y1045523D01*
X824380Y1047765D01*
X825050Y1050266D01*
Y1052854D01*
X824380Y1055355D01*
X823085Y1057597D01*
X821255Y1059427D01*
X819013Y1060722D01*
X816512Y1061392D01*
D02*
G37*
G36*
X888130Y1035998D02*
Y1028700D01*
X895428D01*
X895058Y1030082D01*
X893720Y1032398D01*
X891828Y1034290D01*
X889512Y1035628D01*
X888130Y1035998D01*
D02*
G37*
G36*
X883050D02*
X881668Y1035628D01*
X879352Y1034290D01*
X877460Y1032398D01*
X876122Y1030082D01*
X875752Y1028700D01*
X883050D01*
Y1035998D01*
D02*
G37*
G36*
X1146712Y1035992D02*
X1144123D01*
X1141622Y1035322D01*
X1139380Y1034027D01*
X1137550Y1032197D01*
X1136255Y1029955D01*
X1135585Y1027454D01*
Y1024866D01*
X1136255Y1022365D01*
X1137550Y1020123D01*
X1139380Y1018292D01*
X1141622Y1016998D01*
X1144123Y1016328D01*
X1146712D01*
X1149212Y1016998D01*
X1151454Y1018292D01*
X1153285Y1020123D01*
X1154579Y1022365D01*
X1155249Y1024866D01*
Y1027454D01*
X1154579Y1029955D01*
X1153285Y1032197D01*
X1151454Y1034027D01*
X1149212Y1035322D01*
X1146712Y1035992D01*
D02*
G37*
G36*
X1102784D02*
X1100196D01*
X1097695Y1035322D01*
X1095453Y1034027D01*
X1093623Y1032197D01*
X1092328Y1029955D01*
X1091658Y1027454D01*
Y1024866D01*
X1092328Y1022365D01*
X1093623Y1020123D01*
X1095453Y1018292D01*
X1097695Y1016998D01*
X1100196Y1016328D01*
X1102784D01*
X1105285Y1016998D01*
X1107527Y1018292D01*
X1109358Y1020123D01*
X1110652Y1022365D01*
X1111322Y1024866D01*
Y1027454D01*
X1110652Y1029955D01*
X1109358Y1032197D01*
X1107527Y1034027D01*
X1105285Y1035322D01*
X1102784Y1035992D01*
D02*
G37*
G36*
X848784D02*
X846196D01*
X843695Y1035322D01*
X841453Y1034027D01*
X839622Y1032197D01*
X838328Y1029955D01*
X837658Y1027454D01*
Y1024866D01*
X838328Y1022365D01*
X839622Y1020123D01*
X841453Y1018292D01*
X843695Y1016998D01*
X846196Y1016328D01*
X848784D01*
X851285Y1016998D01*
X853527Y1018292D01*
X855358Y1020123D01*
X856652Y1022365D01*
X857322Y1024866D01*
Y1027454D01*
X856652Y1029955D01*
X855358Y1032197D01*
X853527Y1034027D01*
X851285Y1035322D01*
X848784Y1035992D01*
D02*
G37*
G36*
X816512D02*
X813923D01*
X811423Y1035322D01*
X809181Y1034027D01*
X807350Y1032197D01*
X806056Y1029955D01*
X805386Y1027454D01*
Y1024866D01*
X806056Y1022365D01*
X807350Y1020123D01*
X809181Y1018292D01*
X811423Y1016998D01*
X813923Y1016328D01*
X816512D01*
X819013Y1016998D01*
X821255Y1018292D01*
X823085Y1020123D01*
X824380Y1022365D01*
X825050Y1024866D01*
Y1027454D01*
X824380Y1029955D01*
X823085Y1032197D01*
X821255Y1034027D01*
X819013Y1035322D01*
X816512Y1035992D01*
D02*
G37*
G36*
X895428Y1023620D02*
X888130D01*
Y1016322D01*
X889512Y1016692D01*
X891828Y1018030D01*
X893720Y1019922D01*
X895058Y1022238D01*
X895428Y1023620D01*
D02*
G37*
G36*
X883050D02*
X875752D01*
X876122Y1022238D01*
X877460Y1019922D01*
X879352Y1018030D01*
X881668Y1016692D01*
X883050Y1016322D01*
Y1023620D01*
D02*
G37*
G36*
X680770Y1010397D02*
X678730D01*
X676760Y1009869D01*
X674993Y1008849D01*
X674257Y1008113D01*
X673400Y1007512D01*
X672543Y1008113D01*
X671807Y1008849D01*
X670040Y1009869D01*
X668070Y1010397D01*
X666030D01*
X664060Y1009869D01*
X662293Y1008849D01*
X660851Y1007407D01*
X659831Y1005640D01*
X659303Y1003670D01*
Y1001630D01*
X659831Y999660D01*
X660851Y997893D01*
X661230Y997514D01*
X661220Y995794D01*
X660444Y995019D01*
X659358Y993136D01*
X659184Y992490D01*
X667050D01*
Y987410D01*
X659184D01*
X659358Y986764D01*
X660444Y984881D01*
X661220Y984106D01*
X661230Y982386D01*
X660851Y982007D01*
X659831Y980240D01*
X659303Y978270D01*
Y976230D01*
X659831Y974260D01*
X660851Y972493D01*
X661587Y971757D01*
X662188Y970900D01*
X661587Y970043D01*
X660851Y969307D01*
X659831Y967540D01*
X659303Y965570D01*
Y963530D01*
X659831Y961560D01*
X660851Y959793D01*
X661587Y959057D01*
X662188Y958200D01*
X661587Y957343D01*
X660851Y956607D01*
X659831Y954840D01*
X659303Y952870D01*
Y950830D01*
X659831Y948860D01*
X660851Y947093D01*
X662293Y945651D01*
X664060Y944631D01*
X666030Y944103D01*
X668070D01*
X670040Y944631D01*
X671807Y945651D01*
X672543Y946387D01*
X673400Y946988D01*
X674257Y946387D01*
X674993Y945651D01*
X676760Y944631D01*
X678730Y944103D01*
X680770D01*
X682740Y944631D01*
X684507Y945651D01*
X685949Y947093D01*
X686969Y948860D01*
X687497Y950830D01*
Y952870D01*
X686969Y954840D01*
X685949Y956607D01*
X685213Y957343D01*
X684612Y958200D01*
X685213Y959057D01*
X685949Y959793D01*
X686969Y961560D01*
X687497Y963530D01*
Y965570D01*
X686969Y967540D01*
X685949Y969307D01*
X685213Y970043D01*
X684612Y970900D01*
X685213Y971757D01*
X685949Y972493D01*
X686969Y974260D01*
X687497Y976230D01*
Y978270D01*
X686969Y980240D01*
X685949Y982007D01*
X685570Y982386D01*
X685580Y984106D01*
X686356Y984881D01*
X687442Y986764D01*
X687616Y987410D01*
X679750D01*
Y992490D01*
X687616D01*
X687442Y993136D01*
X686356Y995019D01*
X685580Y995794D01*
X685570Y997514D01*
X685949Y997893D01*
X686969Y999660D01*
X687497Y1001630D01*
Y1003670D01*
X686969Y1005640D01*
X685949Y1007407D01*
X684507Y1008849D01*
X682740Y1009869D01*
X680770Y1010397D01*
D02*
G37*
G36*
X1064661Y1010412D02*
X1062119D01*
X1059665Y1009754D01*
X1057464Y1008484D01*
X1055667Y1006686D01*
X1054396Y1004485D01*
X1053738Y1002031D01*
Y999489D01*
X1054396Y997035D01*
X1055667Y994834D01*
X1057464Y993036D01*
X1059665Y991766D01*
X1062119Y991108D01*
X1064661D01*
X1067115Y991766D01*
X1069316Y993036D01*
X1071114Y994834D01*
X1072384Y997035D01*
X1073042Y999489D01*
Y1002031D01*
X1072384Y1004485D01*
X1071114Y1006686D01*
X1069316Y1008484D01*
X1067115Y1009754D01*
X1064661Y1010412D01*
D02*
G37*
G36*
X886861D02*
X884319D01*
X881864Y1009754D01*
X879663Y1008484D01*
X877867Y1006686D01*
X876596Y1004485D01*
X875938Y1002031D01*
Y999489D01*
X876596Y997035D01*
X877867Y994834D01*
X879663Y993036D01*
X881864Y991766D01*
X884319Y991108D01*
X886861D01*
X889315Y991766D01*
X891516Y993036D01*
X893314Y994834D01*
X894584Y997035D01*
X895242Y999489D01*
Y1002031D01*
X894584Y1004485D01*
X893314Y1006686D01*
X891516Y1008484D01*
X889315Y1009754D01*
X886861Y1010412D01*
D02*
G37*
G36*
X1146712Y1010592D02*
X1144123D01*
X1141622Y1009922D01*
X1139380Y1008627D01*
X1137550Y1006797D01*
X1136255Y1004555D01*
X1135585Y1002054D01*
Y999466D01*
X1136255Y996965D01*
X1137550Y994723D01*
X1139380Y992893D01*
X1141622Y991598D01*
X1144123Y990928D01*
X1146712D01*
X1149212Y991598D01*
X1151454Y992893D01*
X1153285Y994723D01*
X1154579Y996965D01*
X1155249Y999466D01*
Y1002054D01*
X1154579Y1004555D01*
X1153285Y1006797D01*
X1151454Y1008627D01*
X1149212Y1009922D01*
X1146712Y1010592D01*
D02*
G37*
G36*
X1102784D02*
X1100196D01*
X1097695Y1009922D01*
X1095453Y1008627D01*
X1093623Y1006797D01*
X1092328Y1004555D01*
X1091658Y1002054D01*
Y999466D01*
X1092328Y996965D01*
X1093623Y994723D01*
X1095453Y992893D01*
X1097695Y991598D01*
X1100196Y990928D01*
X1102784D01*
X1105285Y991598D01*
X1107527Y992893D01*
X1109358Y994723D01*
X1110652Y996965D01*
X1111322Y999466D01*
Y1002054D01*
X1110652Y1004555D01*
X1109358Y1006797D01*
X1107527Y1008627D01*
X1105285Y1009922D01*
X1102784Y1010592D01*
D02*
G37*
G36*
X848784D02*
X846196D01*
X843695Y1009922D01*
X841453Y1008627D01*
X839622Y1006797D01*
X838328Y1004555D01*
X837658Y1002054D01*
Y999466D01*
X838328Y996965D01*
X839622Y994723D01*
X841453Y992893D01*
X843695Y991598D01*
X846196Y990928D01*
X848784D01*
X851285Y991598D01*
X853527Y992893D01*
X855358Y994723D01*
X856652Y996965D01*
X857322Y999466D01*
Y1002054D01*
X856652Y1004555D01*
X855358Y1006797D01*
X853527Y1008627D01*
X851285Y1009922D01*
X848784Y1010592D01*
D02*
G37*
G36*
X816512D02*
X813923D01*
X811423Y1009922D01*
X809181Y1008627D01*
X807350Y1006797D01*
X806056Y1004555D01*
X805386Y1002054D01*
Y999466D01*
X806056Y996965D01*
X807350Y994723D01*
X809181Y992893D01*
X811423Y991598D01*
X813923Y990928D01*
X816512D01*
X819013Y991598D01*
X821255Y992893D01*
X823085Y994723D01*
X824380Y996965D01*
X825050Y999466D01*
Y1002054D01*
X824380Y1004555D01*
X823085Y1006797D01*
X821255Y1008627D01*
X819013Y1009922D01*
X816512Y1010592D01*
D02*
G37*
G36*
X1064661Y985012D02*
X1062119D01*
X1059665Y984354D01*
X1057464Y983083D01*
X1055667Y981286D01*
X1054396Y979085D01*
X1053738Y976631D01*
Y974089D01*
X1054396Y971635D01*
X1055667Y969434D01*
X1057464Y967636D01*
X1059665Y966366D01*
X1062119Y965708D01*
X1064661D01*
X1067115Y966366D01*
X1069316Y967636D01*
X1071114Y969434D01*
X1072384Y971635D01*
X1073042Y974089D01*
Y976631D01*
X1072384Y979085D01*
X1071114Y981286D01*
X1069316Y983083D01*
X1067115Y984354D01*
X1064661Y985012D01*
D02*
G37*
G36*
X886861D02*
X884319D01*
X881864Y984354D01*
X879663Y983083D01*
X877867Y981286D01*
X876596Y979085D01*
X875938Y976631D01*
Y974089D01*
X876596Y971635D01*
X877867Y969434D01*
X879663Y967636D01*
X881864Y966366D01*
X884319Y965708D01*
X886861D01*
X889315Y966366D01*
X891516Y967636D01*
X893314Y969434D01*
X894584Y971635D01*
X895242Y974089D01*
Y976631D01*
X894584Y979085D01*
X893314Y981286D01*
X891516Y983083D01*
X889315Y984354D01*
X886861Y985012D01*
D02*
G37*
G36*
X1146712Y985192D02*
X1144123D01*
X1141622Y984522D01*
X1139380Y983227D01*
X1137550Y981397D01*
X1136255Y979155D01*
X1135585Y976654D01*
Y974066D01*
X1136255Y971565D01*
X1137550Y969323D01*
X1139380Y967493D01*
X1141622Y966198D01*
X1144123Y965528D01*
X1146712D01*
X1149212Y966198D01*
X1151454Y967493D01*
X1153285Y969323D01*
X1154579Y971565D01*
X1155249Y974066D01*
Y976654D01*
X1154579Y979155D01*
X1153285Y981397D01*
X1151454Y983227D01*
X1149212Y984522D01*
X1146712Y985192D01*
D02*
G37*
G36*
X1102784D02*
X1100196D01*
X1097695Y984522D01*
X1095453Y983227D01*
X1093623Y981397D01*
X1092328Y979155D01*
X1091658Y976654D01*
Y974066D01*
X1092328Y971565D01*
X1093623Y969323D01*
X1095453Y967493D01*
X1097695Y966198D01*
X1100196Y965528D01*
X1102784D01*
X1105285Y966198D01*
X1107527Y967493D01*
X1109358Y969323D01*
X1110652Y971565D01*
X1111322Y974066D01*
Y976654D01*
X1110652Y979155D01*
X1109358Y981397D01*
X1107527Y983227D01*
X1105285Y984522D01*
X1102784Y985192D01*
D02*
G37*
G36*
X848784D02*
X846196D01*
X843695Y984522D01*
X841453Y983227D01*
X839622Y981397D01*
X838328Y979155D01*
X837658Y976654D01*
Y974066D01*
X838328Y971565D01*
X839622Y969323D01*
X841453Y967493D01*
X843695Y966198D01*
X846196Y965528D01*
X848784D01*
X851285Y966198D01*
X853527Y967493D01*
X855358Y969323D01*
X856652Y971565D01*
X857322Y974066D01*
Y976654D01*
X856652Y979155D01*
X855358Y981397D01*
X853527Y983227D01*
X851285Y984522D01*
X848784Y985192D01*
D02*
G37*
G36*
X816512D02*
X813923D01*
X811423Y984522D01*
X809181Y983227D01*
X807350Y981397D01*
X806056Y979155D01*
X805386Y976654D01*
Y974066D01*
X806056Y971565D01*
X807350Y969323D01*
X809181Y967493D01*
X811423Y966198D01*
X813923Y965528D01*
X816512D01*
X819013Y966198D01*
X821255Y967493D01*
X823085Y969323D01*
X824380Y971565D01*
X825050Y974066D01*
Y976654D01*
X824380Y979155D01*
X823085Y981397D01*
X821255Y983227D01*
X819013Y984522D01*
X816512Y985192D01*
D02*
G37*
G36*
X886861Y959612D02*
X884319D01*
X881864Y958954D01*
X879663Y957683D01*
X877867Y955887D01*
X876596Y953686D01*
X875938Y951231D01*
Y948689D01*
X876596Y946235D01*
X877867Y944034D01*
X879663Y942236D01*
X881864Y940966D01*
X884319Y940308D01*
X886861D01*
X889315Y940966D01*
X891516Y942236D01*
X893314Y944034D01*
X894584Y946235D01*
X895242Y948689D01*
Y951231D01*
X894584Y953686D01*
X893314Y955887D01*
X891516Y957683D01*
X889315Y958954D01*
X886861Y959612D01*
D02*
G37*
G36*
X1146712Y959792D02*
X1144123D01*
X1141622Y959122D01*
X1139380Y957828D01*
X1137550Y955997D01*
X1136255Y953755D01*
X1135585Y951254D01*
Y948666D01*
X1136255Y946165D01*
X1137550Y943923D01*
X1139380Y942093D01*
X1141622Y940798D01*
X1144123Y940128D01*
X1146712D01*
X1149212Y940798D01*
X1151454Y942093D01*
X1153285Y943923D01*
X1154579Y946165D01*
X1155249Y948666D01*
Y951254D01*
X1154579Y953755D01*
X1153285Y955997D01*
X1151454Y957828D01*
X1149212Y959122D01*
X1146712Y959792D01*
D02*
G37*
G36*
X1102784D02*
X1100196D01*
X1097695Y959122D01*
X1095453Y957828D01*
X1093623Y955997D01*
X1092328Y953755D01*
X1091658Y951254D01*
Y948666D01*
X1092328Y946165D01*
X1093623Y943923D01*
X1095453Y942093D01*
X1097695Y940798D01*
X1100196Y940128D01*
X1102784D01*
X1105285Y940798D01*
X1107527Y942093D01*
X1109358Y943923D01*
X1110652Y946165D01*
X1111322Y948666D01*
Y951254D01*
X1110652Y953755D01*
X1109358Y955997D01*
X1107527Y957828D01*
X1105285Y959122D01*
X1102784Y959792D01*
D02*
G37*
G36*
X848784D02*
X846196D01*
X843695Y959122D01*
X841453Y957828D01*
X839622Y955997D01*
X838328Y953755D01*
X837658Y951254D01*
Y948666D01*
X838328Y946165D01*
X839622Y943923D01*
X841453Y942093D01*
X843695Y940798D01*
X846196Y940128D01*
X848784D01*
X851285Y940798D01*
X853527Y942093D01*
X855358Y943923D01*
X856652Y946165D01*
X857322Y948666D01*
Y951254D01*
X856652Y953755D01*
X855358Y955997D01*
X853527Y957828D01*
X851285Y959122D01*
X848784Y959792D01*
D02*
G37*
G36*
X816512D02*
X813923D01*
X811423Y959122D01*
X809181Y957828D01*
X807350Y955997D01*
X806056Y953755D01*
X805386Y951254D01*
Y948666D01*
X806056Y946165D01*
X807350Y943923D01*
X809181Y942093D01*
X811423Y940798D01*
X813923Y940128D01*
X816512D01*
X819013Y940798D01*
X821255Y942093D01*
X823085Y943923D01*
X824380Y946165D01*
X825050Y948666D01*
Y951254D01*
X824380Y953755D01*
X823085Y955997D01*
X821255Y957828D01*
X819013Y959122D01*
X816512Y959792D01*
D02*
G37*
G36*
X1146712Y934392D02*
X1144123D01*
X1141622Y933722D01*
X1139380Y932428D01*
X1137550Y930597D01*
X1136255Y928355D01*
X1135585Y925854D01*
Y923266D01*
X1136255Y920765D01*
X1137550Y918523D01*
X1139380Y916693D01*
X1141622Y915398D01*
X1144123Y914728D01*
X1146712D01*
X1149212Y915398D01*
X1151454Y916693D01*
X1153285Y918523D01*
X1154579Y920765D01*
X1155249Y923266D01*
Y925854D01*
X1154579Y928355D01*
X1153285Y930597D01*
X1151454Y932428D01*
X1149212Y933722D01*
X1146712Y934392D01*
D02*
G37*
G36*
X1102784D02*
X1100196D01*
X1097695Y933722D01*
X1095453Y932428D01*
X1093623Y930597D01*
X1092328Y928355D01*
X1091658Y925854D01*
Y923266D01*
X1092328Y920765D01*
X1093623Y918523D01*
X1095453Y916693D01*
X1097695Y915398D01*
X1100196Y914728D01*
X1102784D01*
X1105285Y915398D01*
X1107527Y916693D01*
X1109358Y918523D01*
X1110652Y920765D01*
X1111322Y923266D01*
Y925854D01*
X1110652Y928355D01*
X1109358Y930597D01*
X1107527Y932428D01*
X1105285Y933722D01*
X1102784Y934392D01*
D02*
G37*
G36*
X848784D02*
X846196D01*
X843695Y933722D01*
X841453Y932428D01*
X839622Y930597D01*
X838328Y928355D01*
X837658Y925854D01*
Y923266D01*
X838328Y920765D01*
X839622Y918523D01*
X841453Y916693D01*
X843695Y915398D01*
X846196Y914728D01*
X848784D01*
X851285Y915398D01*
X853527Y916693D01*
X855358Y918523D01*
X856652Y920765D01*
X857322Y923266D01*
Y925854D01*
X856652Y928355D01*
X855358Y930597D01*
X853527Y932428D01*
X851285Y933722D01*
X848784Y934392D01*
D02*
G37*
G36*
X816512D02*
X813923D01*
X811423Y933722D01*
X809181Y932428D01*
X807350Y930597D01*
X806056Y928355D01*
X805386Y925854D01*
Y923266D01*
X806056Y920765D01*
X807350Y918523D01*
X809181Y916693D01*
X811423Y915398D01*
X813923Y914728D01*
X816512D01*
X819013Y915398D01*
X821255Y916693D01*
X823085Y918523D01*
X824380Y920765D01*
X825050Y923266D01*
Y925854D01*
X824380Y928355D01*
X823085Y930597D01*
X821255Y932428D01*
X819013Y933722D01*
X816512Y934392D01*
D02*
G37*
G36*
X817757Y909184D02*
Y901700D01*
X825242D01*
X824853Y903151D01*
X823492Y905509D01*
X821566Y907434D01*
X819209Y908795D01*
X817757Y909184D01*
D02*
G37*
G36*
X850030D02*
Y901700D01*
X857514D01*
X857125Y903151D01*
X855764Y905509D01*
X853839Y907434D01*
X851481Y908795D01*
X850030Y909184D01*
D02*
G37*
G36*
X844950D02*
X843499Y908795D01*
X841141Y907434D01*
X839216Y905509D01*
X837855Y903151D01*
X837466Y901700D01*
X844950D01*
Y909184D01*
D02*
G37*
G36*
X812677Y909184D02*
X811226Y908795D01*
X808869Y907434D01*
X806943Y905509D01*
X805582Y903151D01*
X805193Y901700D01*
X812677D01*
Y909184D01*
D02*
G37*
G36*
X1146712Y908992D02*
X1144123D01*
X1141622Y908322D01*
X1139380Y907028D01*
X1137550Y905197D01*
X1136255Y902955D01*
X1135585Y900454D01*
Y897866D01*
X1136255Y895365D01*
X1137550Y893123D01*
X1139380Y891292D01*
X1141622Y889998D01*
X1144123Y889328D01*
X1146712D01*
X1149212Y889998D01*
X1151454Y891292D01*
X1153285Y893123D01*
X1154579Y895365D01*
X1155249Y897866D01*
Y900454D01*
X1154579Y902955D01*
X1153285Y905197D01*
X1151454Y907028D01*
X1149212Y908322D01*
X1146712Y908992D01*
D02*
G37*
G36*
X1102784D02*
X1100196D01*
X1097695Y908322D01*
X1095453Y907028D01*
X1093623Y905197D01*
X1092328Y902955D01*
X1091658Y900454D01*
Y897866D01*
X1092328Y895365D01*
X1093623Y893123D01*
X1095453Y891292D01*
X1097695Y889998D01*
X1100196Y889328D01*
X1102784D01*
X1105285Y889998D01*
X1107527Y891292D01*
X1109358Y893123D01*
X1110652Y895365D01*
X1111322Y897866D01*
Y900454D01*
X1110652Y902955D01*
X1109358Y905197D01*
X1107527Y907028D01*
X1105285Y908322D01*
X1102784Y908992D01*
D02*
G37*
G36*
X812677Y896620D02*
X805193D01*
X805582Y895169D01*
X806943Y892811D01*
X808869Y890886D01*
X811226Y889525D01*
X812677Y889136D01*
Y896620D01*
D02*
G37*
G36*
X857514D02*
X850030D01*
Y889136D01*
X851481Y889525D01*
X853839Y890886D01*
X855764Y892811D01*
X857125Y895169D01*
X857514Y896620D01*
D02*
G37*
G36*
X844950D02*
X837466D01*
X837855Y895169D01*
X839216Y892811D01*
X841141Y890886D01*
X843499Y889525D01*
X844950Y889136D01*
Y896620D01*
D02*
G37*
G36*
X825242D02*
X817757D01*
Y889136D01*
X819209Y889525D01*
X821566Y890886D01*
X823492Y892811D01*
X824853Y895169D01*
X825242Y896620D01*
D02*
G37*
G36*
X1146712Y883592D02*
X1144123D01*
X1141622Y882922D01*
X1139380Y881628D01*
X1137550Y879797D01*
X1136255Y877555D01*
X1135585Y875054D01*
Y872466D01*
X1136255Y869965D01*
X1137550Y867723D01*
X1139380Y865892D01*
X1141622Y864598D01*
X1144123Y863928D01*
X1146712D01*
X1149212Y864598D01*
X1151454Y865892D01*
X1153285Y867723D01*
X1154579Y869965D01*
X1155249Y872466D01*
Y875054D01*
X1154579Y877555D01*
X1153285Y879797D01*
X1151454Y881628D01*
X1149212Y882922D01*
X1146712Y883592D01*
D02*
G37*
G36*
X1102784D02*
X1100196D01*
X1097695Y882922D01*
X1095453Y881628D01*
X1093623Y879797D01*
X1092328Y877555D01*
X1091658Y875054D01*
Y872466D01*
X1092328Y869965D01*
X1093623Y867723D01*
X1095453Y865892D01*
X1097695Y864598D01*
X1100196Y863928D01*
X1102784D01*
X1105285Y864598D01*
X1107527Y865892D01*
X1109358Y867723D01*
X1110652Y869965D01*
X1111322Y872466D01*
Y875054D01*
X1110652Y877555D01*
X1109358Y879797D01*
X1107527Y881628D01*
X1105285Y882922D01*
X1102784Y883592D01*
D02*
G37*
G36*
X848784D02*
X846196D01*
X843695Y882922D01*
X841453Y881628D01*
X839622Y879797D01*
X838328Y877555D01*
X837658Y875054D01*
Y872466D01*
X838328Y869965D01*
X839622Y867723D01*
X841453Y865892D01*
X843695Y864598D01*
X846196Y863928D01*
X848784D01*
X851285Y864598D01*
X853527Y865892D01*
X855358Y867723D01*
X856652Y869965D01*
X857322Y872466D01*
Y875054D01*
X856652Y877555D01*
X855358Y879797D01*
X853527Y881628D01*
X851285Y882922D01*
X848784Y883592D01*
D02*
G37*
G36*
X816512D02*
X813923D01*
X811423Y882922D01*
X809181Y881628D01*
X807350Y879797D01*
X806056Y877555D01*
X805386Y875054D01*
Y872466D01*
X806056Y869965D01*
X807350Y867723D01*
X809181Y865892D01*
X811423Y864598D01*
X813923Y863928D01*
X816512D01*
X819013Y864598D01*
X821255Y865892D01*
X823085Y867723D01*
X824380Y869965D01*
X825050Y872466D01*
Y875054D01*
X824380Y877555D01*
X823085Y879797D01*
X821255Y881628D01*
X819013Y882922D01*
X816512Y883592D01*
D02*
G37*
G36*
X1070634Y874702D02*
X1068046D01*
X1065545Y874032D01*
X1063303Y872738D01*
X1061472Y870907D01*
X1060178Y868665D01*
X1059508Y866164D01*
Y863576D01*
X1060178Y861075D01*
X1061472Y858833D01*
X1063303Y857002D01*
X1065545Y855708D01*
X1068046Y855038D01*
X1070634D01*
X1073135Y855708D01*
X1075377Y857002D01*
X1077207Y858833D01*
X1078502Y861075D01*
X1079172Y863576D01*
Y866164D01*
X1078502Y868665D01*
X1077207Y870907D01*
X1075377Y872738D01*
X1073135Y874032D01*
X1070634Y874702D01*
D02*
G37*
G36*
X1146712Y858192D02*
X1144123D01*
X1141622Y857522D01*
X1139380Y856227D01*
X1137550Y854397D01*
X1136255Y852155D01*
X1135585Y849654D01*
Y847066D01*
X1136255Y844565D01*
X1137550Y842323D01*
X1139380Y840492D01*
X1141622Y839198D01*
X1144123Y838528D01*
X1146712D01*
X1149212Y839198D01*
X1151454Y840492D01*
X1153285Y842323D01*
X1154579Y844565D01*
X1155249Y847066D01*
Y849654D01*
X1154579Y852155D01*
X1153285Y854397D01*
X1151454Y856227D01*
X1149212Y857522D01*
X1146712Y858192D01*
D02*
G37*
G36*
X1102784D02*
X1100196D01*
X1097695Y857522D01*
X1095453Y856227D01*
X1093623Y854397D01*
X1092328Y852155D01*
X1091658Y849654D01*
Y847066D01*
X1092328Y844565D01*
X1093623Y842323D01*
X1095453Y840492D01*
X1097695Y839198D01*
X1100196Y838528D01*
X1102784D01*
X1105285Y839198D01*
X1107527Y840492D01*
X1109358Y842323D01*
X1110652Y844565D01*
X1111322Y847066D01*
Y849654D01*
X1110652Y852155D01*
X1109358Y854397D01*
X1107527Y856227D01*
X1105285Y857522D01*
X1102784Y858192D01*
D02*
G37*
G36*
X887754D02*
X885166D01*
X882665Y857522D01*
X880423Y856227D01*
X878593Y854397D01*
X877298Y852155D01*
X876628Y849654D01*
Y847066D01*
X877298Y844565D01*
X878593Y842323D01*
X880423Y840492D01*
X882665Y839198D01*
X885166Y838528D01*
X887754D01*
X890255Y839198D01*
X892497Y840492D01*
X894327Y842323D01*
X895622Y844565D01*
X896292Y847066D01*
Y849654D01*
X895622Y852155D01*
X894327Y854397D01*
X892497Y856227D01*
X890255Y857522D01*
X887754Y858192D01*
D02*
G37*
G36*
X848784D02*
X846196D01*
X843695Y857522D01*
X841453Y856227D01*
X839622Y854397D01*
X838328Y852155D01*
X837658Y849654D01*
Y847066D01*
X838328Y844565D01*
X839622Y842323D01*
X841453Y840492D01*
X843695Y839198D01*
X846196Y838528D01*
X848784D01*
X851285Y839198D01*
X853527Y840492D01*
X855358Y842323D01*
X856652Y844565D01*
X857322Y847066D01*
Y849654D01*
X856652Y852155D01*
X855358Y854397D01*
X853527Y856227D01*
X851285Y857522D01*
X848784Y858192D01*
D02*
G37*
G36*
X816512D02*
X813923D01*
X811423Y857522D01*
X809181Y856227D01*
X807350Y854397D01*
X806056Y852155D01*
X805386Y849654D01*
Y847066D01*
X806056Y844565D01*
X807350Y842323D01*
X809181Y840492D01*
X811423Y839198D01*
X813923Y838528D01*
X816512D01*
X819013Y839198D01*
X821255Y840492D01*
X823085Y842323D01*
X824380Y844565D01*
X825050Y847066D01*
Y849654D01*
X824380Y852155D01*
X823085Y854397D01*
X821255Y856227D01*
X819013Y857522D01*
X816512Y858192D01*
D02*
G37*
G36*
X1069364Y850572D02*
X1066776D01*
X1064275Y849902D01*
X1062033Y848607D01*
X1060202Y846777D01*
X1058908Y844535D01*
X1058238Y842034D01*
Y839446D01*
X1058908Y836945D01*
X1060202Y834703D01*
X1062033Y832872D01*
X1064275Y831578D01*
X1066776Y830908D01*
X1069364D01*
X1071865Y831578D01*
X1074107Y832872D01*
X1075938Y834703D01*
X1077232Y836945D01*
X1077902Y839446D01*
Y842034D01*
X1077232Y844535D01*
X1075938Y846777D01*
X1074107Y848607D01*
X1071865Y849902D01*
X1069364Y850572D01*
D02*
G37*
G36*
X1146712Y832792D02*
X1144123D01*
X1141622Y832122D01*
X1139380Y830827D01*
X1137550Y828997D01*
X1136255Y826755D01*
X1135585Y824254D01*
Y821666D01*
X1136255Y819165D01*
X1137550Y816923D01*
X1139380Y815092D01*
X1141622Y813798D01*
X1144123Y813128D01*
X1146712D01*
X1149212Y813798D01*
X1151454Y815092D01*
X1153285Y816923D01*
X1154579Y819165D01*
X1155249Y821666D01*
Y824254D01*
X1154579Y826755D01*
X1153285Y828997D01*
X1151454Y830827D01*
X1149212Y832122D01*
X1146712Y832792D01*
D02*
G37*
G36*
X1102784D02*
X1100196D01*
X1097695Y832122D01*
X1095453Y830827D01*
X1093623Y828997D01*
X1092328Y826755D01*
X1091658Y824254D01*
Y821666D01*
X1092328Y819165D01*
X1093623Y816923D01*
X1095453Y815092D01*
X1097695Y813798D01*
X1100196Y813128D01*
X1102784D01*
X1105285Y813798D01*
X1107527Y815092D01*
X1109358Y816923D01*
X1110652Y819165D01*
X1111322Y821666D01*
Y824254D01*
X1110652Y826755D01*
X1109358Y828997D01*
X1107527Y830827D01*
X1105285Y832122D01*
X1102784Y832792D01*
D02*
G37*
G36*
X887754D02*
X885166D01*
X882665Y832122D01*
X880423Y830827D01*
X878593Y828997D01*
X877298Y826755D01*
X876628Y824254D01*
Y821666D01*
X877298Y819165D01*
X878593Y816923D01*
X880423Y815092D01*
X882665Y813798D01*
X885166Y813128D01*
X887754D01*
X890255Y813798D01*
X892497Y815092D01*
X894327Y816923D01*
X895622Y819165D01*
X896292Y821666D01*
Y824254D01*
X895622Y826755D01*
X894327Y828997D01*
X892497Y830827D01*
X890255Y832122D01*
X887754Y832792D01*
D02*
G37*
G36*
X848784D02*
X846196D01*
X843695Y832122D01*
X841453Y830827D01*
X839622Y828997D01*
X838328Y826755D01*
X837658Y824254D01*
Y821666D01*
X838328Y819165D01*
X839622Y816923D01*
X841453Y815092D01*
X843695Y813798D01*
X846196Y813128D01*
X848784D01*
X851285Y813798D01*
X853527Y815092D01*
X855358Y816923D01*
X856652Y819165D01*
X857322Y821666D01*
Y824254D01*
X856652Y826755D01*
X855358Y828997D01*
X853527Y830827D01*
X851285Y832122D01*
X848784Y832792D01*
D02*
G37*
G36*
X816512D02*
X813923D01*
X811423Y832122D01*
X809181Y830827D01*
X807350Y828997D01*
X806056Y826755D01*
X805386Y824254D01*
Y821666D01*
X806056Y819165D01*
X807350Y816923D01*
X809181Y815092D01*
X811423Y813798D01*
X813923Y813128D01*
X816512D01*
X819013Y813798D01*
X821255Y815092D01*
X823085Y816923D01*
X824380Y819165D01*
X825050Y821666D01*
Y824254D01*
X824380Y826755D01*
X823085Y828997D01*
X821255Y830827D01*
X819013Y832122D01*
X816512Y832792D01*
D02*
G37*
G36*
X1146712Y807392D02*
X1144123D01*
X1141622Y806722D01*
X1139380Y805427D01*
X1137550Y803597D01*
X1136255Y801355D01*
X1135585Y798854D01*
Y796266D01*
X1136255Y793765D01*
X1137550Y791523D01*
X1139380Y789693D01*
X1141622Y788398D01*
X1144123Y787728D01*
X1146712D01*
X1149212Y788398D01*
X1151454Y789693D01*
X1153285Y791523D01*
X1154579Y793765D01*
X1155249Y796266D01*
Y798854D01*
X1154579Y801355D01*
X1153285Y803597D01*
X1151454Y805427D01*
X1149212Y806722D01*
X1146712Y807392D01*
D02*
G37*
G36*
X1102784D02*
X1100196D01*
X1097695Y806722D01*
X1095453Y805427D01*
X1093623Y803597D01*
X1092328Y801355D01*
X1091658Y798854D01*
Y796266D01*
X1092328Y793765D01*
X1093623Y791523D01*
X1095453Y789693D01*
X1097695Y788398D01*
X1100196Y787728D01*
X1102784D01*
X1105285Y788398D01*
X1107527Y789693D01*
X1109358Y791523D01*
X1110652Y793765D01*
X1111322Y796266D01*
Y798854D01*
X1110652Y801355D01*
X1109358Y803597D01*
X1107527Y805427D01*
X1105285Y806722D01*
X1102784Y807392D01*
D02*
G37*
G36*
X887754D02*
X885166D01*
X882665Y806722D01*
X880423Y805427D01*
X878593Y803597D01*
X877298Y801355D01*
X876628Y798854D01*
Y796266D01*
X877298Y793765D01*
X878593Y791523D01*
X880423Y789693D01*
X882665Y788398D01*
X885166Y787728D01*
X887754D01*
X890255Y788398D01*
X892497Y789693D01*
X894327Y791523D01*
X895622Y793765D01*
X896292Y796266D01*
Y798854D01*
X895622Y801355D01*
X894327Y803597D01*
X892497Y805427D01*
X890255Y806722D01*
X887754Y807392D01*
D02*
G37*
G36*
X848784D02*
X846196D01*
X843695Y806722D01*
X841453Y805427D01*
X839622Y803597D01*
X838328Y801355D01*
X837658Y798854D01*
Y796266D01*
X838328Y793765D01*
X839622Y791523D01*
X841453Y789693D01*
X843695Y788398D01*
X846196Y787728D01*
X848784D01*
X851285Y788398D01*
X853527Y789693D01*
X855358Y791523D01*
X856652Y793765D01*
X857322Y796266D01*
Y798854D01*
X856652Y801355D01*
X855358Y803597D01*
X853527Y805427D01*
X851285Y806722D01*
X848784Y807392D01*
D02*
G37*
G36*
X816512D02*
X813923D01*
X811423Y806722D01*
X809181Y805427D01*
X807350Y803597D01*
X806056Y801355D01*
X805386Y798854D01*
Y796266D01*
X806056Y793765D01*
X807350Y791523D01*
X809181Y789693D01*
X811423Y788398D01*
X813923Y787728D01*
X816512D01*
X819013Y788398D01*
X821255Y789693D01*
X823085Y791523D01*
X824380Y793765D01*
X825050Y796266D01*
Y798854D01*
X824380Y801355D01*
X823085Y803597D01*
X821255Y805427D01*
X819013Y806722D01*
X816512Y807392D01*
D02*
G37*
G36*
X1146712Y781992D02*
X1144123D01*
X1141622Y781322D01*
X1139380Y780027D01*
X1137550Y778197D01*
X1136255Y775955D01*
X1135585Y773454D01*
Y770866D01*
X1136255Y768365D01*
X1137550Y766123D01*
X1139380Y764293D01*
X1141622Y762998D01*
X1144123Y762328D01*
X1146712D01*
X1149212Y762998D01*
X1151454Y764293D01*
X1153285Y766123D01*
X1154579Y768365D01*
X1155249Y770866D01*
Y773454D01*
X1154579Y775955D01*
X1153285Y778197D01*
X1151454Y780027D01*
X1149212Y781322D01*
X1146712Y781992D01*
D02*
G37*
G36*
X1102784D02*
X1100196D01*
X1097695Y781322D01*
X1095453Y780027D01*
X1093623Y778197D01*
X1092328Y775955D01*
X1091658Y773454D01*
Y770866D01*
X1092328Y768365D01*
X1093623Y766123D01*
X1095453Y764293D01*
X1097695Y762998D01*
X1100196Y762328D01*
X1102784D01*
X1105285Y762998D01*
X1107527Y764293D01*
X1109358Y766123D01*
X1110652Y768365D01*
X1111322Y770866D01*
Y773454D01*
X1110652Y775955D01*
X1109358Y778197D01*
X1107527Y780027D01*
X1105285Y781322D01*
X1102784Y781992D01*
D02*
G37*
G36*
X848784D02*
X846196D01*
X843695Y781322D01*
X841453Y780027D01*
X839622Y778197D01*
X838328Y775955D01*
X837658Y773454D01*
Y770866D01*
X838328Y768365D01*
X839622Y766123D01*
X841453Y764293D01*
X843695Y762998D01*
X846196Y762328D01*
X848784D01*
X851285Y762998D01*
X853527Y764293D01*
X855358Y766123D01*
X856652Y768365D01*
X857322Y770866D01*
Y773454D01*
X856652Y775955D01*
X855358Y778197D01*
X853527Y780027D01*
X851285Y781322D01*
X848784Y781992D01*
D02*
G37*
G36*
X816512D02*
X813923D01*
X811423Y781322D01*
X809181Y780027D01*
X807350Y778197D01*
X806056Y775955D01*
X805386Y773454D01*
Y770866D01*
X806056Y768365D01*
X807350Y766123D01*
X809181Y764293D01*
X811423Y762998D01*
X813923Y762328D01*
X816512D01*
X819013Y762998D01*
X821255Y764293D01*
X823085Y766123D01*
X824380Y768365D01*
X825050Y770866D01*
Y773454D01*
X824380Y775955D01*
X823085Y778197D01*
X821255Y780027D01*
X819013Y781322D01*
X816512Y781992D01*
D02*
G37*
%LPD*%
G36*
X1073999Y1153859D02*
Y1068704D01*
X1066117Y1060822D01*
X1064661Y1061212D01*
X1062119D01*
X1059665Y1060554D01*
X1057464Y1059284D01*
X1056661Y1058481D01*
X1055391Y1059007D01*
Y1144416D01*
X1062946Y1151971D01*
X1064526Y1151548D01*
X1067114D01*
X1069615Y1152218D01*
X1071857Y1153512D01*
X1072729Y1154385D01*
X1073999Y1153859D01*
D02*
G37*
D33*
X713500Y1171250D02*
X714000Y1171750D01*
X753500D01*
X885480Y1161380D02*
X885780Y1161080D01*
X1050770Y1038780D02*
Y1146330D01*
Y1038780D02*
X1063390Y1026160D01*
X1050770Y1146330D02*
X1065820Y1161380D01*
X1065520Y1186480D02*
X1065820Y1186780D01*
X1078620Y1066790D02*
Y1173980D01*
X1063390Y1051560D02*
X1078620Y1066790D01*
X1065820Y1186780D02*
X1078620Y1173980D01*
D35*
X886460Y797560D02*
D03*
Y822960D02*
D03*
Y848360D02*
D03*
X815218Y772160D02*
D03*
Y797560D02*
D03*
X1145417Y772160D02*
D03*
X815218Y822960D02*
D03*
X1145417Y797560D02*
D03*
X815218Y848360D02*
D03*
X1145417Y822960D02*
D03*
X815218Y873760D02*
D03*
X1145417Y848360D02*
D03*
X815218Y899160D02*
D03*
X1145417Y873760D02*
D03*
X815218Y924560D02*
D03*
X1145417Y899160D02*
D03*
X815218Y949960D02*
D03*
X1145417Y924560D02*
D03*
X815218Y975360D02*
D03*
X1145417Y949960D02*
D03*
X815218Y1000760D02*
D03*
X1145417Y975360D02*
D03*
X815218Y1026160D02*
D03*
X1145417Y1000760D02*
D03*
X815218Y1051560D02*
D03*
X1145417Y1026160D02*
D03*
X815218Y1076960D02*
D03*
X1145417Y1051560D02*
D03*
X815218Y1102360D02*
D03*
X1145417Y1076960D02*
D03*
X815218Y1127760D02*
D03*
X1145417Y1102360D02*
D03*
X815218Y1153160D02*
D03*
X1145417Y1127760D02*
D03*
X815218Y1178560D02*
D03*
X1145417Y1153160D02*
D03*
X815218Y1203960D02*
D03*
X1145417Y1178560D02*
D03*
X815218Y1229360D02*
D03*
X1145417D02*
D03*
Y1203960D02*
D03*
X1101490Y1076960D02*
D03*
Y1229360D02*
D03*
X847490Y822960D02*
D03*
Y848360D02*
D03*
Y873760D02*
D03*
Y899160D02*
D03*
Y924560D02*
D03*
Y949960D02*
D03*
Y975360D02*
D03*
Y772160D02*
D03*
Y797560D02*
D03*
X1101490Y772160D02*
D03*
Y797560D02*
D03*
Y822960D02*
D03*
Y848360D02*
D03*
Y873760D02*
D03*
Y899160D02*
D03*
Y924560D02*
D03*
Y949960D02*
D03*
X847490Y1000760D02*
D03*
X1101490Y975360D02*
D03*
X847490Y1026160D02*
D03*
X1101490Y1000760D02*
D03*
X847490Y1051560D02*
D03*
X1101490Y1026160D02*
D03*
X847490Y1076960D02*
D03*
X1101490Y1051560D02*
D03*
X847490Y1102360D02*
D03*
Y1127760D02*
D03*
X1101490Y1102360D02*
D03*
X847490Y1153160D02*
D03*
X1101490Y1127760D02*
D03*
X847490Y1178560D02*
D03*
X1101490Y1153160D02*
D03*
X847490Y1203960D02*
D03*
X1101490Y1178560D02*
D03*
Y1203960D02*
D03*
X1068070Y840740D02*
D03*
X1069340Y864870D02*
D03*
X885480Y1161380D02*
D03*
X1065820D02*
D03*
Y1186780D02*
D03*
D36*
X885590Y1026160D02*
D03*
Y1076960D02*
D03*
X1063390Y1051560D02*
D03*
Y1026160D02*
D03*
X885590Y1051560D02*
D03*
X1063390Y1000760D02*
D03*
Y975360D02*
D03*
X885590Y949960D02*
D03*
Y975360D02*
D03*
Y1000760D02*
D03*
D37*
X847490Y1229360D02*
D03*
D38*
X667050Y1002650D02*
D03*
Y951850D02*
D03*
X679750D02*
D03*
X667050Y964550D02*
D03*
X679750D02*
D03*
X667050Y977250D02*
D03*
X679750D02*
D03*
X667050Y989950D02*
D03*
X679750D02*
D03*
Y1002650D02*
D03*
D39*
X1056640Y718820D02*
D03*
X675000Y1081250D02*
D03*
X1237250Y1129750D02*
D03*
D40*
X724250Y1099250D02*
D03*
X724000Y1202500D02*
D03*
D41*
X713500Y1171250D02*
D03*
X753500Y1171750D02*
D03*
X1243179Y864084D02*
D03*
M02*
