G04*
G04 #@! TF.GenerationSoftware,Altium Limited,Altium Designer,21.2.0 (30)*
G04*
G04 Layer_Color=32896*
%FSLAX25Y25*%
%MOIN*%
G70*
G04*
G04 #@! TF.SameCoordinates,B96C5F5D-6F64-4CBB-A979-4CA2DAF74F4E*
G04*
G04*
G04 #@! TF.FilePolarity,Positive*
G04*
G01*
G75*
%ADD12C,0.00591*%
%ADD42C,0.00787*%
%ADD43C,0.00787*%
D12*
X363198Y315574D02*
Y312426D01*
Y314000D01*
X361099D01*
Y315574D01*
Y312426D01*
X358475D02*
Y315574D01*
X360050Y314000D01*
X357950D01*
X356901Y315050D02*
X356376Y315574D01*
X355327D01*
X354802Y315050D01*
Y312950D01*
X355327Y312426D01*
X356376D01*
X356901Y312950D01*
Y315050D01*
X362673Y325574D02*
Y322426D01*
Y324000D01*
X360574D01*
Y325574D01*
Y322426D01*
X357950D02*
Y325574D01*
X359525Y324000D01*
X357426D01*
X356376Y322426D02*
X355327D01*
X355851D01*
Y325574D01*
X356376Y325049D01*
X363198Y335574D02*
Y332426D01*
Y334000D01*
X361099D01*
Y335574D01*
Y332426D01*
X358475D02*
Y335574D01*
X360050Y334000D01*
X357950D01*
X354802Y332426D02*
X356901D01*
X354802Y334525D01*
Y335050D01*
X355327Y335574D01*
X356376D01*
X356901Y335050D01*
X387466Y458267D02*
Y455643D01*
X386942Y455119D01*
X385892D01*
X385367Y455643D01*
Y458267D01*
X384318Y457743D02*
X383793Y458267D01*
X382743D01*
X382219Y457743D01*
Y457218D01*
X382743Y456693D01*
X383268D01*
X382743D01*
X382219Y456168D01*
Y455643D01*
X382743Y455119D01*
X383793D01*
X384318Y455643D01*
X290059Y404429D02*
X291109D01*
X290584D01*
Y401805D01*
X291109Y401280D01*
X291633D01*
X292158Y401805D01*
X289009Y401280D02*
X287960D01*
X288485D01*
Y404429D01*
X289009Y403904D01*
X268673Y401606D02*
Y400556D01*
Y401081D01*
X265524D01*
X266049Y401606D01*
X268199Y368291D02*
X268724Y367766D01*
Y366717D01*
X268199Y366192D01*
X266100D01*
X265576Y366717D01*
Y367766D01*
X266100Y368291D01*
X266625D01*
X267150Y367766D01*
Y366192D01*
X263417Y369291D02*
Y368242D01*
Y368766D01*
X260268D01*
X260793Y369291D01*
Y366667D02*
X260268Y366143D01*
Y365093D01*
X260793Y364568D01*
X262892D01*
X263417Y365093D01*
Y366143D01*
X262892Y366667D01*
X260793D01*
X263417Y400247D02*
Y402346D01*
X261318Y400247D01*
X260793D01*
X260268Y400772D01*
Y401821D01*
X260793Y402346D01*
X414198Y468574D02*
Y465426D01*
Y467000D01*
X412099D01*
Y468574D01*
Y465426D01*
X409475D02*
Y468574D01*
X411050Y467000D01*
X408951D01*
X405802Y468574D02*
X406851Y468049D01*
X407901Y467000D01*
Y465950D01*
X407376Y465426D01*
X406327D01*
X405802Y465950D01*
Y466475D01*
X406327Y467000D01*
X407901D01*
X415198Y342574D02*
Y339426D01*
Y341000D01*
X413099D01*
Y342574D01*
Y339426D01*
X410475D02*
Y342574D01*
X412049Y341000D01*
X409950D01*
X407327Y339426D02*
Y342574D01*
X408901Y341000D01*
X406802D01*
X415198Y332574D02*
Y329426D01*
Y331000D01*
X413099D01*
Y332574D01*
Y329426D01*
X410475D02*
Y332574D01*
X412049Y331000D01*
X409950D01*
X408901Y332049D02*
X408376Y332574D01*
X407327D01*
X406802Y332049D01*
Y331525D01*
X407327Y331000D01*
X407851D01*
X407327D01*
X406802Y330475D01*
Y329950D01*
X407327Y329426D01*
X408376D01*
X408901Y329950D01*
X363056Y458956D02*
Y455808D01*
Y457382D01*
X360957D01*
Y458956D01*
Y455808D01*
X359908Y458431D02*
X359383Y458956D01*
X358333D01*
X357809Y458431D01*
Y457907D01*
X358333Y457382D01*
X358858D01*
X358333D01*
X357809Y456857D01*
Y456332D01*
X358333Y455808D01*
X359383D01*
X359908Y456332D01*
X356759D02*
X356234Y455808D01*
X355185D01*
X354660Y456332D01*
Y458431D01*
X355185Y458956D01*
X356234D01*
X356759Y458431D01*
Y457907D01*
X356234Y457382D01*
X354660D01*
X414198Y458574D02*
Y455426D01*
Y457000D01*
X412099D01*
Y458574D01*
Y455426D01*
X409475D02*
Y458574D01*
X411050Y457000D01*
X408951D01*
X405802Y458574D02*
X407901D01*
Y457000D01*
X406851Y457525D01*
X406327D01*
X405802Y457000D01*
Y455950D01*
X406327Y455426D01*
X407376D01*
X407901Y455950D01*
D42*
X342752Y345654D02*
X424445D01*
Y452248D01*
X342752D02*
X424445D01*
X342752Y345654D02*
Y452248D01*
D43*
X258591Y370543D02*
X296240D01*
X258591D02*
Y398937D01*
X296240Y370543D02*
Y398937D01*
X258591D02*
X296240D01*
M02*
