G04*
G04 #@! TF.GenerationSoftware,Altium Limited,Altium Designer,21.2.0 (30)*
G04*
G04 Layer_Color=65535*
%FSLAX25Y25*%
%MOIN*%
G70*
G04*
G04 #@! TF.SameCoordinates,B96C5F5D-6F64-4CBB-A979-4CA2DAF74F4E*
G04*
G04*
G04 #@! TF.FilePolarity,Positive*
G04*
G01*
G75*
%ADD10C,0.00500*%
%ADD11C,0.00600*%
%ADD12C,0.00591*%
%ADD13C,0.00300*%
D10*
X328736Y298921D02*
X438579D01*
Y513095D01*
X328736D02*
X438579D01*
X328736Y298921D02*
Y513095D01*
D11*
X294760Y448600D02*
Y456500D01*
X286830Y448600D02*
X289690D01*
X281760D02*
Y456500D01*
D12*
X307016Y305574D02*
Y302426D01*
Y304000D01*
X309115D01*
Y305574D01*
Y302426D01*
X310165D02*
X311214D01*
X310689D01*
Y305574D01*
X310165Y305049D01*
X312789Y302951D02*
X313313Y302426D01*
X314363D01*
X314887Y302951D01*
Y305049D01*
X314363Y305574D01*
X313313D01*
X312789Y305049D01*
Y304525D01*
X313313Y304000D01*
X314887D01*
X307016Y315574D02*
Y312426D01*
Y314000D01*
X309115D01*
Y315574D01*
Y312426D01*
X310165D02*
X311214D01*
X310689D01*
Y315574D01*
X310165Y315050D01*
X312789D02*
X313313Y315574D01*
X314363D01*
X314887Y315050D01*
Y314525D01*
X314363Y314000D01*
X314887Y313475D01*
Y312950D01*
X314363Y312426D01*
X313313D01*
X312789Y312950D01*
Y313475D01*
X313313Y314000D01*
X312789Y314525D01*
Y315050D01*
X313313Y314000D02*
X314363D01*
X456754Y305574D02*
Y302426D01*
Y304000D01*
X458853D01*
Y305574D01*
Y302426D01*
X459902Y305049D02*
X460427Y305574D01*
X461477D01*
X462001Y305049D01*
Y304525D01*
X461477Y304000D01*
X460952D01*
X461477D01*
X462001Y303475D01*
Y302951D01*
X461477Y302426D01*
X460427D01*
X459902Y302951D01*
X463051Y305049D02*
X463576Y305574D01*
X464625D01*
X465150Y305049D01*
Y304525D01*
X464625Y304000D01*
X465150Y303475D01*
Y302951D01*
X464625Y302426D01*
X463576D01*
X463051Y302951D01*
Y303475D01*
X463576Y304000D01*
X463051Y304525D01*
Y305049D01*
X463576Y304000D02*
X464625D01*
X307016Y325574D02*
Y322426D01*
Y324000D01*
X309115D01*
Y325574D01*
Y322426D01*
X310165D02*
X311214D01*
X310689D01*
Y325574D01*
X310165Y325049D01*
X312789Y325574D02*
X314887D01*
Y325049D01*
X312789Y322951D01*
Y322426D01*
X456754Y315574D02*
Y312426D01*
Y314000D01*
X458853D01*
Y315574D01*
Y312426D01*
X459902Y315050D02*
X460427Y315574D01*
X461477D01*
X462001Y315050D01*
Y314525D01*
X461477Y314000D01*
X460952D01*
X461477D01*
X462001Y313475D01*
Y312950D01*
X461477Y312426D01*
X460427D01*
X459902Y312950D01*
X463051Y315574D02*
X465150D01*
Y315050D01*
X463051Y312950D01*
Y312426D01*
X307016Y335574D02*
Y332426D01*
Y334000D01*
X309115D01*
Y335574D01*
Y332426D01*
X310165D02*
X311214D01*
X310689D01*
Y335574D01*
X310165Y335050D01*
X314887Y335574D02*
X313838Y335050D01*
X312789Y334000D01*
Y332950D01*
X313313Y332426D01*
X314363D01*
X314887Y332950D01*
Y333475D01*
X314363Y334000D01*
X312789D01*
X456754Y325574D02*
Y322426D01*
Y324000D01*
X458853D01*
Y325574D01*
Y322426D01*
X459902Y325049D02*
X460427Y325574D01*
X461477D01*
X462001Y325049D01*
Y324525D01*
X461477Y324000D01*
X460952D01*
X461477D01*
X462001Y323475D01*
Y322951D01*
X461477Y322426D01*
X460427D01*
X459902Y322951D01*
X465150Y325574D02*
X464100Y325049D01*
X463051Y324000D01*
Y322951D01*
X463576Y322426D01*
X464625D01*
X465150Y322951D01*
Y323475D01*
X464625Y324000D01*
X463051D01*
X307016Y345574D02*
Y342426D01*
Y344000D01*
X309115D01*
Y345574D01*
Y342426D01*
X310165D02*
X311214D01*
X310689D01*
Y345574D01*
X310165Y345050D01*
X314887Y345574D02*
X312789D01*
Y344000D01*
X313838Y344525D01*
X314363D01*
X314887Y344000D01*
Y342951D01*
X314363Y342426D01*
X313313D01*
X312789Y342951D01*
X456754Y335574D02*
Y332426D01*
Y334000D01*
X458853D01*
Y335574D01*
Y332426D01*
X459902Y335050D02*
X460427Y335574D01*
X461477D01*
X462001Y335050D01*
Y334525D01*
X461477Y334000D01*
X460952D01*
X461477D01*
X462001Y333475D01*
Y332950D01*
X461477Y332426D01*
X460427D01*
X459902Y332950D01*
X465150Y335574D02*
X463051D01*
Y334000D01*
X464100Y334525D01*
X464625D01*
X465150Y334000D01*
Y332950D01*
X464625Y332426D01*
X463576D01*
X463051Y332950D01*
X307016Y355574D02*
Y352426D01*
Y354000D01*
X309115D01*
Y355574D01*
Y352426D01*
X310165D02*
X311214D01*
X310689D01*
Y355574D01*
X310165Y355049D01*
X314363Y352426D02*
Y355574D01*
X312789Y354000D01*
X314887D01*
X456754Y345574D02*
Y342426D01*
Y344000D01*
X458853D01*
Y345574D01*
Y342426D01*
X459902Y345050D02*
X460427Y345574D01*
X461477D01*
X462001Y345050D01*
Y344525D01*
X461477Y344000D01*
X460952D01*
X461477D01*
X462001Y343475D01*
Y342951D01*
X461477Y342426D01*
X460427D01*
X459902Y342951D01*
X464625Y342426D02*
Y345574D01*
X463051Y344000D01*
X465150D01*
X307016Y365574D02*
Y362426D01*
Y364000D01*
X309115D01*
Y365574D01*
Y362426D01*
X310165D02*
X311214D01*
X310689D01*
Y365574D01*
X310165Y365050D01*
X312789D02*
X313313Y365574D01*
X314363D01*
X314887Y365050D01*
Y364525D01*
X314363Y364000D01*
X313838D01*
X314363D01*
X314887Y363475D01*
Y362950D01*
X314363Y362426D01*
X313313D01*
X312789Y362950D01*
X456754Y355574D02*
Y352426D01*
Y354000D01*
X458853D01*
Y355574D01*
Y352426D01*
X459902Y355049D02*
X460427Y355574D01*
X461477D01*
X462001Y355049D01*
Y354525D01*
X461477Y354000D01*
X460952D01*
X461477D01*
X462001Y353475D01*
Y352951D01*
X461477Y352426D01*
X460427D01*
X459902Y352951D01*
X463051Y355049D02*
X463576Y355574D01*
X464625D01*
X465150Y355049D01*
Y354525D01*
X464625Y354000D01*
X464100D01*
X464625D01*
X465150Y353475D01*
Y352951D01*
X464625Y352426D01*
X463576D01*
X463051Y352951D01*
X307016Y375574D02*
Y372426D01*
Y374000D01*
X309115D01*
Y375574D01*
Y372426D01*
X310165D02*
X311214D01*
X310689D01*
Y375574D01*
X310165Y375049D01*
X314887Y372426D02*
X312789D01*
X314887Y374525D01*
Y375049D01*
X314363Y375574D01*
X313313D01*
X312789Y375049D01*
X456754Y365574D02*
Y362426D01*
Y364000D01*
X458853D01*
Y365574D01*
Y362426D01*
X459902Y365050D02*
X460427Y365574D01*
X461477D01*
X462001Y365050D01*
Y364525D01*
X461477Y364000D01*
X460952D01*
X461477D01*
X462001Y363475D01*
Y362950D01*
X461477Y362426D01*
X460427D01*
X459902Y362950D01*
X465150Y362426D02*
X463051D01*
X465150Y364525D01*
Y365050D01*
X464625Y365574D01*
X463576D01*
X463051Y365050D01*
X307541Y385574D02*
Y382426D01*
Y384000D01*
X309640D01*
Y385574D01*
Y382426D01*
X310689D02*
X311739D01*
X311214D01*
Y385574D01*
X310689Y385050D01*
X313313Y382426D02*
X314363D01*
X313838D01*
Y385574D01*
X313313Y385050D01*
X457278Y375574D02*
Y372426D01*
Y374000D01*
X459377D01*
Y375574D01*
Y372426D01*
X460427Y375049D02*
X460952Y375574D01*
X462001D01*
X462526Y375049D01*
Y374525D01*
X462001Y374000D01*
X461477D01*
X462001D01*
X462526Y373475D01*
Y372951D01*
X462001Y372426D01*
X460952D01*
X460427Y372951D01*
X463576Y372426D02*
X464625D01*
X464100D01*
Y375574D01*
X463576Y375049D01*
X307016Y395574D02*
Y392426D01*
Y394000D01*
X309115D01*
Y395574D01*
Y392426D01*
X310165D02*
X311214D01*
X310689D01*
Y395574D01*
X310165Y395050D01*
X312789D02*
X313313Y395574D01*
X314363D01*
X314887Y395050D01*
Y392951D01*
X314363Y392426D01*
X313313D01*
X312789Y392951D01*
Y395050D01*
X456754Y385574D02*
Y382426D01*
Y384000D01*
X458853D01*
Y385574D01*
Y382426D01*
X459902Y385050D02*
X460427Y385574D01*
X461477D01*
X462001Y385050D01*
Y384525D01*
X461477Y384000D01*
X460952D01*
X461477D01*
X462001Y383475D01*
Y382950D01*
X461477Y382426D01*
X460427D01*
X459902Y382950D01*
X463051Y385050D02*
X463576Y385574D01*
X464625D01*
X465150Y385050D01*
Y382950D01*
X464625Y382426D01*
X463576D01*
X463051Y382950D01*
Y385050D01*
X308328Y405574D02*
Y402426D01*
Y404000D01*
X310427D01*
Y405574D01*
Y402426D01*
X311476Y402950D02*
X312001Y402426D01*
X313051D01*
X313576Y402950D01*
Y405050D01*
X313051Y405574D01*
X312001D01*
X311476Y405050D01*
Y404525D01*
X312001Y404000D01*
X313576D01*
X456754Y395574D02*
Y392426D01*
Y394000D01*
X458853D01*
Y395574D01*
Y392426D01*
X462001D02*
X459902D01*
X462001Y394525D01*
Y395050D01*
X461477Y395574D01*
X460427D01*
X459902Y395050D01*
X463051Y392951D02*
X463576Y392426D01*
X464625D01*
X465150Y392951D01*
Y395050D01*
X464625Y395574D01*
X463576D01*
X463051Y395050D01*
Y394525D01*
X463576Y394000D01*
X465150D01*
X308328Y415574D02*
Y412426D01*
Y414000D01*
X310427D01*
Y415574D01*
Y412426D01*
X311476Y415050D02*
X312001Y415574D01*
X313051D01*
X313576Y415050D01*
Y414525D01*
X313051Y414000D01*
X313576Y413475D01*
Y412951D01*
X313051Y412426D01*
X312001D01*
X311476Y412951D01*
Y413475D01*
X312001Y414000D01*
X311476Y414525D01*
Y415050D01*
X312001Y414000D02*
X313051D01*
X456754Y405574D02*
Y402426D01*
Y404000D01*
X458853D01*
Y405574D01*
Y402426D01*
X462001D02*
X459902D01*
X462001Y404525D01*
Y405050D01*
X461477Y405574D01*
X460427D01*
X459902Y405050D01*
X463051D02*
X463576Y405574D01*
X464625D01*
X465150Y405050D01*
Y404525D01*
X464625Y404000D01*
X465150Y403475D01*
Y402950D01*
X464625Y402426D01*
X463576D01*
X463051Y402950D01*
Y403475D01*
X463576Y404000D01*
X463051Y404525D01*
Y405050D01*
X463576Y404000D02*
X464625D01*
X308328Y425574D02*
Y422426D01*
Y424000D01*
X310427D01*
Y425574D01*
Y422426D01*
X311476Y425574D02*
X313576D01*
Y425049D01*
X311476Y422951D01*
Y422426D01*
X456754Y415574D02*
Y412426D01*
Y414000D01*
X458853D01*
Y415574D01*
Y412426D01*
X462001D02*
X459902D01*
X462001Y414525D01*
Y415050D01*
X461477Y415574D01*
X460427D01*
X459902Y415050D01*
X463051Y415574D02*
X465150D01*
Y415050D01*
X463051Y412951D01*
Y412426D01*
X308328Y435574D02*
Y432426D01*
Y434000D01*
X310427D01*
Y435574D01*
Y432426D01*
X313576Y435574D02*
X312526Y435049D01*
X311476Y434000D01*
Y432950D01*
X312001Y432426D01*
X313051D01*
X313576Y432950D01*
Y433475D01*
X313051Y434000D01*
X311476D01*
X456754Y425574D02*
Y422426D01*
Y424000D01*
X458853D01*
Y425574D01*
Y422426D01*
X462001D02*
X459902D01*
X462001Y424525D01*
Y425049D01*
X461477Y425574D01*
X460427D01*
X459902Y425049D01*
X465150Y425574D02*
X464100Y425049D01*
X463051Y424000D01*
Y422951D01*
X463576Y422426D01*
X464625D01*
X465150Y422951D01*
Y423475D01*
X464625Y424000D01*
X463051D01*
X308328Y445574D02*
Y442426D01*
Y444000D01*
X310427D01*
Y445574D01*
Y442426D01*
X313576Y445574D02*
X311476D01*
Y444000D01*
X312526Y444525D01*
X313051D01*
X313576Y444000D01*
Y442950D01*
X313051Y442426D01*
X312001D01*
X311476Y442950D01*
X456754Y435574D02*
Y432426D01*
Y434000D01*
X458853D01*
Y435574D01*
Y432426D01*
X462001D02*
X459902D01*
X462001Y434525D01*
Y435049D01*
X461477Y435574D01*
X460427D01*
X459902Y435049D01*
X465150Y435574D02*
X463051D01*
Y434000D01*
X464100Y434525D01*
X464625D01*
X465150Y434000D01*
Y432950D01*
X464625Y432426D01*
X463576D01*
X463051Y432950D01*
X308328Y455574D02*
Y452426D01*
Y454000D01*
X310427D01*
Y455574D01*
Y452426D01*
X313051D02*
Y455574D01*
X311476Y454000D01*
X313576D01*
X456754Y445574D02*
Y442426D01*
Y444000D01*
X458853D01*
Y445574D01*
Y442426D01*
X462001D02*
X459902D01*
X462001Y444525D01*
Y445049D01*
X461477Y445574D01*
X460427D01*
X459902Y445049D01*
X464625Y442426D02*
Y445574D01*
X463051Y444000D01*
X465150D01*
X308328Y465574D02*
Y462426D01*
Y464000D01*
X310427D01*
Y465574D01*
Y462426D01*
X311476Y465050D02*
X312001Y465574D01*
X313051D01*
X313576Y465050D01*
Y464525D01*
X313051Y464000D01*
X312526D01*
X313051D01*
X313576Y463475D01*
Y462951D01*
X313051Y462426D01*
X312001D01*
X311476Y462951D01*
X456754Y455574D02*
Y452426D01*
Y454000D01*
X458853D01*
Y455574D01*
Y452426D01*
X462001D02*
X459902D01*
X462001Y454525D01*
Y455050D01*
X461477Y455574D01*
X460427D01*
X459902Y455050D01*
X463051D02*
X463576Y455574D01*
X464625D01*
X465150Y455050D01*
Y454525D01*
X464625Y454000D01*
X464100D01*
X464625D01*
X465150Y453475D01*
Y452950D01*
X464625Y452426D01*
X463576D01*
X463051Y452950D01*
X308328Y475574D02*
Y472426D01*
Y474000D01*
X310427D01*
Y475574D01*
Y472426D01*
X313576D02*
X311476D01*
X313576Y474525D01*
Y475049D01*
X313051Y475574D01*
X312001D01*
X311476Y475049D01*
X456754Y465574D02*
Y462426D01*
Y464000D01*
X458853D01*
Y465574D01*
Y462426D01*
X462001D02*
X459902D01*
X462001Y464525D01*
Y465050D01*
X461477Y465574D01*
X460427D01*
X459902Y465050D01*
X465150Y462426D02*
X463051D01*
X465150Y464525D01*
Y465050D01*
X464625Y465574D01*
X463576D01*
X463051Y465050D01*
X308853Y485574D02*
Y482426D01*
Y484000D01*
X310952D01*
Y485574D01*
Y482426D01*
X312001D02*
X313051D01*
X312526D01*
Y485574D01*
X312001Y485049D01*
X456754Y485574D02*
Y482426D01*
Y484000D01*
X458853D01*
Y485574D01*
Y482426D01*
X462001D02*
X459902D01*
X462001Y484525D01*
Y485049D01*
X461477Y485574D01*
X460427D01*
X459902Y485049D01*
X463051D02*
X463576Y485574D01*
X464625D01*
X465150Y485049D01*
Y482950D01*
X464625Y482426D01*
X463576D01*
X463051Y482950D01*
Y485049D01*
X457278Y475574D02*
Y472426D01*
Y474000D01*
X459377D01*
Y475574D01*
Y472426D01*
X462526D02*
X460427D01*
X462526Y474525D01*
Y475049D01*
X462001Y475574D01*
X460952D01*
X460427Y475049D01*
X463576Y472426D02*
X464625D01*
X464100D01*
Y475574D01*
X463576Y475049D01*
X325700Y519949D02*
Y517325D01*
X326225Y516800D01*
X327274D01*
X327799Y517325D01*
Y519949D01*
X330948Y516800D02*
X328849D01*
X330948Y518899D01*
Y519424D01*
X330423Y519949D01*
X329373D01*
X328849Y519424D01*
X474795Y416234D02*
Y419383D01*
X476369D01*
X476894Y418858D01*
Y417809D01*
X476369Y417284D01*
X474795D01*
X475845D02*
X476894Y416234D01*
X480043D02*
X477944D01*
X480043Y418333D01*
Y418858D01*
X479518Y419383D01*
X478468D01*
X477944Y418858D01*
X278019Y389469D02*
Y392618D01*
X279593D01*
X280118Y392093D01*
Y391043D01*
X279593Y390519D01*
X278019D01*
X279069D02*
X280118Y389469D01*
X281168D02*
X282217D01*
X281692D01*
Y392618D01*
X281168Y392093D01*
X466766Y379430D02*
Y382578D01*
X468340D01*
X468865Y382053D01*
Y381004D01*
X468340Y380479D01*
X466766D01*
X467815D02*
X468865Y379430D01*
X469914Y382578D02*
X472014D01*
Y382053D01*
X469914Y379954D01*
Y379430D01*
X466569Y371063D02*
Y374212D01*
X468143D01*
X468668Y373687D01*
Y372638D01*
X468143Y372113D01*
X466569D01*
X467619D02*
X468668Y371063D01*
X471817Y374212D02*
X470767Y373687D01*
X469718Y372638D01*
Y371588D01*
X470243Y371063D01*
X471292D01*
X471817Y371588D01*
Y372113D01*
X471292Y372638D01*
X469718D01*
X466766Y362894D02*
Y366043D01*
X468340D01*
X468865Y365518D01*
Y364469D01*
X468340Y363944D01*
X466766D01*
X467815D02*
X468865Y362894D01*
X472014Y366043D02*
X469914D01*
Y364469D01*
X470964Y364993D01*
X471489D01*
X472014Y364469D01*
Y363419D01*
X471489Y362894D01*
X470439D01*
X469914Y363419D01*
X466397Y354578D02*
Y357727D01*
X467972D01*
X468496Y357202D01*
Y356153D01*
X467972Y355628D01*
X466397D01*
X467447D02*
X468496Y354578D01*
X471120D02*
Y357727D01*
X469546Y356153D01*
X471645D01*
X466569Y346556D02*
Y349704D01*
X468143D01*
X468668Y349180D01*
Y348130D01*
X468143Y347605D01*
X466569D01*
X467619D02*
X468668Y346556D01*
X469718Y349180D02*
X470243Y349704D01*
X471292D01*
X471817Y349180D01*
Y348655D01*
X471292Y348130D01*
X470767D01*
X471292D01*
X471817Y347605D01*
Y347080D01*
X471292Y346556D01*
X470243D01*
X469718Y347080D01*
X493243Y382480D02*
Y379331D01*
X495342D01*
X498491Y382480D02*
X496392D01*
Y379331D01*
X498491D01*
X496392Y380906D02*
X497441D01*
X499541Y382480D02*
Y379331D01*
X501115D01*
X501640Y379856D01*
Y381955D01*
X501115Y382480D01*
X499541D01*
X504788D02*
X502689D01*
Y380906D01*
X503739Y381430D01*
X504263D01*
X504788Y380906D01*
Y379856D01*
X504263Y379331D01*
X503214D01*
X502689Y379856D01*
X493342Y374212D02*
Y371063D01*
X495441D01*
X498589Y374212D02*
X496490D01*
Y371063D01*
X498589D01*
X496490Y372638D02*
X497540D01*
X499639Y374212D02*
Y371063D01*
X501213D01*
X501738Y371588D01*
Y373687D01*
X501213Y374212D01*
X499639D01*
X504362Y371063D02*
Y374212D01*
X502787Y372638D01*
X504887D01*
X493243Y366240D02*
Y363091D01*
X495342D01*
X498491Y366240D02*
X496392D01*
Y363091D01*
X498491D01*
X496392Y364665D02*
X497441D01*
X499541Y366240D02*
Y363091D01*
X501115D01*
X501640Y363616D01*
Y365715D01*
X501115Y366240D01*
X499541D01*
X502689Y365715D02*
X503214Y366240D01*
X504263D01*
X504788Y365715D01*
Y365190D01*
X504263Y364665D01*
X503739D01*
X504263D01*
X504788Y364141D01*
Y363616D01*
X504263Y363091D01*
X503214D01*
X502689Y363616D01*
X493243Y357578D02*
Y354430D01*
X495342D01*
X498491Y357578D02*
X496392D01*
Y354430D01*
X498491D01*
X496392Y356004D02*
X497441D01*
X499541Y357578D02*
Y354430D01*
X501115D01*
X501640Y354954D01*
Y357053D01*
X501115Y357578D01*
X499541D01*
X504788Y354430D02*
X502689D01*
X504788Y356529D01*
Y357053D01*
X504263Y357578D01*
X503214D01*
X502689Y357053D01*
X493473Y349803D02*
Y346654D01*
X495572D01*
X498721Y349803D02*
X496621D01*
Y346654D01*
X498721D01*
X496621Y348228D02*
X497671D01*
X499770Y349803D02*
Y346654D01*
X501344D01*
X501869Y347179D01*
Y349278D01*
X501344Y349803D01*
X499770D01*
X502919Y346654D02*
X503968D01*
X503443D01*
Y349803D01*
X502919Y349278D01*
X279724Y441404D02*
X279200Y441929D01*
X278150D01*
X277625Y441404D01*
Y439305D01*
X278150Y438780D01*
X279200D01*
X279724Y439305D01*
X280774Y438780D02*
X281823D01*
X281299D01*
Y441929D01*
X280774Y441404D01*
X286699Y475624D02*
X286174Y476149D01*
X285125D01*
X284600Y475624D01*
Y473525D01*
X285125Y473000D01*
X286174D01*
X286699Y473525D01*
X289848Y473000D02*
X287749D01*
X289848Y475099D01*
Y475624D01*
X289323Y476149D01*
X288273D01*
X287749Y475624D01*
X276575Y451051D02*
X279199D01*
X279724Y451575D01*
Y452625D01*
X279199Y453150D01*
X276575D01*
X279724Y454199D02*
Y455249D01*
Y454724D01*
X276575D01*
X277100Y454199D01*
D13*
X297665Y460214D02*
X294333Y456882D01*
Y460214D02*
X297665Y456882D01*
X295999Y460214D02*
Y456882D01*
X294333Y458548D02*
X297665D01*
M02*
