M48
;Layer_Color=9474304
;FILE_FORMAT=4:4
METRIC,LZ
;TYPE=PLATED
T1F00S00C0.3000
T2F00S00C0.6000
T3F00S00C0.7099
T4F00S00C1.0200
T5F00S00C1.0400
T6F00S00C5.0000
%
T01
X007135Y0117125
X007535Y0117175
X01243179Y00864084
T02
X0072425Y0109925
X00724Y012025
T03
X0066705Y0095185
X0067975
Y0096455
X0066705
Y0097725
X0067975
Y0098995
X0066705
Y0100265
X0067975
T04
X0088559Y0094996
Y0097536
Y0100076
Y0102616
Y0105156
Y0107696
X0106339Y0105156
Y0102616
Y0100076
Y0097536
T05
X00815218Y0077216
X0084749
X0110149
X01145417
Y0079756
Y0082296
Y0084836
Y0087376
Y0089916
Y0092456
Y0094996
Y0097536
Y0100076
Y0102616
Y0105156
Y0107696
Y0110236
Y0112776
Y0115316
Y0117856
X0110149
Y0115316
Y0112776
Y0110236
Y0107696
Y0105156
Y0102616
Y0100076
Y0097536
Y0094996
Y0092456
Y0089916
Y0087376
Y0084836
Y0082296
Y0079756
X0106807Y0084074
X0106934Y0086487
X0088646Y0084836
Y0082296
Y0079756
X0084749
Y0082296
Y0084836
Y0087376
Y0089916
Y0092456
Y0094996
Y0097536
Y0100076
Y0102616
Y0105156
Y0107696
Y0110236
Y0112776
Y0115316
Y0117856
X00815218
Y0115316
Y0112776
Y0110236
Y0107696
Y0105156
Y0102616
Y0100076
Y0097536
Y0094996
Y0092456
Y0089916
Y0087376
Y0084836
Y0082296
Y0079756
X0088548Y0116138
X0106582
Y0118678
X0110149Y0120396
Y0122936
X01145417
Y0120396
X0084749
Y0122936
X00815218
Y0120396
T06
X0105664Y0071882
X00675Y0108125
X0123725Y0112975
M30
